<svg width="122" height="123" viewBox="0 0 122 123" fill="none" xmlns="http://www.w3.org/2000/svg">
<g clip-path="url(#clip0)">
<path d="M74.8434 34.6996C75.1974 34.344 75.6663 34.1494 76.1663 34.1494C76.6662 34.1494 77.1351 34.344 77.4891 34.6996C77.8384 35.0503 78.2977 35.2281 78.757 35.2281C79.2163 35.2281 79.6756 35.0527 80.0248 34.6996C80.7257 33.9957 80.7257 32.8546 80.0248 32.1507C78.9938 31.1153 77.6231 30.5459 76.1639 30.5459C74.7047 30.5459 73.334 31.1153 72.3029 32.1507C71.602 32.8546 71.602 33.9957 72.3029 34.6996C73.0062 35.4034 74.1425 35.4034 74.8434 34.6996Z" fill="white"/>
<path d="M91.8325 34.6996C92.1865 34.344 92.6554 34.1494 93.1554 34.1494C93.6553 34.1494 94.1242 34.344 94.4782 34.6996C94.8275 35.0503 95.2868 35.2281 95.7461 35.2281C96.2054 35.2281 96.6647 35.0527 97.0139 34.6996C97.7148 33.9957 97.7148 32.8546 97.0139 32.1507C95.9829 31.1153 94.6122 30.5459 93.153 30.5459C91.6938 30.5459 90.3231 31.1153 89.292 32.1507C88.5911 32.8546 88.5911 33.9957 89.292 34.6996C89.9953 35.4034 91.1316 35.4034 91.8325 34.6996Z" fill="white"/>
<path d="M80.7975 46.2523C81.8285 47.2878 83.1992 47.8571 84.6584 47.8571C86.1176 47.8571 87.4883 47.2878 88.5194 46.2523C89.2203 45.5485 89.2203 44.4073 88.5194 43.7035C87.8185 42.9996 86.6822 42.9996 85.9813 43.7035C85.6272 44.059 85.1584 44.2536 84.6584 44.2536C84.1585 44.2536 83.6896 44.059 83.3356 43.7035C82.6347 42.9996 81.4984 42.9996 80.7975 43.7035C80.0966 44.4097 80.0966 45.5485 80.7975 46.2523Z" fill="white"/>
<path d="M122 72.9558C122 70.3684 121.321 67.8436 119.983 65.4508C119.498 64.5836 118.405 64.2737 117.541 64.7614C116.677 65.249 116.369 66.3469 116.854 67.2142C117.888 69.0616 118.412 70.993 118.412 72.9558V87.735H108.456V78.9592C108.456 77.9647 107.652 77.1575 106.661 77.1575C105.671 77.1575 104.867 77.9647 104.867 78.9592V87.735H92.2463L94.5811 83.3027C94.5859 83.2906 94.593 83.2786 94.5978 83.2666C94.8562 82.7477 94.8897 82.2096 94.6959 81.6571L89.9331 65.7223L90.5981 63.1086C90.9976 63.4785 91.2751 63.762 91.4785 63.971C91.8468 64.3482 92.476 64.992 93.3611 64.992C93.8156 64.992 94.3347 64.8238 94.9208 64.3626C95.0834 64.2353 95.27 64.0887 95.5619 63.9061C95.6025 63.8797 95.6432 63.8533 95.6815 63.8245L103.71 57.8282C106.367 58.5057 109.042 59.7333 111.338 61.3452C111.652 61.5639 112.01 61.6696 112.364 61.6696C112.931 61.6696 113.489 61.4005 113.836 60.8984C114.405 60.084 114.206 58.9597 113.393 58.3904C110.676 56.4829 107.489 55.0415 104.332 54.2703C103.82 53.8884 102.753 53.0572 101.53 52.1034C100.672 51.4332 99.7434 50.7101 98.8511 50.0206C102.119 46.7222 104.58 42.6118 105.516 38.4917C105.776 37.3314 105.908 36.2023 105.908 35.1381V18.2784C105.908 10.9321 100.361 4.28957 91.7775 1.35391C88.1725 0.121506 84.3546 -0.289295 81.0295 0.198381C77.5561 0.705275 74.707 2.14428 72.7383 4.37125C68.7267 4.99826 62.885 8.1117 63.0883 20.9498C63.0907 21.0723 63.0907 21.1732 63.0907 21.2501V35.1357C63.0907 36.2359 63.2247 37.3674 63.4854 38.4917C64.4303 42.6694 66.9469 46.8375 70.2887 50.1599C69.5256 50.7509 68.7434 51.3611 68.0162 51.9281C66.8488 52.8385 65.7389 53.7058 65.1408 54.155C63.0405 54.6187 60.9354 55.3802 58.9475 56.3892L58.9906 47.4597C59.0241 40.147 53.5078 33.5141 44.9319 30.5592C38.5089 28.3442 30.2225 28.4668 25.7372 33.5429C21.7256 34.1723 15.8863 37.2858 16.0873 50.1215C16.0896 50.244 16.092 50.3473 16.092 50.4218V64.3073C16.092 65.4076 16.2236 66.5415 16.4844 67.6658C17.3671 71.5504 19.7233 75.62 22.9073 78.9376C22.326 79.3316 21.9983 79.9009 21.8165 80.2132C21.7543 80.3214 21.6969 80.4222 21.6442 80.4967L17.8694 85.8684C14.4271 86.6707 10.9609 88.2803 8.04243 90.4448C7.24345 91.0358 7.076 92.1649 7.66447 92.9649C8.01612 93.443 8.55914 93.6976 9.10933 93.6976C9.47772 93.6976 9.8509 93.5823 10.1714 93.3445C12.4823 91.634 15.1782 90.3247 17.8885 89.58C18.4866 90.1421 19.3334 90.5049 20.1587 90.5049H54.8402C55.6703 90.5049 56.5123 90.1469 57.1056 89.58C58.4308 89.9403 59.7465 90.4304 61.0143 91.0358C61.1435 91.1223 61.2847 91.192 61.433 91.2424C66.9277 93.9931 71.4083 98.8867 71.4083 104.604V119.383H71.0279C71.004 119.383 70.9801 119.383 70.9561 119.383H61.4545V110.608C61.4545 109.613 60.6507 108.806 59.6604 108.806C58.67 108.806 57.8663 109.613 57.8663 110.608V119.383H16.0227V110.608C16.0227 109.613 15.2189 108.806 14.2285 108.806C13.2382 108.806 12.4344 109.613 12.4344 110.608V119.383H4.03318C3.87769 119.383 3.72937 119.386 3.58823 119.388V104.604C3.58823 102.663 4.09776 100.753 5.10247 98.9299C5.58329 98.0603 5.26992 96.9624 4.40157 96.4819C3.53561 95.999 2.44478 96.3138 1.96396 97.1858C0.660235 99.5521 0 102.048 0 104.607V119.578C0 120.325 0.0932941 121.406 0.889882 122.194C1.61949 122.915 2.51176 122.999 3.28922 122.999C3.41122 122.999 3.53322 122.997 3.64804 122.994C3.77004 122.992 3.89922 122.989 4.03318 122.989H14.219C14.2214 122.989 14.2262 122.989 14.2285 122.989C14.2309 122.989 14.2357 122.989 14.2381 122.989H45.3481C45.3505 122.989 45.3553 122.989 45.3577 122.989H70.9968C71.1188 122.989 71.236 122.992 71.3461 122.994C71.4633 122.997 71.5829 122.999 71.7049 122.999C71.8293 122.999 71.9561 122.997 72.0876 122.989H117.153C120.483 122.989 122.002 120.645 122.002 118.463V89.5367C122.002 89.3397 121.969 89.15 121.911 88.9722C121.986 88.595 122.002 88.2323 122.002 87.9272L122 72.9558ZM91.1077 82.188L88.1892 87.735H80.807L77.891 82.188L82.2567 67.5625H86.7372L91.1077 82.188ZM81.4601 60.5957L84.6608 57.6456L87.596 60.3531L86.6774 63.959H82.3165L81.4601 60.5957ZM99.3295 54.9502C99.717 55.2505 100.081 55.5364 100.416 55.7958L93.5955 60.8912C93.5716 60.9056 93.5501 60.92 93.5285 60.9344C93.2367 60.6486 92.8611 60.2954 92.3803 59.8774L88.5816 56.37C89.0528 56.2306 89.5384 56.0697 90.0408 55.8823C92.1626 55.0871 94.2151 53.9028 96.1049 52.4446C97.155 53.2541 98.2937 54.1406 99.3295 54.9502ZM73.8219 7.86666C74.3219 7.82102 74.7788 7.56877 75.085 7.16998C77.0442 4.61869 80.3358 3.5977 83.8283 3.5977C86.1152 3.5977 88.4835 4.03492 90.6197 4.76524C96.0164 6.61024 102.32 11.2564 102.32 18.2784V25.8362H100.506C97.5904 25.8362 95.77 24.1233 93.4663 21.9516C90.6938 19.3403 87.5529 16.3806 81.9433 16.3806H75.7381C70.827 16.3806 70.016 20.3516 69.4778 22.9822C68.9109 25.7617 68.4922 26.9629 66.679 27.2199V21.2525C66.679 21.1612 66.679 21.0411 66.6766 20.8946C66.5881 15.2467 67.7554 8.40238 73.8219 7.86666ZM66.9828 37.6846C66.7818 36.8197 66.679 35.9621 66.679 35.1381V30.8427C71.6188 30.4223 72.4417 26.4128 72.9943 23.7077C73.5995 20.7384 73.9487 19.9865 75.7381 19.9865H81.9433C86.1344 19.9865 88.5026 22.2183 91.012 24.5822C93.5477 26.9725 96.1695 29.4421 100.506 29.4421H102.32V35.1381C102.32 35.9356 102.217 36.7981 102.016 37.6942C100.621 43.8346 94.9327 50.2008 88.7873 52.5046C87.1606 53.1124 85.7971 53.3959 84.4958 53.3959C83.1968 53.3959 81.8357 53.1124 80.2138 52.507C74.0588 50.2008 68.3726 43.8346 66.9828 37.6846ZM70.217 54.7772C71.126 54.0685 72.1187 53.2926 73.0541 52.5719C74.8984 53.9724 76.8959 55.1088 78.9603 55.8823C79.5488 56.1033 80.1133 56.2859 80.6635 56.4397L76.9341 59.8774C76.4557 60.2954 76.0801 60.6486 75.7907 60.932C75.7692 60.9176 75.7476 60.9056 75.7261 60.8912L68.9037 55.8006C69.3032 55.4883 69.7457 55.1448 70.217 54.7772ZM19.6803 63.7019V50.4242C19.6803 50.3353 19.6779 50.2152 19.6755 50.0662C19.587 44.4207 20.7543 37.5788 26.8209 37.0431C27.3208 36.9975 27.7801 36.7452 28.0863 36.3465C31.3468 32.0943 38.3104 32.0895 43.7669 33.9705C49.1564 35.8251 55.4358 40.4689 55.4023 47.4453L55.3473 58.5729L55.3306 62.1885L55.3234 63.5866C50.8261 68.1511 43.3842 70.5823 35.2412 70.1042C28.4451 69.7078 22.5556 67.2718 19.6803 63.7019ZM20.8189 69.4507C24.51 71.8579 29.4762 73.3786 35.0331 73.7029C35.7699 73.7461 36.4995 73.7678 37.2267 73.7678C43.7167 73.7678 49.7425 72.0693 54.357 69.0039C53.0341 72.4633 50.453 75.9323 47.2331 78.5124H27.7586C24.6823 76.0476 22.1896 72.766 20.8189 69.4507ZM21.5342 86.9014L24.5722 82.5844C24.6894 82.4162 24.7875 82.2552 24.8689 82.1159H27.1342H27.1366H47.8551H47.8575H50.764C50.8261 82.2312 50.8907 82.3465 50.9625 82.4666L53.6202 86.9014H21.5342ZM54.0412 80.6168C53.9934 80.5352 53.9479 80.4535 53.9049 80.3718C53.6776 79.949 53.2159 79.101 52.3021 78.7142C55.3832 75.4374 57.6534 71.4615 58.5145 67.6658C58.7729 66.5127 58.9069 65.3908 58.9069 64.3337C58.9069 64.3289 58.9092 64.3241 58.9092 64.3193L58.9284 60.5236C60.9904 59.272 63.2845 58.3111 65.5236 57.7681L73.6425 63.8245C73.6808 63.8533 73.7191 63.8797 73.7598 63.9061C74.054 64.0887 74.2382 64.2353 74.4032 64.3626C74.9893 64.8238 75.5084 64.9944 75.9605 64.9944C76.8456 64.9944 77.4748 64.3482 77.8408 63.971C77.9963 63.81 78.1972 63.6058 78.4579 63.3536L79.0608 65.7223L74.3171 81.6162C74.0947 82.1952 74.1305 82.7669 74.4248 83.3123L76.7476 87.735H62.4138C60.7273 86.935 58.9643 86.3056 57.1965 85.8876L54.0412 80.6168ZM117.151 119.386H74.9989V104.607C74.9989 99.9893 72.8651 95.6219 68.8295 91.9775C68.5903 91.7613 68.3415 91.5499 68.0927 91.3409H79.7234C79.7258 91.3409 79.7258 91.3409 79.7282 91.3409C79.7306 91.3409 79.7306 91.3409 79.733 91.3409H84.491C84.4934 91.3409 84.4958 91.3409 84.4958 91.3409H89.2681H89.2729H117.96C118.094 91.3409 118.223 91.3433 118.347 91.3457C118.369 91.3457 118.39 91.3457 118.412 91.3457V118.466C118.412 118.944 118.259 119.386 117.151 119.386Z" fill="white"/>
</g>
<defs>
<clipPath id="clip0">
<rect width="122" height="123" fill="white"/>
</clipPath>
</defs>
</svg>
