<svg width="133" height="114" viewBox="0 0 133 114" fill="none" xmlns="http://www.w3.org/2000/svg">
<g clip-path="url(#clip0)">
<path d="M127.415 97.0833H123.513C124.015 96.1046 124.298 94.9985 124.298 93.8272L124.295 26.1586C124.295 22.2129 121.09 19.0011 117.152 19.0011H106.634V16.617C106.634 14.7378 105.106 13.2074 103.231 13.2074H100.007V3.41066C100.007 2.3097 99.472 1.27121 98.5785 0.633539C97.6823 -0.00413257 96.5289 -0.170708 95.4898 0.18847L89.3542 2.31491C88.3385 2.66628 87.7982 3.77765 88.1489 4.79792C88.4995 5.81559 89.6087 6.35696 90.627 6.00559L96.1107 4.10559V51.0538L68.4482 60.6371V13.6889L82.7717 8.72546C83.79 8.37409 84.3277 7.26272 83.977 6.24244C83.6264 5.22477 82.5171 4.6834 81.4989 5.03477L66.5 10.2324L37.5102 0.18847C36.4711 -0.170708 35.3177 -0.00413257 34.4241 0.633539C33.5305 1.27121 32.9954 2.3097 32.9954 3.41066V13.2048H29.7691C27.8936 13.2048 26.3662 14.7352 26.3662 16.6144V19.0011H15.8457C11.9077 19.0011 8.70215 22.2129 8.70215 26.1586V33.1001C8.70215 34.1777 9.57496 35.0522 10.6504 35.0522C11.7258 35.0522 12.5986 34.1777 12.5986 33.1001V26.1586C12.5986 24.3653 14.0559 22.9052 15.8457 22.9052H26.3662V26.8093H18.4434C17.9264 26.8093 17.4303 27.0149 17.0666 27.3819C16.7003 27.7489 16.4951 28.2434 16.4951 28.7613L16.4977 91.2245C16.4977 92.302 17.3705 93.1766 18.446 93.1766H114.557C115.074 93.1766 115.57 92.9709 115.933 92.604C116.3 92.237 116.505 91.7424 116.505 91.2245L116.502 28.7613C116.502 27.6838 115.629 26.8093 114.554 26.8093H106.634V22.9052H117.152C118.941 22.9052 120.399 24.3653 120.399 26.1586L120.401 93.8272C120.401 95.6205 118.944 97.0807 117.154 97.0807L15.8483 97.0833C14.0585 97.0833 12.6012 95.6231 12.6012 93.8298L12.5986 41.4549C12.5986 40.3774 11.7258 39.5029 10.6504 39.5029C9.57496 39.5029 8.70215 40.3774 8.70215 41.4549L8.70475 93.8298C8.70475 95.0011 8.98789 96.1072 9.48924 97.0833H5.58496C2.50674 97.0833 0 99.5923 0 102.679V108.405C0 111.492 2.50674 114.001 5.58496 114.001H83.0419C84.1173 114.001 84.9901 113.127 84.9901 112.049C84.9901 110.971 84.1173 110.097 83.0419 110.097H5.58496C4.655 110.097 3.89648 109.337 3.89648 108.405V102.679C3.89648 101.747 4.655 100.987 5.58496 100.987H53.3818V102.359C53.3818 105.048 55.5639 107.234 58.2472 107.234H74.7528C77.4361 107.234 79.6182 105.048 79.6182 102.359V100.987H127.415C128.345 100.987 129.104 101.747 129.104 102.679V108.405C129.104 109.337 128.345 110.097 127.415 110.097H91.5492C90.4738 110.097 89.601 110.971 89.601 112.049C89.601 113.127 90.4738 114.001 91.5492 114.001H127.415C130.496 114.001 133 111.492 133 108.405V102.679C133 99.5923 130.496 97.0833 127.415 97.0833ZM97.716 54.6274C99.085 54.1537 100.007 52.8575 100.007 51.4052V17.1115H102.737V61.4257H78.0959L97.716 54.6274ZM36.8893 4.10299L64.5518 13.6889V60.6371L36.8893 51.0538V4.10299ZM30.2627 17.1115H32.9928V51.4052C32.9928 52.8575 33.9124 54.1537 35.284 54.6274L54.9041 61.4257H30.2627V17.1115ZM112.606 30.7134L112.608 89.2724L20.3942 89.275L20.3916 30.716H26.3662V61.9203C26.3662 63.7994 27.8936 65.3298 29.7691 65.3298H103.231C105.106 65.3298 106.634 63.7994 106.634 61.9203V30.7134H112.606ZM75.7217 102.359C75.7217 102.895 75.2879 103.33 74.7528 103.33H58.2472C57.7121 103.33 57.2783 102.895 57.2783 102.359V100.987H75.7217V102.359Z" fill="white"/>
<path d="M92.0895 70.896H40.9105C39.8351 70.896 38.9622 71.7705 38.9622 72.8481C38.9622 73.9256 39.8351 74.8001 40.9105 74.8001H92.0895C93.1649 74.8001 94.0378 73.9256 94.0378 72.8481C94.0378 71.7705 93.1649 70.896 92.0895 70.896Z" fill="white"/>
<path d="M74.1008 79.1753H40.9105C39.8351 79.1753 38.9622 80.0498 38.9622 81.1273C38.9622 82.2049 39.8351 83.0794 40.9105 83.0794H74.1008C75.1762 83.0794 76.049 82.2049 76.049 81.1273C76.049 80.0498 75.1762 79.1753 74.1008 79.1753Z" fill="white"/>
</g>
<defs>
<clipPath id="clip0">
<rect width="133" height="114" fill="white"/>
</clipPath>
</defs>
</svg>
