<svg xmlns="http://www.w3.org/2000/svg" width="88" height="88" fill="none" viewBox="0 0 88 88"><g clip-path="url(#clip0)"><path fill="#fff" d="M87.8172 54.0644L83.9503 44.0006L87.8104 33.9316C88.24 32.8215 87.898 31.5566 86.9751 30.8073L78.5984 24.0208L76.9038 13.3692C76.7165 12.1972 75.7936 11.2743 74.6215 11.087L63.9693 9.39248L57.184 1.018C56.4364 0.093417 55.1767 -0.2417 54.0595 0.182782L43.9968 4.0478L33.9273 0.187937C32.817 -0.2417 31.5573 0.0951356 30.8096 1.02315L24.0227 9.39936L13.3705 11.0938C12.1984 11.2812 11.2755 12.204 11.0881 13.3761L9.39355 24.0276L1.01685 30.8125C0.0922212 31.56 -0.242915 32.8197 0.181591 33.9299L4.04168 43.9989L0.179872 54.0696C-0.242915 55.1798 0.0922212 56.4395 1.01514 57.187L9.39183 63.9736L11.0864 74.6252C11.2738 75.7972 12.1967 76.7201 13.3688 76.9074L24.021 78.6019L30.8079 86.9781C31.5607 87.9078 32.8205 88.2481 33.9324 87.8133L43.9968 83.9534L54.0664 87.8133C54.3861 87.9336 54.7212 87.9955 55.0512 87.9955C55.859 87.9955 56.6564 87.638 57.1909 86.9781L63.9779 78.6019L74.63 76.9074C75.8022 76.7201 76.7251 75.7972 76.9124 74.6252L78.607 63.9736L86.9837 57.187C87.9066 56.4395 88.2418 55.1746 87.8172 54.0644ZM78.43 44.9853L81.9549 54.1693L74.3052 60.3612C73.7776 60.7908 73.4253 61.3958 73.3204 62.066L71.7754 71.7827L62.0581 73.3277C61.3879 73.4325 60.7829 73.7848 60.3532 74.3124L54.1712 81.9616L44.9868 78.4369C44.6671 78.3218 44.332 78.2547 43.9968 78.2547C43.6617 78.2547 43.3266 78.3149 43.0121 78.4369L33.8276 81.9616L27.6353 74.3124C27.2056 73.7848 26.6007 73.4325 25.9304 73.3277L16.2132 71.7827L14.6681 62.066C14.5632 61.3958 14.2109 60.7908 13.6833 60.3612L6.03359 54.1744L9.55854 44.9905C9.80087 44.3529 9.80087 43.6483 9.55339 43.0159L6.03187 33.8268L13.6816 27.6349C14.2092 27.2052 14.5615 26.6003 14.6664 25.9301L16.2114 16.2134L25.9287 14.6684C26.5989 14.5636 27.2039 14.2113 27.6336 13.6837L33.8207 6.0396L43.0052 9.56434C43.6376 9.80665 44.3423 9.80665 44.9748 9.56434L54.1592 6.0396L60.3515 13.6889C60.7812 14.2165 61.3861 14.5688 62.0564 14.6736L71.7737 16.2186L73.3187 25.9352C73.4236 26.6055 73.7759 27.2104 74.3035 27.64L81.9532 33.832L78.4283 43.0159C78.1877 43.6483 78.1877 44.3529 78.43 44.9853Z"/><path fill="#fff" d="M35.7479 22.0024C31.2004 22.0024 27.4984 25.7042 27.4984 30.2515C27.4984 34.7988 31.2004 38.5005 35.7479 38.5005C40.2955 38.5005 43.9974 34.7988 43.9974 30.2515C43.9974 25.7042 40.2955 22.0024 35.7479 22.0024ZM35.7479 33.0012C34.2304 33.0012 32.9981 31.769 32.9981 30.2515C32.9981 28.734 34.2304 27.5018 35.7479 27.5018C37.2655 27.5018 38.4978 28.734 38.4978 30.2515C38.4978 31.769 37.2655 33.0012 35.7479 33.0012Z"/><path fill="#fff" d="M52.247 49.4993C47.6994 49.4993 43.9974 53.201 43.9974 57.7483C43.9974 62.2956 47.6994 65.9973 52.247 65.9973C56.7945 65.9973 60.4965 62.2956 60.4965 57.7483C60.4965 53.201 56.7945 49.4993 52.247 49.4993ZM52.247 60.498C50.7294 60.498 49.4971 59.2658 49.4971 57.7483C49.4971 56.2308 50.7294 54.9986 52.247 54.9986C53.7645 54.9986 54.9968 56.2308 54.9968 57.7483C54.9968 59.2658 53.7645 60.498 52.247 60.498Z"/><path fill="#fff" d="M59.3467 22.5198C58.1144 21.6399 56.3941 21.9252 55.5141 23.1574L28.0157 61.6529C27.1306 62.8851 27.4159 64.6053 28.6482 65.4852C29.1328 65.8324 29.6931 65.9974 30.2482 65.9974C31.1058 65.9974 31.9531 65.5952 32.4859 64.8477L59.9843 26.3522C60.8694 25.1148 60.579 23.3997 59.3467 22.5198Z"/></g><defs><clipPath id="clip0"><rect width="88" height="88" fill="#fff"/></clipPath></defs></svg>