<svg xmlns="http://www.w3.org/2000/svg" width="122" height="122" fill="none" viewBox="0 0 122 122"><path fill="#fff" d="M37.4125 7.14844C36.4261 7.14844 35.6254 7.94906 35.6254 8.93555C35.6254 9.92203 36.4261 10.7227 37.4125 10.7227C38.399 10.7227 39.1996 9.92203 39.1996 8.93555C39.1996 7.94906 38.399 7.14844 37.4125 7.14844ZM44.561 7.14844C43.5745 7.14844 42.7739 7.94906 42.7739 8.93555C42.7739 9.92203 43.5745 10.7227 44.561 10.7227C45.5475 10.7227 46.3481 9.92203 46.3481 8.93555C46.3481 7.94906 45.5475 7.14844 44.561 7.14844ZM30.2641 7.14844C29.2776 7.14844 28.477 7.94906 28.477 8.93555C28.477 9.92203 29.2776 10.7227 30.2641 10.7227C31.2506 10.7227 32.0512 9.92203 32.0512 8.93555C32.0512 7.94906 31.2506 7.14844 30.2641 7.14844ZM114.659 7.14844H100.671V4.64648C100.671 2.08496 98.5865 0 96.025 0H25.975C23.4135 0 21.3286 2.08496 21.3286 4.64648V10.2556H8.93555C4.00789 10.2556 0 14.2635 0 19.1912V86.4866C0 91.4142 4.00789 95.4221 8.93555 95.4221H50.7253L49.3647 105.54H47.3727C45.719 105.54 44.256 106.652 43.8128 108.246L41.2965 117.32C40.9844 118.442 41.2107 119.617 41.9161 120.542C42.6214 121.466 43.6912 122 44.8564 122H77.1436C78.3087 122 79.3786 121.469 80.0839 120.542C80.7893 119.615 81.0132 118.44 80.7035 117.32L78.1872 108.246C77.7464 106.652 76.2834 105.54 74.6273 105.54H72.6353L71.2747 95.4221H113.064C117.992 95.4221 122 91.4142 122 86.4866V14.4899C122 10.4415 118.707 7.14844 114.659 7.14844ZM24.9028 17.8711H53.8516C54.838 17.8711 55.6387 17.0705 55.6387 16.084C55.6387 15.0975 54.838 14.2969 53.8516 14.2969H24.9028V4.64648C24.9028 4.05555 25.3841 3.57422 25.975 3.57422H96.025C96.6159 3.57422 97.0972 4.05555 97.0972 4.64648V7.14844H85.3166C81.3325 7.14844 78.0824 10.339 77.9799 14.2969H62.1914C61.2049 14.2969 60.4043 15.0975 60.4043 16.084C60.4043 17.0705 61.2049 17.8711 62.1914 17.8711H77.9752V27.1498C77.9752 31.1982 81.2682 34.4912 85.3166 34.4912H88.8575V37.9201C88.8575 38.9447 89.4698 39.8621 90.4182 40.2552C91.357 40.6436 92.4436 40.4363 93.1727 39.7072L97.0972 35.7827V63.6759C97.0972 64.6624 97.8979 65.463 98.8843 65.463C99.8708 65.463 100.671 64.6624 100.671 63.6759V34.4888H111.277V81.1252H100.671V72.0157C100.671 71.0293 99.8708 70.2286 98.8843 70.2286C97.8979 70.2286 97.0972 71.0293 97.0972 72.0157V81.1252H83.0648V70.5551C83.0648 65.7156 80.1554 61.4432 75.6519 59.6728L70.8243 57.7737C69.59 57.2876 68.7942 56.1176 68.7942 54.7928V52.7721C71.7941 50.4418 73.7314 46.8032 73.7314 42.7191V29.3753C73.7314 25.234 70.3621 21.8647 66.2207 21.8647H55.7864C51.6451 21.8647 48.2758 25.234 48.2758 29.3753V42.7191C48.2758 46.8032 50.213 50.4418 53.213 52.7745V54.7952C53.213 56.12 52.4147 57.29 51.1804 57.7761L46.3529 59.6752C41.8493 61.4456 38.9375 65.718 38.9375 70.5575V81.1276H24.9052L24.9028 17.8711ZM70.5551 74.3962C69.5686 74.3962 68.768 75.1968 68.768 76.1833V81.1252H53.232V76.1833C53.232 75.1968 52.4314 74.3962 51.4449 74.3962C50.4584 74.3962 49.6578 75.1968 49.6578 76.1833V81.1252H42.5094V70.5551C42.5094 67.1953 44.53 64.2287 47.6562 62.9992L52.0525 61.2693C54.433 63.6044 57.6236 64.9221 60.9976 64.9221C64.3717 64.9221 67.5623 63.6044 69.9451 61.2693L74.3414 62.9992C77.4676 64.2287 79.4882 67.1953 79.4882 70.5551V81.1252H72.3398V76.1833C72.3422 75.1968 71.5416 74.3962 70.5551 74.3962ZM53.1844 39.9955C55.6959 39.9955 58.1811 39.5737 60.5068 38.7421C61.853 38.2608 63.1517 37.6437 64.3812 36.8979C65.0246 37.6222 65.9134 38.3871 67.1119 38.9661C68.1985 39.4904 69.2517 39.7191 70.1548 39.7953V42.7167C70.1548 47.7635 66.0492 51.8714 61 51.8714C55.9508 51.8714 51.8452 47.7659 51.8452 42.7167V39.9502C52.2932 39.9788 52.7388 39.9955 53.1844 39.9955ZM51.8452 36.3713V29.3729C51.8452 27.2022 53.6109 25.4365 55.7816 25.4365H66.216C68.3867 25.4365 70.1524 27.2022 70.1524 29.3729V36.2021C69.6949 36.1353 69.185 35.9995 68.6631 35.7493C67.5956 35.2346 66.938 34.4626 66.5758 33.905C66.2469 33.3999 65.718 33.0425 65.127 32.9233C64.5337 32.8066 63.9046 32.9352 63.4043 33.276C62.1247 34.1529 60.745 34.8605 59.3011 35.3752C56.954 36.2164 54.402 36.5523 51.8452 36.3713ZM66.8689 59.232C65.2295 60.5902 63.1684 61.3479 61 61.3479C58.8316 61.3479 56.7681 60.5902 55.1311 59.232C56.1748 58.0286 56.7824 56.4703 56.7824 54.7928V54.7261C58.1025 55.1907 59.5227 55.448 61 55.448C62.4773 55.448 63.8975 55.1931 65.2176 54.7261V54.7928C65.2176 56.4727 65.8252 58.0286 66.8689 59.232ZM74.6273 109.111C74.6797 109.111 74.7274 109.147 74.7417 109.197L77.2579 118.273C77.2818 118.33 77.2055 118.431 77.1436 118.423H44.8564C44.7945 118.431 44.7182 118.33 44.7421 118.273L47.2583 109.197C47.2726 109.147 47.3203 109.111 47.3727 109.111H74.6273ZM52.9723 105.537L54.3329 95.4197H67.6671L69.0277 105.537H52.9723ZM118.426 86.4866C118.426 89.4436 116.022 91.8479 113.064 91.8479H8.93555C5.97848 91.8479 3.57422 89.4436 3.57422 86.4866V19.1912C3.57422 16.2341 5.97848 13.8298 8.93555 13.8298H21.3286V17.4041H9.88867C8.37797 17.4041 7.14844 18.6336 7.14844 20.1443V81.9592C7.14844 83.4699 8.37797 84.6994 9.88867 84.6994H112.111C113.622 84.6994 114.852 83.4699 114.852 81.9592V34.4841C116.155 34.4507 117.375 34.0766 118.426 33.4452V86.4866ZM21.3286 20.9783V81.1252H10.7227V20.9783H21.3286ZM118.426 27.1498C118.426 29.2276 116.736 30.917 114.659 30.917C112.664 30.917 100.195 30.917 98.1862 30.917C97.3617 30.917 96.5873 31.2387 96.0059 31.8201L92.4317 35.3943V34.0004C92.4317 32.3014 91.0497 30.917 89.3483 30.917H85.3166C83.2388 30.917 81.5494 29.2276 81.5494 27.1498V14.4899C81.5494 12.4121 83.2388 10.7227 85.3166 10.7227H114.659C116.736 10.7227 118.426 12.4121 118.426 14.4899V27.1498ZM112.128 22.6057H87.8495C86.863 22.6057 86.0624 23.4064 86.0624 24.3929C86.0624 25.3793 86.863 26.18 87.8495 26.18H112.128C113.114 26.18 113.915 25.3793 113.915 24.3929C113.915 23.4064 113.114 22.6057 112.128 22.6057ZM112.128 15.4573H87.8495C86.863 15.4573 86.0624 16.2579 86.0624 17.2444C86.0624 18.2309 86.863 19.0315 87.8495 19.0315H112.128C113.114 19.0315 113.915 18.2309 113.915 17.2444C113.915 16.2579 113.114 15.4573 112.128 15.4573Z"/></svg>