<svg width="210" height="209" fill="none" xmlns="http://www.w3.org/2000/svg"><g opacity=".2" clip-path="url(#clip0)" fill="#245675"><path d="M209.563 128.404l-9.228-23.901 9.212-23.914c1.025-2.637.209-5.641-1.993-7.42l-19.99-16.119-4.044-25.297a6.558 6.558 0 00-5.447-5.42l-25.42-4.025-16.192-19.89c-1.784-2.195-4.79-2.99-7.456-1.983l-24.013 9.18L80.962.447a6.545 6.545 0 00-7.44 1.984L57.326 22.325l-25.42 4.024a6.558 6.558 0 00-5.446 5.42l-4.044 25.298L2.426 73.18a6.505 6.505 0 00-1.993 7.404l9.211 23.913L.43 128.416a6.517 6.517 0 001.993 7.404l19.99 16.118 4.044 25.298a6.559 6.559 0 005.446 5.42l25.42 4.025 16.196 19.893a6.55 6.55 0 007.456 1.984l24.018-9.167 24.029 9.167a6.739 6.739 0 002.35.432 6.593 6.593 0 005.107-2.416l16.196-19.893 25.42-4.025a6.558 6.558 0 005.446-5.42l4.044-25.298 19.99-16.118a6.528 6.528 0 001.989-7.416zm-22.401-21.563l8.412 21.812-18.255 14.706a6.512 6.512 0 00-2.35 4.049l-3.688 23.077-23.188 3.669a6.563 6.563 0 00-4.069 2.339l-14.752 18.167-21.918-8.371a7.012 7.012 0 00-2.362-.433c-.8 0-1.6.143-2.35.433l-21.918 8.371-14.777-18.167a6.564 6.564 0 00-4.068-2.339l-23.19-3.669-3.686-23.077a6.517 6.517 0 00-2.35-4.049l-18.255-14.694 8.411-21.811a6.492 6.492 0 00-.012-4.69L14.393 80.34l18.255-14.706a6.518 6.518 0 002.35-4.049l3.688-23.077 23.188-3.67a6.564 6.564 0 004.07-2.338l14.764-18.155 21.917 8.371a6.613 6.613 0 004.7 0l21.918-8.37 14.777 18.166a6.563 6.563 0 004.068 2.339l23.189 3.67 3.687 23.076a6.522 6.522 0 002.35 4.05l18.255 14.705-8.411 21.812a6.535 6.535 0 00.004 4.677z"/><path d="M85.308 52.256c-10.853 0-19.687 8.791-19.687 19.591S74.455 91.44 85.308 91.44c10.852 0 19.686-8.792 19.686-19.592 0-10.8-8.834-19.591-19.686-19.591zm0 26.122c-3.622 0-6.563-2.927-6.563-6.53 0-3.605 2.941-6.531 6.563-6.531 3.621 0 6.562 2.926 6.562 6.53s-2.941 6.53-6.563 6.53zm39.372 39.183c-10.852 0-19.686 8.792-19.686 19.591 0 10.8 8.834 19.592 19.686 19.592s19.687-8.792 19.687-19.592c0-10.799-8.835-19.591-19.687-19.591zm0 26.122c-3.621 0-6.562-2.926-6.562-6.531 0-3.604 2.941-6.53 6.562-6.53 3.622 0 6.562 2.926 6.562 6.53 0 3.605-2.94 6.531-6.562 6.531zm16.943-90.198c-2.941-2.09-7.046-1.412-9.146 1.514l-65.621 91.427a6.5 6.5 0 001.509 9.102 6.557 6.557 0 003.818 1.216 6.563 6.563 0 005.34-2.73l65.621-91.427a6.5 6.5 0 00-1.521-9.102z"/></g><defs><clipPath id="clip0"><path fill="#fff" d="M0 0h210v209H0z"/></clipPath></defs></svg>