<svg xmlns="http://www.w3.org/2000/svg" width="345" height="349" fill="none" viewBox="0 0 345 349"><g clip-path="url(#clip0)" opacity=".2"><path fill="#245675" d="M211.647 98.4565C212.649 97.4477 213.974 96.8955 215.388 96.8955C216.802 96.8955 218.128 97.4477 219.129 98.4565C220.117 99.4517 221.416 99.9561 222.714 99.9561C224.013 99.9561 225.312 99.4585 226.3 98.4565C228.282 96.4593 228.282 93.2215 226.3 91.2243C223.384 88.2864 219.508 86.6709 215.382 86.6709C211.255 86.6709 207.379 88.2864 204.463 91.2243C202.481 93.2215 202.481 96.4593 204.463 98.4565C206.452 100.454 209.665 100.454 211.647 98.4565Z"/><path fill="#245675" d="M259.69 98.4565C260.691 97.4477 262.017 96.8955 263.431 96.8955C264.845 96.8955 266.171 97.4477 267.172 98.4565C268.16 99.4517 269.459 99.9561 270.757 99.9561C272.056 99.9561 273.355 99.4585 274.343 98.4565C276.325 96.4593 276.325 93.2215 274.343 91.2243C271.427 88.2864 267.551 86.6709 263.424 86.6709C259.298 86.6709 255.422 88.2864 252.506 91.2243C250.524 93.2215 250.524 96.4593 252.506 98.4565C254.495 100.454 257.708 100.454 259.69 98.4565Z"/><path fill="#245675" d="M228.485 131.236C231.4 134.174 235.276 135.79 239.403 135.79C243.529 135.79 247.405 134.174 250.321 131.236C252.303 129.239 252.303 126.001 250.321 124.004C248.339 122.007 245.126 122.007 243.144 124.004C242.143 125.013 240.817 125.565 239.403 125.565C237.989 125.565 236.663 125.013 235.662 124.004C233.68 122.007 230.467 122.007 228.485 124.004C226.503 126.008 226.503 129.239 228.485 131.236Z"/><path fill="#245675" d="M345 207.004C345 199.662 343.079 192.498 339.297 185.709C337.924 183.248 334.833 182.369 332.391 183.753C329.948 185.137 329.076 188.252 330.449 190.712C333.371 195.954 334.853 201.435 334.853 207.004V248.938H306.698V224.038C306.698 221.216 304.425 218.925 301.625 218.925C298.824 218.925 296.551 221.216 296.551 224.038V248.938H260.861L267.463 236.362C267.476 236.328 267.497 236.294 267.51 236.26C268.241 234.787 268.336 233.26 267.788 231.693L254.319 186.479L256.2 179.063C257.329 180.113 258.114 180.917 258.689 181.51C259.731 182.58 261.51 184.407 264.013 184.407C265.298 184.407 266.766 183.93 268.423 182.621C268.883 182.26 269.411 181.844 270.236 181.326C270.351 181.251 270.466 181.176 270.575 181.094L293.277 164.081C300.793 166.003 308.356 169.486 314.85 174.06C315.736 174.68 316.751 174.98 317.752 174.98C319.355 174.98 320.931 174.217 321.912 172.792C323.522 170.481 322.961 167.291 320.661 165.676C312.976 160.263 303.965 156.174 295.036 153.986C293.588 152.902 290.571 150.543 287.114 147.837C284.686 145.935 282.061 143.884 279.538 141.927C288.778 132.568 295.739 120.906 298.384 109.215C299.122 105.923 299.494 102.719 299.494 99.6997V51.8622C299.494 31.0176 283.806 12.1702 259.535 3.84057C249.34 0.34375 238.544 -0.821855 229.141 0.561875C219.318 2.00014 211.262 6.08317 205.694 12.402C194.35 14.1811 177.831 23.0151 178.406 59.442C178.412 59.7896 178.412 60.0759 178.412 60.2941V99.6929C178.412 102.815 178.791 106.025 179.529 109.215C182.201 121.069 189.317 132.896 198.767 142.323C196.609 144 194.397 145.731 192.341 147.34C189.04 149.923 185.901 152.384 184.21 153.658C178.27 154.974 172.317 157.135 166.696 159.998L166.818 134.661C166.912 113.912 151.313 95.0918 127.061 86.7076C108.898 80.4229 85.4653 80.7705 72.7815 95.1736C61.437 96.9595 44.9244 105.794 45.4926 142.214C45.4994 142.561 45.5062 142.854 45.5062 143.066V182.465C45.5062 185.586 45.8782 188.804 46.6156 191.994C49.1118 203.016 55.775 214.563 64.7788 223.976C63.135 225.094 62.2082 226.71 61.6941 227.596C61.5182 227.903 61.3559 228.189 61.2071 228.4L50.5323 243.642C40.7979 245.918 30.9959 250.485 22.7429 256.627C20.4835 258.304 20.01 261.508 21.6741 263.777C22.6685 265.134 24.2041 265.856 25.76 265.856C26.8018 265.856 27.8571 265.529 28.7635 264.854C35.2982 260.001 42.9221 256.286 50.5865 254.173C52.2776 255.768 54.6723 256.797 57.0062 256.797H155.081C157.428 256.797 159.809 255.782 161.487 254.173C165.235 255.196 168.955 256.586 172.541 258.304C172.906 258.549 173.305 258.747 173.724 258.89C189.263 266.695 201.933 280.58 201.933 296.803V338.737H200.858C200.79 338.737 200.722 338.737 200.655 338.737H173.785V313.837C173.785 311.015 171.512 308.725 168.712 308.725C165.911 308.725 163.638 311.015 163.638 313.837V338.737H45.31V313.837C45.31 311.015 43.037 308.725 40.2365 308.725C37.4359 308.725 35.1629 311.015 35.1629 313.837V338.737H11.4053C10.9656 338.737 10.5462 338.744 10.1471 338.751V296.803C10.1471 291.295 11.5879 285.876 14.4291 280.703C15.7888 278.235 14.9026 275.12 12.4471 273.757C9.99823 272.387 6.91353 273.28 5.55382 275.754C1.86706 282.468 0 289.55 0 296.81V339.29C0 341.41 0.263824 344.477 2.51647 346.713C4.5797 348.758 7.10294 348.996 9.30147 348.996C9.64647 348.996 9.99147 348.989 10.3162 348.983C10.6612 348.976 11.0265 348.969 11.4053 348.969H40.2094C40.2162 348.969 40.2297 348.969 40.2365 348.969C40.2432 348.969 40.2568 348.969 40.2635 348.969H128.239C128.245 348.969 128.259 348.969 128.266 348.969H200.77C201.115 348.969 201.446 348.976 201.757 348.983C202.089 348.989 202.427 348.996 202.772 348.996C203.124 348.996 203.482 348.989 203.854 348.969H331.295C340.711 348.969 345.007 342.316 345.007 336.127V254.05C345.007 253.491 344.912 252.953 344.75 252.449C344.959 251.378 345.007 250.349 345.007 249.483L345 207.004ZM257.641 233.199L249.388 248.938H228.512L220.266 233.199L232.611 191.701H245.281L257.641 233.199ZM230.358 171.933L239.41 163.563L247.71 171.245L245.112 181.476H232.78L230.358 171.933ZM280.891 155.915C281.987 156.767 283.015 157.578 283.962 158.314L264.676 172.772C264.608 172.812 264.547 172.853 264.486 172.894C263.661 172.083 262.599 171.081 261.239 169.895L250.497 159.943C251.83 159.548 253.203 159.091 254.623 158.559C260.624 156.303 266.428 152.943 271.772 148.805C274.742 151.102 277.962 153.617 280.891 155.915ZM208.759 22.3198C210.173 22.1903 211.465 21.4746 212.331 20.3431C217.871 13.1041 227.179 10.2071 237.056 10.2071C243.523 10.2071 250.22 11.4477 256.261 13.5199C271.522 18.7549 289.347 31.9378 289.347 51.8622V73.3066H284.219C275.973 73.3066 270.825 68.4465 264.311 62.2844C256.47 54.875 247.588 46.4772 231.725 46.4772H214.177C200.289 46.4772 197.996 57.7447 196.474 65.2087C194.871 73.0953 193.687 76.5035 188.559 77.2328V60.3009C188.559 60.0418 188.559 59.701 188.553 59.2852C188.302 43.2599 191.604 23.8399 208.759 22.3198ZM189.419 106.925C188.85 104.471 188.559 102.038 188.559 99.6997V87.512C202.528 86.3191 204.856 74.9425 206.418 67.2672C208.13 58.8422 209.117 56.7086 214.177 56.7086H231.725C243.577 56.7086 250.274 63.0411 257.37 69.7484C264.541 76.5307 271.955 83.538 284.219 83.538H289.347V99.6997C289.347 101.963 289.056 104.41 288.488 106.952C284.544 124.375 268.457 142.439 251.079 148.976C246.479 150.7 242.623 151.504 238.943 151.504C235.27 151.504 231.421 150.7 226.834 148.982C209.428 142.439 193.349 124.375 189.419 106.925ZM198.564 155.424C201.135 153.413 203.942 151.211 206.587 149.166C211.803 153.14 217.451 156.365 223.289 158.559C224.953 159.186 226.55 159.705 228.106 160.141L217.56 169.895C216.207 171.081 215.145 172.083 214.326 172.887C214.265 172.847 214.204 172.812 214.143 172.772L194.851 158.328C195.98 157.441 197.232 156.467 198.564 155.424ZM55.6532 180.747V143.073C55.6532 142.82 55.6465 142.479 55.6397 142.057C55.3894 126.038 58.6906 106.625 75.8459 105.105C77.2597 104.976 78.5585 104.26 79.4244 103.128C88.6447 91.0633 108.337 91.0497 123.767 96.3869C139.008 101.649 156.765 114.825 156.671 134.62L156.515 166.194L156.468 176.452L156.447 180.42C143.73 193.371 122.685 200.269 99.6576 198.913C80.4391 197.788 63.7844 190.876 55.6532 180.747ZM58.8732 197.058C69.3112 203.889 83.3547 208.203 99.0691 209.123C101.153 209.246 103.216 209.308 105.272 209.308C123.625 209.308 140.665 204.488 153.714 195.791C149.973 205.606 142.674 215.449 133.569 222.77H78.4976C69.7982 215.776 62.7494 206.465 58.8732 197.058ZM60.8959 246.573L69.487 234.324C69.8185 233.847 70.0959 233.39 70.3259 232.995H76.732H76.7388H135.328H135.335H143.554C143.73 233.322 143.912 233.649 144.115 233.99L151.631 246.573H60.8959ZM152.821 228.741C152.686 228.509 152.558 228.278 152.436 228.046C151.793 226.846 150.488 224.44 147.904 223.343C156.616 214.045 163.036 202.764 165.471 191.994C166.202 188.722 166.581 185.539 166.581 182.54C166.581 182.526 166.588 182.512 166.588 182.499L166.642 171.729C172.473 168.177 178.96 165.451 185.292 163.91L208.251 181.094C208.36 181.176 208.468 181.251 208.583 181.326C209.415 181.844 209.936 182.26 210.403 182.621C212.06 183.93 213.528 184.414 214.806 184.414C217.309 184.414 219.088 182.58 220.123 181.51C220.563 181.054 221.131 180.474 221.869 179.758L223.573 186.479L210.159 231.577C209.53 233.219 209.631 234.842 210.463 236.389L217.032 248.938H176.498C171.729 246.668 166.743 244.882 161.744 243.696L152.821 228.741ZM331.288 338.744H212.087V296.81C212.087 283.709 206.053 271.316 194.641 260.976C193.964 260.362 193.261 259.763 192.557 259.17H225.447C225.454 259.17 225.454 259.17 225.461 259.17C225.468 259.17 225.468 259.17 225.474 259.17H238.929C238.936 259.17 238.943 259.17 238.943 259.17H252.438H252.452H333.574C333.953 259.17 334.318 259.176 334.67 259.183C334.731 259.183 334.792 259.183 334.853 259.183V336.134C334.853 337.49 334.42 338.744 331.288 338.744Z"/></g><defs><clipPath id="clip0"><rect width="345" height="349" fill="#fff"/></clipPath></defs></svg>