<svg xmlns="http://www.w3.org/2000/svg" width="332" height="285" fill="none" viewBox="0 0 332 285"><g clip-path="url(#clip0)" opacity=".2"><path fill="#245675" d="M318.059 242.71H308.319C309.571 240.263 310.277 237.498 310.277 234.57L310.271 65.3984C310.271 55.534 302.269 47.5045 292.439 47.5045H266.184V41.5442C266.184 36.8463 262.371 33.0203 257.689 33.0203H249.642V8.52849C249.642 5.77609 248.306 3.17986 246.076 1.58568C243.838 -0.00850037 240.959 -0.424939 238.366 0.473007L223.05 5.7891C220.514 6.66753 219.165 9.44595 220.041 11.9966C220.916 14.5408 223.685 15.8942 226.227 15.0158L239.915 10.2658V127.636L170.863 151.595V34.224L206.618 21.8155C209.16 20.937 210.502 18.1586 209.627 15.6079C208.751 13.0638 205.983 11.7103 203.441 12.5888L166 25.5829L93.6344 0.473007C91.0406 -0.424939 88.1616 -0.00850037 85.9309 1.58568C83.7003 3.17986 82.3645 5.77609 82.3645 8.52849V33.0138H74.3109C69.6292 33.0138 65.8164 36.8398 65.8164 41.5377V47.5045H39.5547C29.7244 47.5045 21.7227 55.534 21.7227 65.3984V82.7521C21.7227 85.446 23.9014 87.6323 26.5859 87.6323C29.2705 87.6323 31.4492 85.446 31.4492 82.7521V65.3984C31.4492 60.9151 35.087 57.2648 39.5547 57.2648H65.8164V67.0251H46.0391C44.7487 67.0251 43.5102 67.5391 42.6023 68.4566C41.688 69.374 41.1758 70.6103 41.1758 71.9052L41.1823 228.063C41.1823 230.757 43.361 232.943 46.0455 232.943H285.961C287.251 232.943 288.49 232.429 289.398 231.512C290.312 230.594 290.824 229.358 290.824 228.063L290.818 71.9052C290.818 69.2114 288.639 67.0251 285.954 67.0251H266.184V57.2648H292.439C296.907 57.2648 300.544 60.9151 300.544 65.3984L300.551 234.57C300.551 239.053 296.913 242.703 292.445 242.703L39.5612 242.71C35.0934 242.71 31.4557 239.06 31.4557 234.576L31.4492 103.639C31.4492 100.945 29.2705 98.759 26.5859 98.759C23.9014 98.759 21.7227 100.945 21.7227 103.639L21.7291 234.576C21.7291 237.505 22.4359 240.27 23.6874 242.71H13.9414C6.25742 242.71 0 248.983 0 256.7V271.015C0 278.732 6.25742 285.005 13.9414 285.005H207.292C209.977 285.005 212.156 282.818 212.156 280.124C212.156 277.431 209.977 275.244 207.292 275.244H13.9414C11.62 275.244 9.72656 273.344 9.72656 271.015V256.7C9.72656 254.37 11.62 252.47 13.9414 252.47H133.254V255.899C133.254 262.621 138.701 268.087 145.399 268.087H186.601C193.299 268.087 198.746 262.621 198.746 255.899V252.47H318.059C320.38 252.47 322.273 254.37 322.273 256.7V271.015C322.273 273.344 320.38 275.244 318.059 275.244H228.529C225.844 275.244 223.666 277.431 223.666 280.124C223.666 282.818 225.844 285.005 228.529 285.005H318.059C325.749 285.005 332 278.732 332 271.015V256.7C332 248.983 325.749 242.71 318.059 242.71ZM243.923 136.57C247.34 135.386 249.642 132.146 249.642 128.515V42.7805H256.457V153.566H194.946L243.923 136.57ZM92.0846 10.2593L161.137 34.224V151.595L92.0846 127.636V10.2593ZM75.543 42.7805H82.358V128.515C82.358 132.146 84.6535 135.386 88.0773 136.57L137.054 153.566H75.543V42.7805ZM281.091 76.7853L281.098 223.183L50.9088 223.189L50.9023 76.7918H65.8164V154.802C65.8164 159.5 69.6292 163.326 74.3109 163.326H257.689C262.371 163.326 266.184 159.5 266.184 154.802V76.7853H281.091ZM189.02 255.899C189.02 257.24 187.937 258.326 186.601 258.326H145.399C144.063 258.326 142.98 257.24 142.98 255.899V252.47H189.02V255.899Z"/><path fill="#245675" d="M229.878 177.24H102.122C99.4379 177.24 97.2592 179.426 97.2592 182.12C97.2592 184.814 99.4379 187 102.122 187H229.878C232.562 187 234.741 184.814 234.741 182.12C234.741 179.426 232.562 177.24 229.878 177.24Z"/><path fill="#245675" d="M184.973 197.938H102.122C99.4379 197.938 97.2592 200.124 97.2592 202.818C97.2592 205.512 99.4379 207.698 102.122 207.698H184.973C187.658 207.698 189.837 205.512 189.837 202.818C189.837 200.124 187.658 197.938 184.973 197.938Z"/></g><defs><clipPath id="clip0"><rect width="332" height="285" fill="#fff"/></clipPath></defs></svg>