<svg width="345" height="349" fill="none" xmlns="http://www.w3.org/2000/svg"><g opacity=".2" clip-path="url(#clip0)" fill="#245675"><path d="M211.647 98.457a5.23 5.23 0 013.741-1.561 5.23 5.23 0 013.741 1.56 5.044 5.044 0 003.585 1.5 5.016 5.016 0 003.586-1.5 5.142 5.142 0 000-7.232 15.277 15.277 0 00-10.918-4.553 15.277 15.277 0 00-10.919 4.553 5.142 5.142 0 000 7.233 5.055 5.055 0 007.184 0zm48.043 0a5.23 5.23 0 013.741-1.561 5.23 5.23 0 013.741 1.56 5.044 5.044 0 003.585 1.5 5.016 5.016 0 003.586-1.5 5.142 5.142 0 000-7.232 15.277 15.277 0 00-10.919-4.553 15.277 15.277 0 00-10.918 4.553 5.142 5.142 0 000 7.233 5.055 5.055 0 007.184 0zm-31.205 32.779a15.273 15.273 0 0010.918 4.554c4.126 0 8.002-1.616 10.918-4.554a5.141 5.141 0 000-7.232 5.048 5.048 0 00-7.177 0 5.228 5.228 0 01-3.741 1.561 5.228 5.228 0 01-3.741-1.561 5.048 5.048 0 00-7.177 0 5.141 5.141 0 000 7.232z"/><path d="M345 207.004c0-7.342-1.921-14.506-5.703-21.295-1.373-2.461-4.464-3.34-6.906-1.956-2.443 1.384-3.315 4.499-1.942 6.959 2.922 5.242 4.404 10.723 4.404 16.292v41.934h-28.155v-24.9c0-2.822-2.273-5.113-5.073-5.113-2.801 0-5.074 2.291-5.074 5.113v24.9h-35.69l6.602-12.576c.013-.034.034-.068.047-.102.731-1.473.826-3 .278-4.567l-13.469-45.214 1.881-7.416a63.448 63.448 0 012.489 2.447c1.042 1.07 2.821 2.897 5.324 2.897 1.285 0 2.753-.477 4.41-1.786.46-.361.988-.777 1.813-1.295.115-.075.23-.15.339-.232l22.702-17.013c7.516 1.922 15.079 5.405 21.573 9.979.886.62 1.901.92 2.902.92a5.038 5.038 0 004.16-2.188c1.61-2.311 1.049-5.501-1.251-7.116-7.685-5.413-16.696-9.502-25.625-11.69-1.448-1.084-4.465-3.443-7.922-6.149a2042.399 2042.399 0 00-7.576-5.91c9.24-9.359 16.201-21.021 18.846-32.712.738-3.292 1.11-6.496 1.11-9.515V51.862c0-20.844-15.688-39.692-39.959-48.021C249.34.344 238.544-.822 229.141.56c-9.823 1.44-17.879 5.522-23.447 11.841-11.344 1.78-27.863 10.613-27.288 47.04.006.348.006.634.006.852v39.399c0 3.122.379 6.332 1.117 9.522 2.672 11.854 9.788 23.681 19.238 33.108-2.158 1.677-4.37 3.408-6.426 5.017-3.301 2.583-6.44 5.044-8.131 6.318-5.94 1.316-11.893 3.477-17.514 6.34l.122-25.337c.094-20.749-15.505-39.57-39.757-47.953-18.163-6.285-41.596-5.938-54.28 8.466-11.344 1.785-27.857 10.62-27.288 47.04.006.347.013.64.013.852v39.399c0 3.121.372 6.339 1.11 9.529 2.496 11.022 9.159 22.569 18.163 31.982-1.644 1.118-2.57 2.734-3.085 3.62-.176.307-.338.593-.487.804l-10.675 15.242c-9.734 2.276-19.536 6.843-27.79 12.985-2.259 1.677-2.732 4.881-1.068 7.15a5.058 5.058 0 004.086 2.079 5.018 5.018 0 003.003-1.002c6.535-4.853 14.16-8.568 21.823-10.681 1.692 1.595 4.086 2.624 6.42 2.624h98.075c2.347 0 4.728-1.015 6.406-2.624a65.718 65.718 0 0111.054 4.131c.365.245.764.443 1.183.586 15.539 7.805 28.209 21.69 28.209 37.913v41.934h-28.148v-24.9c0-2.822-2.273-5.112-5.073-5.112-2.801 0-5.074 2.29-5.074 5.112v24.9H45.31v-24.9c0-2.822-2.273-5.112-5.074-5.112-2.8 0-5.073 2.29-5.073 5.112v24.9H11.405c-.44 0-.859.007-1.258.014v-41.948c0-5.508 1.44-10.927 4.282-16.1 1.36-2.468.474-5.583-1.982-6.946-2.449-1.37-5.533-.477-6.893 1.997C1.867 282.468 0 289.55 0 296.81v42.48c0 2.12.264 5.187 2.516 7.423 2.064 2.045 4.587 2.283 6.785 2.283.345 0 .69-.007 1.015-.013.345-.007.71-.014 1.09-.014H200.77c.345 0 .676.007.987.014.332.006.67.013 1.015.013.352 0 .71-.007 1.082-.027h127.441c9.416 0 13.712-6.653 13.712-12.842V254.05c0-.559-.095-1.097-.257-1.601.209-1.071.257-2.1.257-2.966L345 207.004zm-87.359 26.195l-8.253 15.739h-20.876l-8.246-15.739 12.345-41.498h12.67l12.36 41.498zm-27.283-61.266l9.052-8.37 8.3 7.682-2.598 10.231H232.78l-2.422-9.543zm50.533-16.018c1.096.852 2.124 1.663 3.071 2.399l-19.286 14.458c-.068.04-.129.081-.19.122a73.53 73.53 0 00-3.247-2.999l-10.742-9.952a61.75 61.75 0 004.126-1.384c6.001-2.256 11.805-5.616 17.149-9.754 2.97 2.297 6.19 4.812 9.119 7.11zM208.759 22.32a5.079 5.079 0 003.572-1.977c5.54-7.239 14.848-10.136 24.725-10.136 6.467 0 13.164 1.24 19.205 3.313 15.261 5.235 33.086 18.418 33.086 38.342v21.445h-5.128c-8.246 0-13.394-4.86-19.908-11.023-7.841-7.409-16.723-15.807-32.586-15.807h-17.548c-13.888 0-16.181 11.268-17.703 18.732-1.603 7.886-2.787 11.294-7.915 12.024V60.3c0-.26 0-.6-.006-1.016-.251-16.025 3.051-35.445 20.206-36.965zm-19.34 84.605c-.569-2.454-.86-4.887-.86-7.225V87.512c13.969-1.193 16.297-12.57 17.859-20.245 1.712-8.425 2.699-10.558 7.759-10.558h17.548c11.852 0 18.549 6.332 25.645 13.04 7.171 6.782 14.585 13.789 26.849 13.789h5.128V99.7c0 2.263-.291 4.71-.859 7.252-3.944 17.423-20.031 35.487-37.409 42.024-4.6 1.724-8.456 2.528-12.136 2.528-3.673 0-7.522-.804-12.109-2.522-17.406-6.543-33.485-24.607-37.415-42.057zm9.145 48.499c2.571-2.011 5.378-4.213 8.023-6.258 5.216 3.974 10.864 7.199 16.702 9.393a57.983 57.983 0 004.817 1.582l-10.546 9.754a77.722 77.722 0 00-3.234 2.992c-.061-.04-.122-.075-.183-.115l-19.292-14.444c1.129-.887 2.381-1.861 3.713-2.904zm-142.91 25.323v-37.674c0-.253-.008-.594-.014-1.016-.25-16.019 3.05-35.432 20.206-36.952a5.09 5.09 0 003.578-1.977c9.22-12.065 28.913-12.078 44.343-6.741 15.241 5.262 32.998 18.438 32.904 38.233l-.156 31.574-.047 10.258-.021 3.968c-12.717 12.951-33.762 19.849-56.79 18.493-19.218-1.125-35.873-8.037-44.004-18.166zm3.22 16.311c10.437 6.831 24.48 11.145 40.195 12.065 2.084.123 4.147.185 6.203.185 18.353 0 35.393-4.82 48.442-13.517-3.741 9.815-11.04 19.658-20.145 26.979H78.498c-8.7-6.994-15.749-16.305-19.625-25.712zm2.022 49.515l8.591-12.249c.332-.477.609-.934.839-1.329h73.228c.176.327.358.654.561.995l7.516 12.583H60.896zm91.925-17.832a18.505 18.505 0 01-.385-.695c-.643-1.2-1.948-3.606-4.532-4.703 8.712-9.298 15.132-20.579 17.567-31.349.731-3.272 1.11-6.455 1.11-9.454 0-.014.007-.028.007-.041l.054-10.77c5.831-3.552 12.318-6.278 18.65-7.819l22.959 17.184c.109.082.217.157.332.232.832.518 1.353.934 1.82 1.295 1.657 1.309 3.125 1.793 4.403 1.793 2.503 0 4.282-1.834 5.317-2.904a72.978 72.978 0 011.746-1.752l1.704 6.721-13.414 45.098c-.629 1.642-.528 3.265.304 4.812l6.569 12.549h-40.534c-4.769-2.27-9.755-4.056-14.754-5.242l-8.923-14.955zm178.467 110.003H212.087V296.81c0-13.101-6.034-25.494-17.446-35.834a75.557 75.557 0 00-2.084-1.806h141.017c.379 0 .744.006 1.096.013h.183v76.951c0 1.356-.433 2.61-3.565 2.61z"/></g><defs><clipPath id="clip0"><path fill="#fff" d="M0 0h345v349H0z"/></clipPath></defs></svg>