<svg xmlns="http://www.w3.org/2000/svg" width="332" height="285" fill="none"><g clip-path="url(#clip0)" opacity=".2" fill="#245675"><path d="M318.059 242.71h-9.74a17.815 17.815 0 001.958-8.14l-.006-169.172c0-9.864-8.002-17.893-17.832-17.893h-26.255v-5.96c0-4.699-3.813-8.525-8.495-8.525h-8.047V8.528a8.552 8.552 0 00-3.566-6.942 8.507 8.507 0 00-7.71-1.113L223.05 5.789c-2.536.879-3.885 3.657-3.009 6.208a4.863 4.863 0 006.186 3.019l13.688-4.75v117.37l-69.052 23.959V34.224l35.755-12.408c2.542-.879 3.884-3.657 3.009-6.208a4.863 4.863 0 00-6.186-3.02L166 25.584 93.634.473a8.49 8.49 0 00-7.703 1.113 8.551 8.551 0 00-3.566 6.942v24.486H74.31c-4.682 0-8.495 3.826-8.495 8.524v5.967h-26.26c-9.83 0-17.832 8.029-17.832 17.893v17.354c0 2.694 2.178 4.88 4.863 4.88 2.684 0 4.863-2.186 4.863-4.88V65.398c0-4.483 3.638-8.133 8.106-8.133h26.261v9.76H46.04c-1.29 0-2.529.514-3.437 1.432a4.879 4.879 0 00-1.426 3.448l.006 156.158c0 2.694 2.179 4.88 4.863 4.88h239.916a4.881 4.881 0 004.863-4.88l-.006-156.158c0-2.694-2.179-4.88-4.864-4.88h-19.77v-9.76h26.255c4.468 0 8.105 3.65 8.105 8.133l.007 169.172c0 4.483-3.638 8.133-8.106 8.133l-252.884.007c-4.468 0-8.105-3.65-8.105-8.134l-.007-130.937c0-2.694-2.179-4.88-4.863-4.88-2.685 0-4.863 2.186-4.863 4.88l.006 130.937c0 2.929.707 5.694 1.958 8.134h-9.746C6.257 242.71 0 248.983 0 256.7v14.315c0 7.717 6.257 13.99 13.941 13.99h193.351c2.685 0 4.864-2.187 4.864-4.881 0-2.693-2.179-4.88-4.864-4.88H13.942c-2.322 0-4.215-1.9-4.215-4.229V256.7c0-2.33 1.893-4.23 4.214-4.23h119.313v3.429c0 6.722 5.447 12.188 12.145 12.188h41.202c6.698 0 12.145-5.466 12.145-12.188v-3.429h119.313c2.321 0 4.214 1.9 4.214 4.23v14.315c0 2.329-1.893 4.229-4.214 4.229h-89.53c-2.685 0-4.863 2.187-4.863 4.88 0 2.694 2.178 4.881 4.863 4.881h89.53c7.69 0 13.941-6.273 13.941-13.99V256.7c0-7.717-6.251-13.99-13.941-13.99zm-74.136-106.14a8.528 8.528 0 005.719-8.055V42.781h6.815v110.785h-61.511l48.977-16.996zM92.085 10.26l69.052 23.964v117.371l-69.052-23.959V10.259zM75.543 42.78h6.815v85.735a8.52 8.52 0 005.72 8.055l48.976 16.996H75.543V42.781zm205.548 34.005l.007 146.398-230.19.006-.006-146.397h14.914v78.01c0 4.698 3.813 8.524 8.495 8.524h183.378c4.682 0 8.495-3.826 8.495-8.524V76.785h14.907zM189.02 255.9a2.423 2.423 0 01-2.419 2.427h-41.202a2.423 2.423 0 01-2.419-2.427v-3.429h46.04v3.429z"/><path d="M229.878 177.24H102.122c-2.684 0-4.863 2.186-4.863 4.88s2.179 4.88 4.863 4.88h127.756c2.684 0 4.863-2.186 4.863-4.88s-2.179-4.88-4.863-4.88zm-44.905 20.698h-82.851c-2.684 0-4.863 2.186-4.863 4.88s2.179 4.88 4.863 4.88h82.851c2.685 0 4.864-2.186 4.864-4.88s-2.179-4.88-4.864-4.88z"/></g><defs><clipPath id="clip0"><path fill="#fff" d="M0 0h332v285H0z"/></clipPath></defs></svg>