<svg width="135" height="125" fill="none" xmlns="http://www.w3.org/2000/svg"><g clip-path="url(#clip0)"><path d="M30.74 55.66h-3.08v40.78h3.08V55.66z" fill="#ACAFB0"/><path d="M29.57 5.23h-1.23v1.31h1.23V5.23zM29.57 7.6h-1.23v1.31h1.23V7.6zM29.57 9.96h-1.23v1.3h1.23v-1.3z" fill="#818586"/><path d="M29.91 2.02h-1.39v2.34h1.39V2.02z" fill="#F7941D"/><path fill-rule="evenodd" clip-rule="evenodd" d="M27.69.03L3.25 0C2.4 0 1.7.7 1.7 1.54v10.92c0 .85.7 1.54 1.55 1.54l24.45.03c.85 0 1.54-.7 1.54-1.54V1.57c0-.85-.7-1.54-1.55-1.54z" fill="#D1D3D2"/><path fill-rule="evenodd" clip-rule="evenodd" d="M26.88 38.58H6.3c-1.26 0-2.29 1.03-2.29 2.29v8.96c0 1.26 1.03 2.29 2.29 2.29h20.59c1.26 0 2.29-1.03 2.29-2.29v-8.96a2.311 2.311 0 00-2.3-2.29z" fill="#FED09E"/><path fill-rule="evenodd" clip-rule="evenodd" d="M7.45 35.73c-.62.17-1.09.84-1.09 1.64 0 .92.63 1.68 1.4 1.68h17.79c.77 0 1.4-.76 1.4-1.68 0-.85-.53-1.57-1.22-1.67-.48-2.24-2.48-3.94-4.86-3.94h-8.54c-2.4 0-4.41 1.71-4.88 3.97z" fill="#FCBB76"/><path d="M31.24 51.98H1.95v6.07h29.29v-6.07z" fill="#BEC0C2"/><path d="M3.08.01H0v96.43h3.08V.01z" fill="#ACAFB0"/><path fill-rule="evenodd" clip-rule="evenodd" d="M41.72 47.02l-.38 19.11c0 5.66 1.51 19.76.84 23.27-.57 2.96-7.96 5.08-8.24 6.42.6.29 3.95.39 5.28.16 1.74-.3 2.7-1.02 4.17-1.09l-.04.83 1.76-.02.28-1.67c.53-3.18-.42-3.1-.4-4.62.05-4.39 1.78-11.98 2.55-16.64l-1.82-7.32 2.84-18.23-6.84-.2z" fill="#ECBB7C"/><path fill-rule="evenodd" clip-rule="evenodd" d="M36.62 93.93c-1.41.75-2.57 1.38-2.68 1.89.6.29 3.95.39 5.27.16 1.74-.3 2.7-1.02 4.17-1.09l-.04.83 1.76-.02.24-1.67c.24-1.11.4-1.8.05-2.86-1.27 1.62-6.39 3.42-8.77 2.76zM40.22 65.99l1.06 24.66 4.25-.23c-.08-4.38 1.11-13.04 1.74-17.7l-2.03-7.32-5.02.59z" fill="#42576D"/><path fill-rule="evenodd" clip-rule="evenodd" d="M44.43 46.88l1.69 19.22c.3 5.66 2.58 19.76 2.09 23.27-.41 2.96-7.68 5.08-7.89 6.42.62.29 3.97.39 5.29.16 1.72-.3 2.65-1.02 4.11-1.09l.01.83 1.97-.02.18-1.67c.36-3.18-.59-3.11-.65-4.62-.18-4.39 1.13-11.98 1.66-16.64l-2.21-7.32 1.59-18.33-7.84-.21z" fill="#FFD6A1"/><path fill-rule="evenodd" clip-rule="evenodd" d="M43.88 46.65l1.8 19.34 1.64 24.66 4.24-.23c-.18-4.38.8-13.04 1.32-17.7l-2.21-7.32 1.59-18.33-8.38-.42zM42.9 93.9c-1.37.75-2.49 1.38-2.57 1.89.62.29 3.97.39 5.29.16 1.72-.3 2.65-1.02 4.11-1.09l.01.83 1.97-.02.15-1.67c.18-1.11.3-1.8-.1-2.86-1.22 1.62-6.45 3.41-8.86 2.76z" fill="#245675"/><path fill-rule="evenodd" clip-rule="evenodd" d="M46.32 22.02c.21.73.24 1.55.18 2.4-.09 1.09-.33 2.22-.59 3.28l-.4 5.12 5.46-7.04-.84-.84.03-3.55.79-2.66-3.47 2.28-1.16 1.01z" fill="#ECBB7C"/><path fill-rule="evenodd" clip-rule="evenodd" d="M45.93 22.47c-.61.18-1.1.24-1.31-.07-.27-.39-.19-.92-.2-1.08-.01-.09-.12-.15-.27-.34-.31-.44.25-.57.58-.71-.59.01-.88.05-.92-.49l.19-.15c.08-.26.02-.52-.02-.63-.09-.3-.72-.42-.61-.97.41-.32.88-.88 1.07-1.51.2-.67-.25-1.14.18-2.42a3.503 3.503 0 012.24-2.23c1.9-.64 4.95-.52 6.04.82 3.01 3.7-2.37 8.13-2.46 8.18-1.18.79-2.89 1.12-4.51 1.6z" fill="#FFD6A1"/><path fill-rule="evenodd" clip-rule="evenodd" d="M52.17 23.88c2.85 5.38.69 10.59-.95 15.93-.94 3.06.09 4.76.94 7.18 1.55 4.4 1.44 3.94 1.01 8.64-.36 3.85-.77 7.65-1.28 11.58-4.89.17-7.69.34-12.52-.45 1.11-9.77 2.25-19.52 3.24-29.3-1.95-3.23-.37-4.6 1.07-6.92.74-1.19 1.57-2.29 2.63-3.2l5.86-3.46z" fill="#E7ECF7"/><path fill-rule="evenodd" clip-rule="evenodd" d="M42.77 67.2c-1.05-.09-2.16-.23-3.4-.43 1.11-9.77 2.25-19.52 3.24-29.3-1.95-3.23-.37-4.6 1.06-6.92.74-1.19 1.57-2.29 2.63-3.2l1.49-.88c-2.54 14.68-3.84 25.88-5.02 40.73z" fill="#D5DCE6"/><path fill-rule="evenodd" clip-rule="evenodd" d="M47.17 27.18c-2.49 2.38-5.13 4.52-7.42 7.1-.01.71.47 4.65 2.31 3.21 1.49-1.17 7.43-5.33 8.28-6.3 1.4-1.62 1.28-3.42.37-4.36-.77-.8-2.1-1.04-3.54.35z" fill="#E7ECF7"/><path fill-rule="evenodd" clip-rule="evenodd" d="M39.21 32.39l-4.98-5.1-1.37 1.48 3.73 4.97 2.62-1.35z" fill="#FFD6A1"/><path fill-rule="evenodd" clip-rule="evenodd" d="M42.5 34.73l-6.85-6.43c-.57.76-.93 1.39-1.61 2.4l4.1 5.44c.9 1.2 2.46 2.16 3.43 1.63 1.14-.63 1.78-1.99.93-3.04z" fill="#E7ECF7"/><path fill-rule="evenodd" clip-rule="evenodd" d="M27.02 32.18c-.01.02-.02.04-.02.06 0 .33 1.52.59 3.4.59s3.4-.26 3.4-.59c0-.02-.01-.04-.01-.05-.68-2.41-2.1-4.57-2.39-6.86-.07-.59-.02-1.28 0-1.93-.03-.21-1.99-.21-1.99 0 .02.65.07 1.34 0 1.93-.29 2.28-1.71 4.44-2.39 6.85z" fill="#D5D7D6"/><path fill-rule="evenodd" clip-rule="evenodd" d="M27.02 32.18c-.01.02-.02.04-.02.06 0 .33 1.52.59 3.4.59s3.4-.26 3.4-.59c0-.02-.01-.04-.01-.05-.43-1.52-1.16-2.94-1.7-4.36l-3.37-.01c-.54 1.41-1.27 2.84-1.7 4.36z" fill="#9365AA"/><path fill-rule="evenodd" clip-rule="evenodd" d="M30.41 28.12c-.93 0-1.68-.13-1.68-.29 0-.16.76-.29 1.68-.29.93 0 1.68.13 1.68.29 0 .16-.75.29-1.68.29z" fill="#B488BD"/><path fill-rule="evenodd" clip-rule="evenodd" d="M30.41 23.56c-.55 0-1-.08-1-.18 0-.1.45-.17 1-.17s1 .08 1 .17c0 .11-.45.18-1 .18z" fill="#fff"/><path fill-rule="evenodd" clip-rule="evenodd" d="M30.41 23.5c-.46 0-.83-.05-.83-.11s.37-.11.83-.11c.46 0 .83.05.83.11s-.37.11-.83.11z" fill="#C4C6C5"/><path fill-rule="evenodd" clip-rule="evenodd" d="M35.12 27.92c-.51-.47-1.22-1.01-1.53-1.43l-1.13-1.54c-.31-.42-.3-.48-.81-.54l-2.32-.19c-.27.05-.45.35-.19.65-.38.11-.42.5-.21.75-.27.08-.37.51-.2.64l.08.07c-.3.05-.41.49.06.62.73.21 1.24.3 1.98.39.8 1.16.54 1.05 1.84 1.36l1.24 1.78 1.19-2.56z" fill="#939598"/><path fill-rule="evenodd" clip-rule="evenodd" d="M45.31 12.83c.66-1.28 5.73-2.96 8.02.43 2.14 3.7 1.71 8.95.28 11.42-.68 1.19-5.79 1.74-7.51 2.06.69-.52 1.28-.95 1.77-1.61-.16.11-.32.22-.49.31 1.43-2.68 2.28-3.71 1.39-6.17-1.48-1.55-6.94-4.78-3.46-6.44z" fill="#5C210A"/><path d="M104.52 87.71H70.08v22.22h34.44V87.71z" fill="#BEC0C2"/><path d="M71.05 87.02h-3.88v37.33h3.88V87.02z" fill="#BEC0C2"/><path d="M69.11 87.02h-1.94v37.33h1.94V87.02z" fill="#ACAFB0"/><path d="M107.41 87.02h-3.88v37.33h3.88V87.02z" fill="#BEC0C2"/><path d="M105.47 87.02h-1.94v37.33h1.94V87.02z" fill="#ACAFB0"/><path fill-rule="evenodd" clip-rule="evenodd" d="M111.44 75.88H63.26l-4.54 9.21h57.26l-4.54-9.21z" fill="#BEC0C2"/><path d="M115.86 84.97H58.72v4.57h57.14v-4.57z" fill="#D1D3D2"/><path fill-rule="evenodd" clip-rule="evenodd" d="M112.07 74.22c-2-1.66-2.37-1.25-4.98-1.52l-9.29-.94-.94 1.72 3.07 1.02c3.34 1.49 5.52 2.42 8.75 2.99 2.65.48 2.56-.99 3.39-3.27z" fill="#ECBB7C"/><path fill-rule="evenodd" clip-rule="evenodd" d="M100.09 71.8l-2.57-.2c-1.28-.75-2.03-1.21-3.56-1.4-.84.09-1.99.65-2.58.92-1.16.53-1.35.42-2.61 1.06 1.37.72 2.73-.02 3.51-.14.77.03.75.08 1.97.24l.69.61c1.46 1.3 1.3 1.2 3.23.96l1.77.86.15-2.91z" fill="#939598"/><path fill-rule="evenodd" clip-rule="evenodd" d="M112.46 74.22c2.41-5.73-1.78-5.24-3.14-5.32-.14-.01-.91 3.9-1.06 3.89-.34-.02-.72-.05-1.17-.09l-6.33-.77-.45 3.05c3.08 1.36 5.3 1.97 8.37 2.51 2.65.48 2.95-.99 3.78-3.27z" fill="#D5DCE6"/><path fill-rule="evenodd" clip-rule="evenodd" d="M109.08 60.38l-1.44 5.07-.45.03c-2.1-2.47-2.22-2.92-3.92-5.76l3.3-3.84c.52 1.07.98 1.46 1.58 2.59.31.58.56 1.04.93 1.91z" fill="#ECBB7C"/><path fill-rule="evenodd" clip-rule="evenodd" d="M100.53 61.97c.19.2.25.34.15.63.08.17.29.28.5.22.66-.53.7.1.65.14-.47.4-.28.54-.08.64.16-.06.27-.05.33.01.2.19.09.9.66 1.07.69.21 2.11-2.15 2.77-3.25.55-.91-.07-1.29-.71-2.1.49-.23.76-.6.32-1.32.06-1.22-.18-2.04-.41-3.23 0 0-3.93-2.85-4.03-2.81-.11.04-2.82 2.32-2.82 2.32.01.8-.23 1.7-.18 2.6.07 1.25.41 1.82.57 2.33.14.44.31.58.51.72.09.06.23.12.28.21.47.73.17 1.81.34 1.99.14.15.66.22 1.15-.17z" fill="#FFD6A1"/><path fill-rule="evenodd" clip-rule="evenodd" d="M102.07 57.92c.25.3.48.57.66.75.18.22.27.34.42.36.12-.53.16-.9.11-1.31.1-.67.33-1.48.83-1.62.54-.15.91.78.98 1.57.03.42.25.74.47.89.48.32.75-.18 1.48-.05.6.11 1.19.54 1.52.67-.52-1.32-.7-1.78-.77-2.78-.09-1.37-1.2-3.51-2.56-4.17l.12.02c-1.07-.5-1.41-.73-2.62-.6-1.17-.53-2.47-.22-3.51.49.46-.19.81-.3 1.2-.33-4.04 1.68-3.09 4.99-4.28 5.38 1.63.84 2.52.09 3.62-.98 1.12.3 1.9 1.17 2.22 2.09l.06-.43.05.05z" fill="#5C210A"/><path fill-rule="evenodd" clip-rule="evenodd" d="M120.21 122.65c1.86 1.13 4.8.19 6.67.01.63.41 1.65.13 2.03.05.85-.17.68-2.25.43-3.5-.2-1.01-.01-1.79.01-2.89l-3.54-.9c.16 1.81.34 2.45-.12 3.22-.95 1.59-3.02 1.71-4.4 1.77-2.17.09-2.31 1.49-1.08 2.24z" fill="#03050C"/><path fill-rule="evenodd" clip-rule="evenodd" d="M132.21 85.83c.66-2.64.81-3.65.5-5.38-.39-2.16-1.11-3.48-2.09-5.37l-8.7 1.87.15 5.79 2.3 15.92.72 20.06 4.91.51 1.05-13.6-1.4-7.09c.34-3.62 1.83-9.77 2.56-12.71z" fill="#42576D"/><path fill-rule="evenodd" clip-rule="evenodd" d="M123.26 122.87c1.86 1.08 4.8.07 6.66-.14.63.4 1.65.09 2.03 0 .85-.19.68-2.26.43-3.51-.2-1-.01-1.79.01-2.89l-3.54-.82c.16 1.81.34 2.44-.12 3.23-.95 1.62-3.02 1.78-4.4 1.87-2.17.13-2.31 1.54-1.07 2.26z" fill="#15151A"/><path fill-rule="evenodd" clip-rule="evenodd" d="M133.68 85.83c.22-1.01.37-1.79.45-2.45.24-1.12.29-2.3-.02-3.56-.64-2.66-1.76-4.31-3.62-6.4l-9.5 2.53 2.65 4.02.15.56.36 2.76.79 2.36 1.22 12.83.08.63 1.81 20.22 2.6.44 2.29.04.34-14.18-.83-7.28c.18-3.62.6-9.58 1.23-12.52z" fill="#245675"/><path fill-rule="evenodd" clip-rule="evenodd" d="M108.62 59.33c4.88 1.51 7.03-.3 13.31 3.52 3.77 2.29 5.52 5.21 8.67 10.12.98 1.53 1.05 4.1 1.99 5.67l-9.11 1.33c-.42-3.19-9.87-5.85-13.46-7.5-1.89-.87-2.16-3.93-2.92-6.71.43-1.66 1.67-4.54 1.52-6.43z" fill="#0B4D89"/><path fill-rule="evenodd" clip-rule="evenodd" d="M134.35 79.82c-.57-2.35-2.41-5-3.75-7.09-3.15-4.91-4.35-7.47-8.12-9.76-6.28-3.82-8.74-2.28-13.86-3.64.15 1.9-1.1 4.77-1.52 6.42.77 2.78 1.03 5.83 2.93 6.71 3.02 1.39 10.16 3.49 12.62 6.02l3.3 18.02 8.07.11c.13-2.72.79-14.87.33-16.79z" fill="#E7ECF7"/><path fill-rule="evenodd" clip-rule="evenodd" d="M107.37 64.84c-.1.33-.2.63-.27.9.76 2.78 1.03 5.83 2.93 6.71 2.32 1.07 8.09 3 10.7 5.04 1.12.87 2.45 17.46 2.42 19.21l1.61-.18-.76-11.57c-.3-3.77-.89-7.23-2.32-8.88-5.8-6.72-10.5-3.64-14.31-11.23z" fill="#D5DCE6"/><path fill-rule="evenodd" clip-rule="evenodd" d="M108.62 59.33c.94.29 1.73.45 2.44.54-1.52 4.6-3.08 8.12-1.04 12.58-1.49-.69-2.05-2.57-2.59-4.69-.15-.58-.8-2.77-.97-3.36.76-1.04 2.31-3.18 2.16-5.07z" fill="#D1D3D4"/><path fill-rule="evenodd" clip-rule="evenodd" d="M92.42 72.35h-6.1c-.12 0-.21.1-.21.21v.21c0 .12.09.21.21.21h6.1c.12 0 .21-.1.21-.21v-.21c0-.11-.1-.21-.21-.21z" fill="#245675"/><path d="M89.86 74.47H86.3v4.89h3.56v-4.89z" fill="#245675"/><path d="M91.21 79.18h-6.28v1.28h6.28v-1.28z" fill="#245675"/><path fill-rule="evenodd" clip-rule="evenodd" d="M87.26 68.15a.68.68 0 00-.93.23l-.84 1.39c-.19.32-.09.73.23.93.32.19.74.09.93-.23l.84-1.4c.19-.31.09-.72-.23-.92zM90.59 68.8c-.37 0-.68.3-.68.68v1.63a.67.67 0 001.34 0v-1.63a.658.658 0 00-.66-.68zM89.07 68.07a.664.664 0 00-.84.45l-.48 1.55c-.11.36.09.74.45.84.36.11.73-.09.84-.45l.48-1.55a.69.69 0 00-.45-.84z" fill="#F7941D"/><path fill-rule="evenodd" clip-rule="evenodd" d="M91.86 67.49l-5.12-1.32a.52.52 0 00-.63.37l-.5 1.92c-.07.27.1.56.37.63l5.12 1.32c.28.07.56-.1.63-.37l.5-1.92a.505.505 0 00-.37-.63z" fill="#939598"/><path fill-rule="evenodd" clip-rule="evenodd" d="M97.18 63.26l-1.35-2.56a.41.41 0 00-.56-.16l-2.53 1.39c-.2.11-.23.34-.16.56l.83 2.73c.07.21.36.27.56.16l3.05-1.56c.19-.1.26-.36.16-.56z" fill="#E7ECF7"/><path fill-rule="evenodd" clip-rule="evenodd" d="M99.85 61.47l-.58-1.04a.41.41 0 00-.56-.16l-2.54 1.39a.41.41 0 00-.16.56l.58 1.04c.11.2.36.27.56.16l2.54-1.39c.2-.11.27-.36.16-.56z" fill="#E7ECF7"/><path fill-rule="evenodd" clip-rule="evenodd" d="M99.85 61.47l-.58-1.04a.41.41 0 00-.56-.16l-1.17.64c-.29.18.61 1.97 1.01 1.74l1.15-.63c.19-.1.26-.35.15-.55z" fill="#245675"/><path fill-rule="evenodd" clip-rule="evenodd" d="M100.65 61.19l-.71-1.3a.41.41 0 00-.56-.16l-.29.16a.41.41 0 00-.16.56l.71 1.3c.11.2.36.27.56.16l.29-.16a.42.42 0 00.16-.56z" fill="#245675"/><path fill-rule="evenodd" clip-rule="evenodd" d="M92.24 61.45l-5.55 1.63c-.29.09-.48.27-.56.56l-.41 1.45c-.08.3.25.56.56.56h6.77c.31 0 .64-.26.56-.56l-.82-3.08c-.07-.3-.25-.65-.55-.56z" fill="#E7ECF7"/><path fill-rule="evenodd" clip-rule="evenodd" d="M94.96 64.92H80.2a.39.39 0 00-.39.39v3.17c0 .21.17.39.39.39h14.76c.21 0 .39-.17.39-.39v-3.17a.39.39 0 00-.39-.39zM92.87 72.82h-8.46c-.15 0-.28.13-.28.28v2.31c0 .15.13.28.28.28h8.46c.15 0 .28-.13.28-.28V73.1c0-.16-.12-.28-.28-.28z" fill="#E7ECF7"/><path fill-rule="evenodd" clip-rule="evenodd" d="M83.76 80.07V65.31c0-.21-.18-.39-.39-.39H80.2a.39.39 0 00-.39.39v14.76c0 .21.18.39.39.39h3.17c.21 0 .39-.18.39-.39z" fill="#E7ECF7"/><path fill-rule="evenodd" clip-rule="evenodd" d="M108.71 59.15l1.22.52c-.24 1.7-1.25 4.88-1.89 6.45l-1.84-1.82c.76-1.02 2.14-4.01 2.51-5.15z" fill="#E6E7E8"/><path fill-rule="evenodd" clip-rule="evenodd" d="M118.51 71.7c-.45 2.33-1.28 6.63-2.68 9.12-.21.37-4.03 1.8-4.19-2.58.71-4.95.73-6.51.38-11.95-.39-6.14 6.11-4.6 6.8.08.27 1.92-.07 4.08-.31 5.33z" fill="#F2F5F9"/><path fill-rule="evenodd" clip-rule="evenodd" d="M104.41 81.53l-4.24.06-.49-2.58 4.18-.82.55 3.34z" fill="#FFD6A1"/><path fill-rule="evenodd" clip-rule="evenodd" d="M114.58 81.39c-3.99.55-6.58.35-10.86.36-.15-1.36-.42-2.87-.7-3.52 0 0 6.49-1.22 10-2.24 2.59-.75 4.4 4.74 1.56 5.4z" fill="#F2F5F9"/><path fill-rule="evenodd" clip-rule="evenodd" d="M86.92 80.97h14.29l.86 2.95h-14.3l-.85-2.95z" fill="#fff"/><path fill-rule="evenodd" clip-rule="evenodd" d="M95.99 76.2l.64.33-2.81 5.46-.81.76.17-1.1 2.81-5.45z" fill="#F7941D"/><path fill-rule="evenodd" clip-rule="evenodd" d="M99.75 78.95c-.66-.01-2.81-.73-3.74-.78-.66-.04-.68.02-1.26.25-.46.19-1.17.38-1.25.41-.11.05-.92.93-.92.93-.27.83-.54 1.2-.15 1.4.24.12.5-.2.99-.92l.35-.29c-.26.33-.47.58-.52.95-.04.33.04.78.66.83.15.01.13-.12.18-.27l.12-.4c.45-.17.85-.34 1.29-.54-.59.31-.93.53-1.09.74-.22.29.01.52.23.75.31.32.69-.29 1.62-.63-.3.16-.76.36-.93.67-.16.3.22.45.49.45 1.01 0 2.58-.16 3.61-.42.39-.1.6-.38.84-.48.05-.02 3-.05 3.06-.05l-.64-3.22-2.94.62zM96.12 73.11l-1.76.18c-.99.22-1.72.71-2 .11-.56-1.18.77-1.1 1.29-1.27.43-.14.79-.39 1.28-.31.94.14 1.05.41 1.19 1.29z" fill="#939598"/></g><defs><clipPath id="clip0"><path fill="#fff" d="M0 0h134.51v124.35H0z"/></clipPath></defs></svg>