<svg width="134" height="150" fill="none" xmlns="http://www.w3.org/2000/svg"><g clip-path="url(#clip0)" fill="#F7931E"><path d="M23.212 21.823a2.927 2.927 0 003.249 2.048l2.508-.387 1.79 5.942a2.928 2.928 0 003.65 1.96 2.93 2.93 0 001.96-3.65l-2.525-8.38a2.93 2.93 0 00-3.25-2.05l-2.51.386-2.13-7.034a2.932 2.932 0 00-3.653-1.957 2.932 2.932 0 00-1.957 3.653l2.868 9.47zM11.563 36.759l2.051-1.503 4.345 4.45a2.918 2.918 0 002.098.882 2.93 2.93 0 002.095-4.975l-6.12-6.27a2.933 2.933 0 00-3.83-.316l-2.05 1.503-5.125-5.256a2.932 2.932 0 00-4.142-.052 2.932 2.932 0 00-.053 4.142l6.9 7.075a2.931 2.931 0 003.831.32zM48.018 14.974l2.282 1.11-1.907 5.91a2.93 2.93 0 005.575 1.8l2.69-8.328a2.93 2.93 0 00-1.504-3.533l-2.279-1.11 2.265-6.988A2.934 2.934 0 0053.256.144a2.933 2.933 0 00-3.692 1.883l-3.046 9.41a2.922 2.922 0 001.5 3.537zM61.45 134.312h16.676c4.304 0 7.805-3.499 7.805-7.796 0-8.901-7.242-16.143-16.143-16.143-8.9 0-16.142 7.242-16.142 16.143 0 4.3 3.5 7.796 7.804 7.796zm8.338-18.077c5.669 0 10.283 4.612 10.283 10.284 0 1.048-.89 1.936-1.945 1.936H61.45c-1.055 0-1.945-.888-1.945-1.936 0-5.672 4.611-10.284 10.283-10.284zM96.932 107.648a2.924 2.924 0 002.595-1.57 2.928 2.928 0 00-1.233-3.955l-6.498-3.41 6.498-3.41a2.932 2.932 0 001.233-3.955 2.931 2.931 0 00-3.955-1.234L84.13 96.117a2.932 2.932 0 000 5.192l11.443 6.003c.434.228.9.336 1.36.336zM40.037 106.078a2.929 2.929 0 003.955 1.236l11.452-6.002a2.929 2.929 0 000-5.192l-11.452-6.003a2.93 2.93 0 00-2.721 5.189l6.503 3.41-6.504 3.41a2.926 2.926 0 00-1.233 3.952zM100.775 130.614a2.931 2.931 0 00-3.931 1.31l-.009.017a2.922 2.922 0 001.315 3.923c.42.208.865.308 1.304.308a2.934 2.934 0 001.32-5.558z"/><path d="M130.641 83.936c-1.87-2.67-4.685-4.14-7.931-4.14h-3.457l-1.421-13.102c-.48-4.383-.158-4.702 1.21-6.047.554-.544 1.184-1.092 1.849-1.672 3.518-3.068 8.335-7.269 8.97-17.573a2.93 2.93 0 00-3.65-3.018c-1.45.37-2.78.73-3.955 1.047-8.561 2.308-10.594 2.856-18.662-2.121-13.357-8.236-25.336-11.095-36.621-8.734C57.39 30.58 50.435 35.9 44.845 40.172c-.42.32-.826.633-1.225.934-4.558-1.233-9.173-.638-13.148 1.726-4.793 2.853-8.18 8.077-9.062 13.98-1.286 8.672-1.386 12.05-1.391 22.987h-3.164c-3.244 0-6.06 1.47-7.928 4.136-1.524 2.177-2.362 5.104-2.362 8.239 0 7.154 4.454 14.76 12.707 14.76h1.62c3.7 16.64 18.776 34.051 36.199 40.517 4.678 1.74 8.713 2.549 12.697 2.549 3.987 0 8.019-.812 12.683-2.549 2.666-.984 5.379-2.276 8.062-3.835a2.93 2.93 0 10-2.944-5.065c-2.394 1.391-4.799 2.537-7.157 3.41-3.996 1.488-7.38 2.183-10.644 2.183-3.264 0-6.65-.695-10.655-2.183-17.716-6.577-33.252-26.473-33.252-42.583V83.977c6.436-6.091 11.089-8.177 18.181-10.17 3.698-1.037 5.44-.518 8.913.513.873.261 1.866.554 2.976.844 23.821 6.223 33.343 7.33 52.313 9.533 1.722.2 3.53.41 5.428.633v14.048c0 1.304-.105 2.648-.31 4.022a2.037 2.037 0 00-.032.203c-.906 5.783-3.592 12.07-7.788 18.114a2.93 2.93 0 004.814 3.343c4.125-5.939 6.958-12.17 8.294-18.124h1.632c8.253 0 12.703-7.602 12.703-14.756 0-3.138-.838-6.065-2.364-8.245zm-111.37 17.138c-5.024 0-6.846-5.323-6.846-8.9 0-1.916.474-3.695 1.303-4.878.771-1.102 1.793-1.638 3.127-1.638h3.166v13.72c0 .562.018 1.128.047 1.696h-.797zm89.669-22.195c-18.697-2.171-28.084-3.26-51.503-9.381a83.551 83.551 0 01-2.792-.794c-2.382-.709-4.454-1.321-6.967-1.321-1.515 0-3.194.222-5.197.785-6.36 1.787-11.148 3.724-16.588 8.036.038-8.05.243-11.247 1.32-18.527.622-4.178 2.963-7.843 6.262-9.806 2.042-1.216 5.384-2.332 9.703-.762a2.933 2.933 0 002.745-.395c.805-.595 1.623-1.219 2.487-1.881 10.591-8.098 25.096-19.19 52.113-2.531 10.084 6.22 14.198 5.232 22.902 2.888-1.16 4.823-3.712 7.05-6.384 9.378-.7.613-1.427 1.245-2.103 1.91-3.352 3.294-3.466 5.962-2.927 10.86l1.306 12.056c-1.52-.184-2.976-.354-4.377-.515zm11.362 22.195h-.797c.032-.571.05-1.136.05-1.696v-13.72h3.158c1.336 0 2.358.536 3.132 1.64.829 1.184 1.303 2.963 1.303 4.882-.002 3.574-1.825 8.894-6.846 8.894z"/></g><defs><clipPath id="clip0"><path fill="#fff" d="M0 0h133.005v150H0z"/></clipPath></defs></svg>