<svg width="90" height="150" fill="none" xmlns="http://www.w3.org/2000/svg"><path d="M37.5 40a2.5 2.5 0 100-5 2.5 2.5 0 000 5zM52.5 40a2.5 2.5 0 100-5 2.5 2.5 0 000 5zM40 52.5h2.5A7.51 7.51 0 0050 45v-2.5h-5V45a2.503 2.503 0 01-2.5 2.5H40v5z" fill="#F7931E"/><path d="M45 0C28.44.019 15.019 13.44 15 30v44.362l-6.213 3.454a2.503 2.503 0 00-1.221 1.621l-7.5 32.501A2.499 2.499 0 002.5 115v7.5c0 .662.263 1.3.731 1.769l7.5 7.5a2.501 2.501 0 001.769.731h5.631a24.624 24.624 0 01.028 12.062l-.58 2.332A2.498 2.498 0 0020 150h50a2.5 2.5 0 002.425-3.106l-.581-2.332a24.622 24.622 0 01.028-12.062H75c.662 0 1.3-.262 1.769-.731l7.5-7.5A2.505 2.505 0 0085 122.5V115h2.5a2.5 2.5 0 002.438-3.062l-7.5-32.5a2.496 2.496 0 00-1.222-1.622L75 74.362V30C74.981 13.44 61.562.019 45 0zm25 30v46.253a10.68 10.68 0 01-4.838-7.231l.054-.097-.075-.04c-.091-.56-.138-1.126-.138-1.691V45a28.214 28.214 0 00-17.819-26.322l-7.15-2.86.188-10.355c13.544-2.647 26.672 6.187 29.319 19.73.306 1.585.459 3.194.459 4.807zM30 87.188a2.5 2.5 0 002.5-2.5v-1.822a5.004 5.004 0 011.831 6.83 5.004 5.004 0 01-6.831 1.832 5.004 5.004 0 010-8.662v1.822a2.5 2.5 0 002.5 2.5zm8.294-66.679l7.031 2.813A23.237 23.237 0 0160 45c0 8.284-6.716 15-15 15-8.284 0-15-6.716-15-15V30.878l8.294-10.369zm20.95 45.1l-2.81-4.215A20.215 20.215 0 0060 58.206v7.822l-.756-.419zm-21.231-1.871a19.99 19.99 0 0013.974 0l2.047 3.068-5.418 3.613c-.363.24-.657.572-.85.962L45 76.91l-2.763-5.528a2.477 2.477 0 00-.85-.962l-5.418-3.613 2.044-3.069zM20 30A25.038 25.038 0 0135.19 7.006l-.174 9.597-9.47 11.834A2.509 2.509 0 0025 30v15a19.982 19.982 0 008.566 16.394l-2.81 4.215L20 71.584V30zM7.5 121.466V115h10a2.5 2.5 0 002.5 2.5h15c.319 0 .634-.059.928-.178l12.5-5a2.506 2.506 0 001.153-.935L53.837 105H62.5v8.456L34.41 127.5H13.533L7.5 121.466zm15-8.966V105h4.547l13.534 5.075-6.062 2.425H22.5zM66.81 145H23.19c.913-4.116.935-8.375.07-12.5H35c.388 0 .772-.091 1.119-.262l12.41-6.204 10.187 6.113c.387.234.834.356 1.287.356h6.74A29.56 29.56 0 0066.81 145zM80 121.466l-6.034 6.034H60.694l-6.866-4.119 12.29-6.143A2.505 2.505 0 0067.5 115H80v6.466zM84.36 110H67.5v-7.5A2.5 2.5 0 0065 100H52.5a2.51 2.51 0 00-2.081 1.113l-3.9 5.85-18.144-6.804a2.486 2.486 0 00-.878-.159H20a2.5 2.5 0 00-2.5 2.5v7.5H5.644l6.543-28.353 15.313-8.51v4.366c-5.347 1.381-8.563 6.835-7.181 12.181 1.381 5.347 6.834 8.563 12.181 7.182 5.347-1.382 8.563-6.835 7.181-12.182a9.998 9.998 0 00-7.181-7.18v-7l5.56 3.705 4.703 9.407a2.502 2.502 0 004.471 0l4.703-9.407 5.563-3.706v8.156l-.147.097A16.48 16.48 0 0050 92.496a2.5 2.5 0 002.5 2.5h5v-5h-2.228A11.49 11.49 0 0160 83.004a11.49 11.49 0 014.728 6.994H62.5v5h5a2.5 2.5 0 002.5-2.5 16.487 16.487 0 00-7.353-13.74l-.147-.098v-2.962a15.659 15.659 0 009.394 6.725 2.496 2.496 0 003.103-2.347l2.819 1.566L84.359 110z" fill="#F7931E"/></svg>