<svg width="164" height="150" fill="none" xmlns="http://www.w3.org/2000/svg"><g clip-path="url(#clip0)" fill="#F7931E"><path d="M158.826 132.984l-3.444-7.267a8.907 8.907 0 00-8.017-5.072h-5.916a2.418 2.418 0 100 4.836h5.916c1.549 0 2.98.907 3.644 2.306l2.422 5.114H98.547c-.234 0-.47.035-.697.102l-6.11 1.834h-5.974l1.949-3.728a10.453 10.453 0 019.292-5.625h33.153a2.418 2.418 0 100-4.836H97.007a15.271 15.271 0 00-13.579 8.225l-1.654 3.166-1.655-3.166a15.279 15.279 0 00-13.579-8.225H33.387a2.419 2.419 0 000 4.836H66.54c3.916 0 7.478 2.156 9.292 5.628l1.949 3.728h-5.974l-6.11-1.834a2.436 2.436 0 00-.697-.102H10.113l2.421-5.114a4.05 4.05 0 013.645-2.306h5.916a2.419 2.419 0 000-4.836h-5.916a8.908 8.908 0 00-8.018 5.072l-3.443 7.267A5.646 5.646 0 000 138.549v3.708a5.653 5.653 0 005.644 5.648h58.97l6.088 1.977c.24.08.495.118.748.118h20.644c.253 0 .508-.038.748-.118l6.088-1.977h58.969a5.654 5.654 0 005.645-5.648v-3.708c.003-2.799-2.045-5.121-4.718-5.565zm-93.078 10.199a2.415 2.415 0 00-.748-.118H5.644a.806.806 0 01-.805-.808v-3.708c0-.445.361-.809.805-.809h58.999l6.11 1.834c.227.067.46.102.697.102h7.902v5.485h-7.52l-6.084-1.978zm92.96-.926a.808.808 0 01-.805.808H98.547c-.253 0-.505.039-.748.118l-6.085 1.978h-7.52v-5.482h7.903c.237 0 .47-.035.697-.102l6.11-1.833h58.999c.444 0 .808.36.808.808l-.003 3.705zM66.821 30.333c2.054 0 4.006-.534 5.695-1.53a35.391 35.391 0 014.182 6.605H65.323a5.652 5.652 0 00-5.644 5.645v6.452a5.652 5.652 0 005.644 5.645h.808v4.232a2.418 2.418 0 004.836 0V53.15h8.385v17.175h-8.385v-1.453a2.418 2.418 0 00-4.836 0V98.55c0 8.628 7.018 15.645 15.646 15.645 8.627 0 15.645-7.017 15.645-15.645v-45.4h.808a5.652 5.652 0 005.645-5.645v-6.452a5.652 5.652 0 00-5.645-5.645H86.852a35.553 35.553 0 014.182-6.605c1.69.996 3.644 1.53 5.695 1.53 3.964 0 8.015-1.91 11.4-5.382 6.788-6.96 7.472-21.805 7.497-22.434a2.416 2.416 0 00-.728-1.83 2.435 2.435 0 00-1.849-.684C112.423.045 97.598 1.1 90.81 8.056c-2.948 3.022-4.69 6.475-5.037 9.982-.272 2.734.345 5.293 1.744 7.41-1.52 1.85-3.93 5.163-5.737 9.427-1.808-4.264-4.217-7.573-5.737-9.426 1.4-2.115 2.016-4.673 1.744-7.41-.348-3.508-2.089-6.961-5.037-9.983C65.952 1.099 51.13.048 50.502.006a2.44 2.44 0 00-1.85.684 2.418 2.418 0 00-.728 1.83c.025.63.709 15.473 7.497 22.434 3.386 3.469 7.436 5.379 11.4 5.379zm14.953 79.02c-5.958 0-10.807-4.849-10.807-10.806V75.16H92.58v23.386c0 5.96-4.85 10.806-10.806 10.806zM92.58 70.322h-8.385V53.146h8.385v17.176zm6.452-29.27v6.453a.806.806 0 01-.805.805H65.323a.806.806 0 01-.805-.805v-6.452c0-.444.361-.805.805-.805H98.23a.803.803 0 01.802.805zm-8.449-22.535c.234-2.367 1.543-4.884 3.686-7.078 3.942-4.041 11.989-5.68 16.269-6.287-.502 4.297-1.939 12.381-5.878 16.422-2.466 2.527-5.286 3.923-7.934 3.923-1.7 0-3.207-.594-4.354-1.716-1.38-1.344-1.996-3.162-1.789-5.264zM69.278 11.44c2.143 2.197 3.45 4.711 3.686 7.078.207 2.099-.412 3.92-1.79 5.261-1.15 1.125-2.654 1.716-4.353 1.716-2.651 0-5.468-1.393-7.934-3.923-3.942-4.044-5.38-12.138-5.878-16.431 4.817.69 12.57 2.504 16.269 6.299z"/><path d="M81.128 84.677a3.225 3.225 0 11-6.452 0 3.225 3.225 0 116.452 0zM87.58 91.13a2.256 2.256 0 01-2.258 2.258 2.258 2.258 0 112.258-2.258zM81.128 99.195a1.613 1.613 0 11-3.225 0 1.613 1.613 0 013.225 0z"/></g><defs><clipPath id="clip0"><path fill="#fff" d="M0 0h163.547v150H0z"/></clipPath></defs></svg>