<svg width="32" height="32" viewBox="0 0 32 32" fill="none" xmlns="http://www.w3.org/2000/svg">
<path d="M16 2.71973C8.66669 2.71973 2.66669 8.70639 2.66669 16.0797C2.66669 22.7464 7.54669 28.2797 13.92 29.2797V19.9464H10.5334V16.0797H13.92V13.1331C13.92 9.78639 15.9067 7.94639 18.96 7.94639C20.4134 7.94639 21.9334 8.19973 21.9334 8.19973V11.4931H20.2534C18.6 11.4931 18.08 12.5197 18.08 13.5731V16.0797H21.7867L21.1867 19.9464H18.08V29.2797C21.2219 28.7835 24.083 27.1804 26.1466 24.7598C28.2102 22.3392 29.3405 19.2606 29.3334 16.0797C29.3334 8.70639 23.3334 2.71973 16 2.71973Z" fill="white"/>
</svg>
