<svg xmlns="http://www.w3.org/2000/svg" width="32" height="32" fill="none" viewBox="0 0 32 32"><path fill="#fff" d="M29.9467 7.99967C28.92 8.46634 27.8133 8.77301 26.6667 8.91967C27.84 8.21301 28.7467 7.09301 29.1733 5.74634C28.0667 6.41301 26.84 6.87967 25.5467 7.14634C24.4933 5.99967 23.0133 5.33301 21.3333 5.33301C18.2 5.33301 15.64 7.89301 15.64 11.053C15.64 11.5063 15.6933 11.9463 15.7867 12.3597C11.04 12.1197 6.81334 9.83967 4.00001 6.38634C3.50668 7.22634 3.22668 8.21301 3.22668 9.25301C3.22668 11.2397 4.22668 12.9997 5.77334 13.9997C4.82668 13.9997 3.94668 13.733 3.17334 13.333C3.17334 13.333 3.17334 13.333 3.17334 13.373C3.17334 16.1463 5.14668 18.4663 7.76001 18.9863C7.28001 19.1197 6.77334 19.1863 6.25334 19.1863C5.89334 19.1863 5.53334 19.1463 5.18668 19.0797C5.90668 21.333 8.00001 23.013 10.52 23.053C8.57334 24.5997 6.10668 25.5063 3.41334 25.5063C2.96001 25.5063 2.50668 25.4797 2.05334 25.4263C4.58668 27.053 7.60001 27.9997 10.8267 27.9997C21.3333 27.9997 27.1067 19.2797 27.1067 11.7197C27.1067 11.4663 27.1067 11.2263 27.0933 10.973C28.2133 10.173 29.1733 9.15967 29.9467 7.99967Z"/></svg>