<svg width="121" height="133" fill="none" xmlns="http://www.w3.org/2000/svg"><g clip-path="url(#clip0)"><path d="M10.04 70.95c-.19.06-.47.17-.45 2.3h9.13c0-2.89-6.49-2.97-8.68-2.3z" fill="#000A26"/><path d="M18.73 73H9.6v.88h9.13V73zm93.36-.05c0 .39-.32.71-.71.71h-7.33c-.3 0-.53-.25-.52-.55l.03-.56 5.18-.26 1.06-.05 2.28-.12.01.83z" fill="#000A26"/><path d="M111.21 69.65c-.66-.24-1.57-.16-3.05.33-1.37.46-2.17.78-2.77 1.05-1.2.55-1.86 1.06-1.83 1.52.7.36 7.04.08 8.53-.43 0 .01.1-2.11-.88-2.47z" fill="#000A26"/><path d="M105.39 25.25c0 .08-.02.17-.06.25-.05.1-.14.18-.23.22-.18.11-.41.12-.6.01l-.44-.23-1-.53-.9-.48a.134.134 0 01-.08-.07h-.01c-.02-.01-.03-.03-.05-.05a.53.53 0 01-.08-.62l.01-.01c.16-.27.51-.38.78-.22l1.11.59 1.06.56.15.08.07.03c.12.07.21.17.24.3l.01.01c.01.06.02.11.02.16z" fill="#ECC291"/><path d="M96.89 14.95l-.04.01c-1.13.18-2.2-.58-2.38-1.72l-1.13-7.98 3.64.3 1.63 7.01a2.08 2.08 0 01-1.72 2.38z" fill="#FAB752"/><path d="M108.65 17.24l-.01.05a2.095 2.095 0 01-2.34 1.78l-.39-.05-1.11-.15-1.56-.22-.1-.01-.91-.12-.24-.03-4.87-.67c-.78-.1-1.41-.64-1.67-1.33-.11-.32-.15-.66-.11-1.01l.01-.03c.03-.25.11-.47.21-.67 0 0 0-.01.01-.01.09-.18.21-.35.35-.49.44-.46 1.1-.7 1.78-.61l.77.1 4.57.62 2 .28h.04l1.82.25c.52.07.97.33 1.28.7.03.03.06.07.1.12l.07.1c.12.19.22.41.28.63 0 .01 0 .03.01.04.03.22.04.47.01.73z" fill="#F7941D"/><path d="M97.38 4.85c.32-.09.51-.42.43-.74a.47.47 0 00-.24-.31.488.488 0 00-.39-.05l-2.6.75c-.3.08-.48.39-.4.7l.01.02c.08.29.37.46.66.38l2.53-.75z" fill="#ECC291"/><path d="M21.8 14.45l.04.02c1.01.55 2.27.18 2.82-.82l3.73-7.15-3.53-.93-3.88 6.05a2.09 2.09 0 00.82 2.83z" fill="#E2263B"/><path d="M26.14 15.14c-.2.72-.78 1.3-1.56 1.47l-4.15.94-.42.09-.45.1-.89.21-2.07.46-.29.08-.64.14-.13.03c-.02.01-.03.01-.05.01-1.09.22-2.18-.48-2.43-1.58l-.01-.05c-.14-.61.01-1.21.34-1.67.29-.39 1.78-1.32 2.28-1.44.01-.01 7.99-1.41 7.99-1.41.67-.16 1.34.03 1.82.46.15.13.29.29.39.46.12.19.23.4.27.65l.01.04c.08.35.07.69-.01 1.01z" fill="#A7A9AC"/><path d="M15.67 13.93v16.34c0 .91-.27 2.93-1.17 2.93H2.55a.55.55 0 01-.35-.12c-.62-.44-.75-2.03-.75-2.81L.84 17.61l-.09-1.88 5.63-2.76h5.24l4.05.96z" fill="#BCBEC0"/><path opacity=".1" d="M20.01 17.64l-.45.1-.89.2-2.07.46-.29.07-.64.14v11.63c0 .91-.27 2.94-1.17 2.94H2.55a.55.55 0 01-.35-.12c-.61-.44-.75-2.03-.75-2.81L.84 17.61c.7-.35 1.54-.42 2.27-.16 1.28.46 2.04 1.75 2.81 2.89 1.04 1.54 2.29 2.94 3.71 4.17 1.13.98 2.44 1.86 3.84 2.32.32-.29.57-.68.74-1.08.23-.54.33-1.12.42-1.69.19-1.14.37-2.29.53-3.43.05-.31.21-1.22.33-1.96.1-.56.18-1.02.18-1.02 1.15-.34 4.16-1.52 4.45-.84.02.06-.03.4-.11.83z" fill="#000"/><path d="M15.12 38.26l-.2 32.46L9.6 73 8.5 43.28l-.01.14-2.1 29.83H.75L.76 73l.97-31.09.12-3.65c0-.28.12-2.67.33-4.06.09-.59.19-1 .31-1h11.95c.11 0 .21.36.3.88.08.43.14.97.2 1.52.1 1.21.18 2.46.18 2.66z" fill="#245675"/><path d="M2.13 34.47c0-.74-.03-1.01 0-1.39h12.66c.07.26.03.69 0 1.39H2.13z" fill="#000A26"/><path d="M10.05 33.2H8.57v1.11h1.48V33.2z" fill="#F6F6CA"/><path d="M15.45 25.11c-.3.14-.66.01-.8-.29a.551.551 0 01-.02-.4c.05-.13.15-.23.27-.29l2.48-1.1c.29-.13.62-.01.76.28l.01.02c.12.27.01.59-.26.71l-2.44 1.07zm9-20.37a.616.616 0 01-.43-.74.47.47 0 01.24-.31c.12-.07.26-.09.39-.05l2.6.75c.3.08.48.39.4.7l-.01.02c-.06.27-.36.44-.64.37l-2.55-.74z" fill="#ECC291"/><path d="M104.18 26.26c-.36.03-.74.06-1.14.08-.4.03-.83.05-1.28.08-.3.02-.61.03-.93.05-.05 0-.1.01-.14.01-.07 0-.14.01-.21.01-19.54 1-69.47 1.07-84.27-.11.04-.21.08-.4.12-.61.08-.41.14-.83.2-1.26l.09-.66c.12-.88.21-1.79.29-2.73.01-.24.03-.48.05-.72.03-.47.06-.96.08-1.44v-.02l.03-.62c.02-.38.03-.75.04-1.13.01-.72.02-1.44.02-2.17 0-.44-.01-.89-.01-1.34-.05-3.15-.27-6.4-.61-9.58 1.97.13 4.54.25 7.55.34.4.02.81.03 1.22.05.36.01.72.01 1.1.03l1.1.03h.03l1.07.03.92.03c17.94.42 45.63.4 62.81-.04l.91-.03 1.1-.03c.07-.01.15-.01.23-.01l.87-.03c.37-.01.74-.03 1.1-.04.44-.01.87-.03 1.28-.04 2.27-.09 4.23-.18 5.8-.29-.46 3.38-.65 6.81-.59 10.28.02 1.11.07 2.24.14 3.37.02.3.04.6.07.9.14 1.81.34 3.63.61 5.47.02.13.04.27.05.4.01.01.01.03.01.05.05.31.1.63.16.94.05.24.09.5.13.75z" fill="#F1F2F2"/><path d="M3.57 70.95c-1.56 0-2.81.17-2.81 2.3h5.63c-.01-2.23-1.27-2.3-2.82-2.3z" fill="#000A26"/><path d="M6.38 73H.75v.88h5.63V73z" fill="#000A26"/><path d="M11.62 11.37v1.6c-.33 1.54-.76 3.15-2.62 3.15-1.7 0-2.57-1.7-2.62-3.15v-1.6h5.24z" fill="#ECC291"/><path d="M4.9 6.75L4.78 5.1c-.04-.86.29-1.69.88-2.32.85-.9 1.7-1.2 3.41-1.2 1.7 0 2.55.29 3.41 1.2.59.62.91 1.46.88 2.32l-.12 1.65c.39.06.46.7.34 1.41-.09.58-.22 1.02-.54 1.14-.08.03-.15.04-.22.03-.02 0-.04-.01-.07-.02-.17.82-.4 1.46-.7 1.9-.35.51-.62.89-.87 1.18-.57.66-1.03.82-2.1.82h-.03c-1.07 0-1.54-.16-2.1-.82-.25-.29-.52-.67-.87-1.18-.29-.43-.52-1.08-.7-1.9-.02-.01-.04 0-.06 0-.07.01-.15 0-.22-.03-.31-.12-.41-.56-.5-1.14-.12-.7-.09-1.33.3-1.39z" fill="#F8D3A5"/><path d="M12.72 2.88c-.06-.07-.12-.15-.18-.22-.27-.29-.54-.52-.83-.7h-.01c-.65-.4-1.43-.54-2.61-.54-1.73 0-2.59.3-3.45 1.24-.03.01-.04.03-.05.05-.04.04-.08.08-.11.12-.5.63-.78 1.42-.75 2.24l.13 1.71c.22-.04.44.11.62.37v-2c.39-2.96 4.45-.33 6.19-2.07 1.43.55 1.02 4.08 1.02 4.08.18-.26.4-.41.62-.37l.12-1.71a3.36 3.36 0 00-.71-2.2z" fill="#000A26"/><path opacity=".07" d="M3.57 39.59c.18.11.39.22.6.31-.2-.11-.4-.21-.6-.31z" fill="#000"/><path opacity=".15" d="M.75 73l2.09.24h3.54l2.1-29.83.01-.14L9.6 73l5.32-2.28h-.04a4.5 4.5 0 01-4.37-4.32L9.2 43.43c.49-1.56 2.07-2.69 3.69-3.64-2.14 1.29-6.28 1.22-8.73.11 1.82.96 3.56 2.06 3.77 3.48L5.69 65.36a9.735 9.735 0 01-4.37 7.27L.75 73z" fill="#000"/><path d="M118.26 72.95c0 .39-.32.71-.71.71h-7.33c-.3 0-.53-.25-.52-.55l.03-.56 3.52-.18 2.6-.13 2.41-.12v.83z" fill="#000A26"/><path d="M118.25 72.13c-.49.17-1.5.31-2.66.41-.74.07-1.55.12-2.32.15-1.7.07-3.22.04-3.54-.13-.03-.47.63-.98 1.82-1.52.11-.05.22-.1.34-.15h.01c.33-.14.71-.3 1.2-.48.3-.11.65-.23 1.05-.36.06-.02.13-.04.19-.07 1.44-.48 2.33-.56 2.99-.35.02 0 .04.01.06.02.55.2.76.96.84 1.58.04.49.02.9.02.9z" fill="#000A26"/><path d="M109.42 13.65l.52-.21.01-1.97c1.84-.02 2.17-.03 2.22-.03.06 0 .38 0 2.22.03l.01 1.97.52.21-2.75 7.88-2.75-7.88z" fill="#ECC291"/><path d="M120.92 17.99l-.16 1.48-.01.18-1.47 13.46c0 .05-.01.1-.01.14a1.322 1.322 0 01-.79 1.09c-.17.08-.36.13-.57.13h-11.12c-.13 0-.26-.02-.38-.05-.04-.01-.08-.03-.12-.04-.02-.01-.05-.02-.07-.03h-.01c-.03-.01-.07-.04-.1-.05-.15-.08-.28-.2-.39-.33-.03-.04-.07-.09-.1-.14a1.29 1.29 0 01-.2-.7l-.13-2.84-.05-1.12-.02-.44-.13-2.98-.03-.75-.01-.22v-.03l-.26-5.86-.05-1.07-.01-.35c0-1.19-1.1-2.7.29-2.79h.04c1.02-.07 2.38-.42 3.28-.67.59-.17 1-.3 1-.3l.83 2.13.02.05 1.86 4.77.14-.32 2.25-5.3.01-.03.55-1.3s.43.18 1.03.42c.93.39 2.28.95 2.98 1.26 1.29.56 1.91 1.41 1.91 2.6z" fill="#F7941D"/><path d="M108.28 15.83l1.18-.28-.87.91 3.29 4.66.28.4.78 1.1-.49-1.5-.29-.87-2.24-6.82.01-1.04c-1.06.22-2.12 1.74-1.65 3.44z" fill="#FFE6CB"/><path d="M111.89 21.13l.28.4.28-.4 3.29-4.66-.87-.91 1.19.28c.47-1.71-.59-3.22-1.66-3.43l.01 1.04-2.23 6.82-.29.86z" fill="#FFE6CB"/><path d="M113.37 2.88c1.39 0 2.51 1.12 2.51 2.51v1.68c.07-.03.14-.04.21-.02.37.06.43.65.32 1.32-.09.54-.21.96-.5 1.07-.07.03-.14.04-.21.02-.02 0-.04-.01-.06-.02-.16.77-.38 1.37-.66 1.78-.33.48-.58.84-.81 1.11-.53.62-.97.77-1.98.77h-.03c-1.01 0-1.45-.15-1.98-.77-.23-.27-.49-.63-.81-1.11-.28-.41-.49-1.01-.65-1.78-.02.01-.04.02-.06.02-.07.01-.14 0-.21-.02-.29-.11-.42-.53-.5-1.07-.11-.67-.05-1.26.32-1.32.07-.01.14 0 .21.02V5.39c0-1.39 1.12-2.51 2.51-2.51h2.38z" fill="#F8D3A5"/><path d="M115.86 3.26c-.06-.07-.11-.14-.17-.19 0-.01-.01-.01-.01-.02-.74-.75-2.04-.92-3.5-.92-1.55 0-2.9.18-3.62 1.04-.03.03-.05.05-.07.09-.68.92-.49 1.8-.36 2.64.13.85.14 1.14.14 1.14h.03c.21 0 .53.39.71 1.44h.3c-.89-4.18.07-4.21.92-3.99.72.19 1.17.27 1.97.31.8-.04 1.25-.12 1.97-.31.85-.22 1.81-.18.91 3.99h.3c.17-1.02.48-1.42.68-1.44h.05s.01-.29.14-1.14c.1-.85.3-1.72-.39-2.64z" fill="#FAB752"/><path d="M113.63 3.54c.41-.1.82-.25 1.25-.23.42.02.87.23 1.04.62 0-2.12-3.6-2.27-4.1-2.3-.5-.04-1.01-.13-1.44-.39-.43-.26-.76-.72-.76-1.23-1.06 1.08-1.31 1.66-1.25 2.55.03.39.13 2.17 5.26.98z" fill="#FAB752"/><path d="M118.64 62.15c.1 3.04-.03 6.19-.38 9.09l-.04-.01-1.42-.41-2.66-.77-1.18-15.37-.75-9.98-.01-.21-1.01 9.88c.38 6.01 1.77 12.4.72 16.52h-.01l-1.73-.32-2.57-.48-1.35-15.4-.07-18.25v-1.5h12.47c.04.3.08.6.11.89.02.2.04.41.05.61.16 2.23-.05 4.26-.54 6.15.42 4.13.25 8.01-.58 11.63.54 2.32.85 5.07.95 7.93z" fill="#58595B"/><path d="M118.84 36.42h-.05c-1.04.14-2.09.25-3.15.32-3.19.22-6.41.12-9.48-.32v-2.09h12.47l.15 1.47.06.62z" fill="#231F20"/><path d="M7.54 27.23c-.1.09-.21.16-.33.22-.01.01-.03.01-.03.01l-.03.02c-.55.27-1.15.28-1.67.09-.16-.05-.31-.13-.44-.23l-.01-.01a2.02 2.02 0 01-.68-.79C2.7 24.32 1.36 21.9.49 19.17c-.1-.31-.19-.61-.27-.93-.51-1.03-.1-2.27.94-2.79l.03-.01a2.07 2.07 0 012.79.93c1.14 2.32 2.45 4.83 3.75 7.51.07.14.13.27.2.41.06.12.12.25.18.38.45.91.19 1.97-.57 2.56z" fill="#A7A9AC"/><path d="M17.57 25.08a.618.618 0 01-.63-.58c-.01-.28.21-.52.49-.53l2.2-.08c.32-.01.58.23.59.55v.02c.01.3-.22.55-.52.56l-2.13.06z" fill="#ECC291"/><path d="M17.38 26.22a.535.535 0 01-.38-.13.533.533 0 01-.17-.36v-.01a.61.61 0 01.57-.63l2.05-.09c.13-.01.26.04.35.12.1.09.15.21.16.34l.01.11a.55.55 0 01-.51.56l-2.08.09z" fill="#ECC291"/><path d="M17.61 27.3a.611.611 0 01-.63-.58v-.01c-.01-.14.05-.27.14-.37.09-.1.22-.16.36-.16l1.66-.06c.32-.01.58.23.59.55l.01.11c0 .12-.04.24-.12.32a.41.41 0 01-.31.14l-1.7.06z" fill="#ECC291"/><path d="M17.6 28.21c-.22.01-.4-.17-.41-.41v-.08c-.01-.23.16-.43.38-.44l.8-.03c.2-.01.38.16.38.38l.01.16c.01.2-.14.38-.33.39l-.83.03z" fill="#ECC291"/><path d="M18.27 24.44v.01c.02.3-.2.56-.5.57.3-.02.54.21.56.51v.01c.02.3-.2.55-.5.57l-.16.01c.29-.02.54.21.56.5v.01c.02.3-.21.56-.5.57l-.17.01c.26-.02.48.19.5.45v.01c.02.26-.15.51-.41.52l-.2.01-1.95.05c-.65.01-1.22-.2-1.3-.62 0-.03-.03-.05-.05-.05-.01-.01-.02-.01-.03-.01l-1.71.03a.09.09 0 01-.09-.09v-.05l-.05-2.33c0-.05.04-.09.09-.09l1.63-.03h.04c.03 0 .07-.02.08-.05l.07-.17v-.01c.19-.38.52-.66.91-.77.08-.03 1.62-.06 2.28-.07l.34-.02c.29 0 .54.23.56.52z" fill="#F8D3A5"/><path d="M14.26 29.18L6.3 27.91c-.18-.03-.34-.08-.51-.16v-.01a2.09 2.09 0 01-1.17-2.25v-.01l.01-.03c.2-1.13 1.28-1.89 2.42-1.68l.19.03.49.08 6.25 1.09v.05l.17 2.52v.03l.03.39.08 1.22z" fill="#A7A9AC"/><path d="M26.39 4.83c0 .3-.24.55-.55.55-.3 0-.55-.24-.55-.55l-.01-1.19c0-.3.24-.55.55-.55.3 0 .55.24.55.55l.01 1.19z" fill="#F8D3A5"/><path d="M27.49 4.77c0 .33-.24.6-.55.6-.3 0-.55-.26-.55-.59l-.01-1.29c0-.33.24-.6.54-.6.3 0 .55.26.55.59l.02 1.29z" fill="#F8D3A5"/><path d="M28.59 4.76c0 .33-.24.6-.55.6-.3 0-.55-.26-.55-.59l-.01-1.29c0-.33.24-.6.54-.6.3 0 .55.26.55.59l.02 1.29z" fill="#F8D3A5"/><path d="M29.5 4.65c0 .27-.2.5-.45.5s-.46-.22-.46-.49l-.01-1.07c0-.28.2-.5.45-.5s.46.22.46.49l.01 1.07z" fill="#F8D3A5"/><path opacity=".1" d="M14.26 29.18L6.3 27.91c-.18-.03-.34-.08-.51-.16v-.01c-.11-.05-.21-.11-.31-.18-.16-.05-.31-.13-.44-.23l-.01-.01c-.28-.19-.52-.46-.68-.78C2.7 24.32 1.36 21.9.49 19.17c1.04 1.42 3 4.6 4.13 6.3v.01c.44.64.74 1.07.85 1.1.7.25 1.39.46 2.07.64 2.8.75 5.3.96 6.64.74l.08 1.22zm.67 6.43c-3.11.26-6.29.68-9.03 2.17-1.73.94-3.27 2.4-4.17 4.13l.11-3.64c0-.28.12-2.67.33-4.06 4.19-.04 8.38-.08 12.56-.11.08.42.14.96.2 1.51z" fill="#000"/><path opacity=".03" d="M17.14 15c.01 4.17-.28 8.11-.92 11.38 15.86 1.26 72.04 1.09 87.96-.12-.23-1.35-68.99 1.89-87.04-11.26z" fill="#6D6E71"/><path d="M95.43 4.94c0 .3.24.55.55.55.3 0 .55-.24.55-.55l.01-1.19c0-.3-.24-.55-.55-.55-.3 0-.55.24-.55.55l-.01 1.19zm-1.1-.06c0 .33.24.6.54.6.3 0 .55-.26.55-.59l.01-1.29c0-.33-.24-.6-.54-.6-.3 0-.55.26-.55.59l-.01 1.29z" fill="#F8D3A5"/><path d="M93.23 4.87c0 .33.24.6.55.6.3 0 .55-.26.55-.59l.01-1.29c0-.33-.24-.6-.54-.6-.3 0-.55.26-.55.59l-.02 1.29z" fill="#F8D3A5"/><path d="M92.32 4.76c0 .27.2.5.45.5s.46-.22.46-.49l.01-1.07c0-.27-.2-.5-.45-.5s-.46.22-.46.49l-.01 1.07z" fill="#F8D3A5"/><path opacity=".05" d="M120.74 19.65l-1.48 13.46c0 .05-.01.1-.01.14a1.3 1.3 0 01-.48.89l-1.11.19-.76.13h-10.13c-.13 0-.26-.02-.38-.05-.04-.01-.08-.03-.12-.04-.02-.01-.05-.02-.07-.04h-.01a1.371 1.371 0 01-.49-.38c-.03-.04-.07-.09-.1-.14a1.29 1.29 0 01-.2-.7l-.13-2.84.01-1.6.02-3.17.28-.31 6.22-.57c.01-.01 2.88-3.39 4.12-5.16.14-.2.27-.38.4-.57l3.74.49c-.08.27-.15.54-.24.81-.17.54-.28 1.08-.35 1.62.26-.38.5-.73.71-1.03.07-.1.14-.19.2-.28.14-.33.24-.62.36-.85z" fill="#000"/><path d="M102.39 25.54c.33.04.63-.2.67-.53V25a.517.517 0 00-.46-.57l-2.18-.24c-.31-.04-.6.19-.63.5v.02c-.03.3.18.56.48.59l2.12.24z" fill="#ECC291"/><path d="M102.49 26.69c.14.02.28-.02.38-.11.11-.09.18-.21.19-.35v-.01a.604.604 0 00-.52-.67l-2.03-.24a.465.465 0 00-.36.1c-.1.08-.17.2-.18.33l-.01.11c-.03.29.17.56.47.59l2.06.25z" fill="#ECC291"/><path d="M102.18 27.75c.33.04.63-.2.67-.53v-.01a.479.479 0 00-.11-.38.494.494 0 00-.35-.19l-1.65-.18c-.31-.03-.6.19-.63.5l-.01.1c-.01.12.02.24.1.33.07.09.18.15.3.17l1.68.19z" fill="#ECC291"/><path d="M102.13 28.66c.22.03.42-.14.44-.38l.01-.08a.418.418 0 00-.35-.47l-.8-.09c-.2-.02-.39.14-.41.36l-.02.16c-.02.2.11.39.3.41l.83.09z" fill="#ECC291"/><path d="M107.67 26l-.22 2.32v.05c-.01.05-.05.08-.1.07l-1.71-.16c-.01 0-.02 0-.04.01-.02 0-.05.02-.05.05-.03.14-.12.24-.25.33-.02.02-.05.03-.08.04-.25.14-.63.19-1.02.16l-1.94-.19-.1-.01-.1-.01c-.25-.03-.41-.29-.37-.55v-.01c.01-.16.11-.28.24-.35h.01c.01-.01.03-.02.05-.03h.01c.05-.02.11-.03.16-.03l-.11-.01a.535.535 0 01-.45-.61v-.01c.02-.19.14-.34.29-.42l.06-.03c.07-.02.16-.03.24-.02l-.16-.03a.432.432 0 01-.28-.13.542.542 0 01-.18-.47v-.01c.03-.2.16-.37.35-.44.01 0 .01-.01.02-.01.06-.02.13-.03.2-.03a.53.53 0 01-.42-.6v-.01c.03-.2.16-.36.33-.44h.01c.03-.01.08-.03.12-.03a.33.33 0 01.14 0l.27.04.07.01c.31.03.79.07 1.24.12.05.01.11.01.16.02.4.04.74.07.84.1.02 0 .03.01.03.01.04.01.08.03.12.04v.01c.23.1.41.26.55.47h.01c.07.09.13.2.18.32l.01.01.05.17c.02.03.04.05.08.06h.04l1.62.15c.05-.01.08.03.08.08z" fill="#F8D3A5"/><path d="M113.9 28.87c.01.01.02.01.03.02l.04.02c.71.33 1.51.22 2.1-.21.28-.2.5-.48.65-.81 1.57-2.27 2.83-4.74 3.61-7.5.09-.31.17-.62.25-.93.47-1.04.02-2.28-1.03-2.75l-.04-.02a2.078 2.078 0 00-2.76 1.03c-1.12 2.48-2.42 5.17-3.68 8.05-.06.13-.11.25-.17.38a2.076 2.076 0 001 2.72z" fill="#FAA74A"/><path d="M105.97 25.7l-.01.05-.35 2.5v.04l-.22 1.58 9.25-.54c.18-.02.35-.06.51-.12h.01c.74-.28 1.26-.97 1.33-1.76.02-.13.01-.26 0-.4l-.01-.05a2.08 2.08 0 00-2.29-1.85l-.2.02-8.02.53z" fill="#FAA74A"/><path opacity=".15" d="M112.19 44.49l-1.01 9.88c.38 6.01 1.77 12.4.72 16.52-.12.05-.23.1-.34.15-.93.43-1.54.83-1.75 1.21-.06.11-.09.21-.08.31l-.03.56c-.01.3.23.54.52.54h-4.58c1.16-.06 2.22-.58 3.1-1.37a7.17 7.17 0 001.42-1.73c.22-.38.41-.78.56-1.18.85-2.32.7-4.87.54-7.34-.14-2.15-.57-5.09-.71-7.24-.13-2.07.04-2.7.15-5.24.12-2.56.81-5.97-1.58-8.29 1.88.59 4.01 1.08 5.84.34-1.29.57-2.48 1.74-2.75 3.11l-.02-.23zm6.45 17.66c.1 3.04-.03 6.19-.38 9.09l-.04-.01c.06.49.04.9.04.9v.82c0 .39-.32.71-.71.71h-3.28c.49-.32.93-.7 1.32-1.12.09-.09.17-.19.25-.29.37-.44.68-.92.95-1.43.2-.38.37-.78.52-1.19.49-1.35.7-2.82.68-4.2-.05-3.45-1.23-7.7-1.37-11.15-.05-1.07.37-7.62.52-10.26.25-4.69-.63-6.48-1.5-7.28 1.05-.07 2.11-.18 3.15-.32.16 2.23-.05 4.26-.54 6.15.42 4.13.25 8.01-.58 11.63.56 2.34.87 5.09.97 7.95z" fill="#05101C"/><path d="M24.04 33.45c-.47.62-.57-.17-.98.48-.82 1.29-.77 5.37-.86 6.67-.05.65.15 2.36.39 2.97.37.95 1.21 2.27 2.09 2.77 1.39.79 3.28-.08 4.66.71.73-.8 2.9-.16 3.49-1.07.59-.91-.95-1.67-.61-3.33 1.18-5.61.13-7.51-.25-8.71-.38-1.19-.87 1.42-1.89.69-.73-.53-1.66-.7-2.55-.85-.68-.11-1.38-.2-2.07-.1-.68.1-1.01-.78-1.42-.23z" fill="#FAB752"/><path d="M12.6 54.88a.635.635 0 00-.79-.45c-.14.04-.26.13-.33.26a.56.56 0 00-.05.42l.8 2.76c.09.32.42.51.74.43h.02c.3-.08.49-.4.4-.7l-.79-2.72zm29.72 0c.09-.34.44-.55.79-.45.14.04.26.13.33.26s.09.28.05.42l-.8 2.76c-.09.32-.42.51-.74.43h-.02c-.3-.08-.49-.4-.4-.7l.79-2.72z" fill="#ECC291"/><path d="M29.19 105.389c-.2.06-.5.18-.48 2.44h9.69c0-3.06-6.89-3.15-9.21-2.44z" fill="#000A26"/><path d="M38.4 107.569h-9.69v.93h9.69v-.93z" fill="#414042"/><path d="M24.95 105.389c.2.06.5.18.47 2.44h-9.69c.01-3.06 6.9-3.15 9.22-2.44z" fill="#000A26"/><path d="M25.43 107.569h-9.69v.93h9.69v-.93z" fill="#414042"/><path d="M35.93 57.35v.05a2.211 2.211 0 002.25 2.17l4.21-.34-1.01-3.74-3.28-.39a2.211 2.211 0 00-2.17 2.25z" fill="#4C7889"/><path d="M39.85 58.32c-.12.18-.26.34-.43.48a2.1 2.1 0 01-.65.38l-.03.02c-.35.12-.72.17-1.07.11-.78-.11-1.48-.63-1.77-1.42l-.73-1.97L34 52.76l-.34-.91-.07-.2-.2-.54-.9-2.45c-.1-.26-.14-.52-.14-.77v-.01c0-.2.04-.4.09-.6.18-.65.67-1.2 1.36-1.45l.04-.02c.44-.17.91-.18 1.34-.06.16.04.32.1.47.18.46.25.84.66 1.03 1.18l1.45 3.92.22.61 1.74 4.71c.24.67.13 1.4-.24 1.97z" fill="#6D6E71"/><path d="M19.21 57.35v.05a2.211 2.211 0 01-2.25 2.17l-4.35-.34 1.01-3.74 3.42-.38c1.22.01 2.19 1.02 2.17 2.24z" fill="#4C7889"/><path d="M22.66 48.65l-.81 2.18-.29.8-.08.2-.33.92-1.36 3.67-.54 1.46a2.19 2.19 0 01-1.77 1.42c-.34.05-.71.01-1.06-.11l-.03-.02a1.99 1.99 0 01-.65-.38c-.17-.13-.32-.3-.43-.48-.38-.57-.48-1.3-.23-1.98l1.74-4.7.22-.59 1.46-3.94a2.2 2.2 0 011.02-1.18l.57-.21c.4-.09.83-.06 1.24.09l.04.02c.65.24 1.12.76 1.33 1.36.03.09.05.18.07.27.06.39.04.81-.11 1.2z" fill="#6D6E71"/><path d="M35.16 45.72v16.47c0 .97-.29 3.11-1.25 3.11H21.22c-.14 0-.26-.04-.37-.13-.65-.47-.8-2.16-.8-2.99l-.64-13.45.09-2.81 5.17-1.88 5.55-.23 4.94 1.91z" fill="#6D6E71"/><path d="M34.58 70.68l-.01 1.63v.01l-.2 32.83-5.66 2.42-1.17-31.56-.01.14v.01l-2.1 31.36v.05l-.11-.04-3.91-1.53-2.01-.78.95-30.66.12-3.87c0-.29.12-2.83.34-4.31.1-.62.21-1.07.33-1.07h12.68c.12 0 .23.38.33.94.08.46.15 1.03.21 1.61.14 1.28.22 2.61.22 2.82z" fill="#BCBEC0"/><path d="M20.78 66.65c0-.78-.03-1.08 0-1.47h13.44c.08.28.03.74 0 1.47H20.78z" fill="#000A26"/><path d="M30.21 42.12v1.71l-.03.11v.01c-.34 1.59-.82 3.24-2.75 3.24-1.71 0-2.64-1.63-2.76-3.12-.01-.08-.02-.15-.02-.23v-1.71h5.56v-.01z" fill="#ECC291"/><path d="M23.08 37.21l-.13-1.75c-.03-.91.31-1.8.94-2.46.91-.96 1.81-1.27 3.62-1.27s2.71.31 3.62 1.27c.63.67.97 1.55.94 2.46l-.13 1.75c.42.07.49.74.37 1.49-.1.61-.24 1.08-.57 1.21-.08.03-.16.04-.24.03-.02-.01-.05-.01-.07-.02-.18.87-.43 1.55-.74 2.01-.37.54-.65.95-.92 1.26-.6.7-1.1.87-2.24.87h-.04c-1.14 0-1.63-.17-2.23-.87-.27-.31-.55-.71-.92-1.26-.31-.46-.56-1.14-.74-2.01-.02.01-.05.02-.07.02-.08.01-.16 0-.24-.03-.33-.12-.43-.6-.53-1.21-.13-.75-.1-1.42.32-1.49z" fill="#F8D3A5"/><path d="M27.57 31.23c-3.9.02-5.34 2.58-4.53 6.02.23-.04.47.12.66.4v-2.13c1.44-3.6 4.77 5.23 7.65 2.13.19-.28.43-.43.66-.4.96-3.14-.81-6.04-4.44-6.02z" fill="#FAB752"/><path opacity=".07" d="M22.31 72.09c.2.12.41.23.64.33-.22-.11-.43-.22-.64-.33z" fill="#000"/><path opacity=".15" d="M34.36 105.15l-5.66 2.42-1.17-31.56-.01.14v.01l-2.1 31.36L21.4 106c1.8-1.71 2.93-4.03 3.15-6.54l2.38-23.34c-.21-1.51-2.06-2.68-3.99-3.69 2.6 1.18 7 1.25 9.27-.12-1.73 1.01-3.41 2.21-3.92 3.87l1.38 24.39c.1 2.51 2.13 4.52 4.64 4.59h.05v-.01z" fill="#000"/><path d="M42.58 52.27h-30.3v37.66h30.3V52.27z" fill="#F1F2F2"/><path d="M42.9 89.16H11.73v1.54H42.9v-1.54z" fill="#A9A298"/><path d="M42.22 56.95c-.32 0-.59-.26-.59-.58 0-.32.26-.58.58-.59l1.27-.01c.32 0 .58.26.59.58 0 .32-.26.59-.58.59l-1.27.01z" fill="#F8D3A5"/><path d="M42.28 58.12c-.35 0-.64-.26-.64-.58 0-.32.28-.59.63-.59l1.37-.01c.35 0 .64.26.64.58 0 .32-.28.59-.63.59l-1.37.01z" fill="#F8D3A5"/><path d="M42.29 59.29c-.35 0-.64-.26-.64-.58 0-.32.28-.59.63-.59l1.37-.01c.35 0 .64.26.64.58 0 .32-.28.59-.63.59l-1.37.01z" fill="#F8D3A5"/><path d="M42.41 60.25c-.29 0-.53-.21-.53-.48s.23-.49.52-.49l1.14-.01c.29 0 .53.21.53.48s-.23.49-.52.49l-1.14.01zm-29.72-3.3c.32 0 .59-.26.59-.58 0-.32-.26-.58-.58-.59l-1.27-.01c-.32 0-.58.26-.59.58 0 .32.26.59.58.59l1.27.01z" fill="#F8D3A5"/><path d="M12.63 58.12c.35 0 .64-.26.64-.58 0-.32-.28-.59-.63-.59l-1.37-.01c-.35 0-.64.26-.64.58 0 .32.28.59.63.59l1.37.01z" fill="#F8D3A5"/><path d="M12.63 59.29c.35 0 .64-.26.64-.58 0-.32-.28-.59-.63-.59l-1.37-.01c-.35 0-.64.26-.64.58 0 .32.28.59.63.59l1.37.01z" fill="#F8D3A5"/><path d="M12.5 60.25c.29 0 .53-.21.53-.48s-.23-.49-.52-.49l-1.14-.01c-.29 0-.53.21-.53.48s.23.49.52.49l1.14.01z" fill="#F8D3A5"/><path d="M24.67 44.05l-5.28 8.33-.37-.24 5.63-8.89v.57c0 .08.01.15.02.23zm11.24 8.1l-.37.24s-5.34-8.53-5.33-8.56v-.68l5.7 9z" fill="#000A26"/><path d="M42.9 51.63H11.73v1.53H42.9v-1.53z" fill="#A9A298"/><path opacity=".03" d="M42.59 89.93h-30.3V66.65c2.41 19.61 14.36 22.72 30.3 23.28z" fill="#000"/><path opacity=".15" d="M38.33 51.64H16.8l.22-.59h3.2l2.46-3.87 1.81-2.83-1.74 3.11-1.88 3.35.98.03 11.53.26.63.02-1.67-3.24v-.01l-1.81-3.52 1.9 2.92 2.46 3.8h.27l2.95-.04.22.61z" fill="#05101C"/><path d="M59.34 131.19c0 .5.4.9.9.9h9.28c.38 0 .67-.32.66-.69l-.03-.7-6.57-.33-.79-.04-.56-.03-2.88-.14h-.01v1.03z" fill="#000A26"/><path d="M59.34 130.15h.01c.7.23 2.22.43 3.91.56 2.91.23 6.33.26 6.88-.02.04-.59-.8-1.23-2.31-1.93-.71-.32-1.63-.7-3.13-1.21-.12-.04-.25-.08-.38-.13-1.87-.62-3.02-.72-3.86-.42h-.01c-.54.2-.82.81-.97 1.44-.18.85-.14 1.71-.14 1.71z" fill="#231F20"/><path d="M46.11 131.189c0 .5.4.9.9.9h9.28c.38 0 .67-.32.66-.69l-.04-.71-4.46-.22-3.3-.17-3.05-.15.01 1.04z" fill="#000A26"/><path d="M46.12 130.15c.62.21 1.9.39 3.37.52.94.09 1.97.15 2.94.19 2.15.08 4.08.05 4.49-.16.04-.59-.8-1.23-2.31-1.93-.14-.06-.28-.12-.43-.19h-.01c-.42-.18-.9-.37-1.51-.6-.39-.14-.82-.29-1.32-.46-.08-.02-.16-.05-.25-.08-1.82-.6-2.96-.71-3.79-.44-.03.01-.05.01-.08.02-.7.25-.96 1.21-1.06 2-.06.62-.04 1.13-.04 1.13z" fill="#231F20"/><path d="M45.89 127.83h6.6l3.71-19.44 2.25-12.96.02-.27 1.28 12.51c-.01.2-.03.39-.04.58-.1 1.48-.26 2.97-.42 4.45-.65 5.98-1.49 11.81-.45 15.88h.01l.64-.12 1.55-.29 3.66-.61.39-.06.92-19.44.08-23.11.01-1.9H50.31c-.05.38-.1.76-.13 1.13-.02.26-.05.52-.06.77-.2 2.82.07 5.4.68 7.8-.54 5.23-2.12 10.3-1.08 14.89-.7 2.94-2.37 4.33-2.9 8.88-.67 5.78-.93 11.31-.93 11.31z" fill="#245675"/><path opacity=".15" d="M58.47 95.16l1.28 12.509c-.01.2-.03.39-.04.58-.1 1.48-.26 2.97-.42 4.45-.65 5.98-1.5 11.81-.45 15.88h.01l.64-.12c-.19.83-.15 1.69-.15 1.69h.01-.01l-.01 1.04c0 .5.4.9.9.9h6.52c-1.28-.07-2.47-.58-3.5-1.37-.15-.11-.29-.23-.43-.35l-.04-.04a8.734 8.734 0 01-1.75-2.16c-.22-.37-.41-.76-.57-1.15-.05-.11-.09-.23-.13-.35-1.08-2.94-.88-6.17-.68-9.29.09-1.36.27-2.97.45-4.59.18-1.61.36-3.22.45-4.58.17-2.62-.05-3.42-.2-6.64-.15-3.24-1.03-7.55 1.99-10.5-2.38.75-5.07 1.36-7.39.43 1.63.72 3.14 2.2 3.49 3.93l.03-.27zm-.06-5.18c.38.02.76-.01 1.13-.08-.38.03-.75.06-1.13.08z" fill="#05101C"/><path opacity=".1" d="M46.17 129.019c.05-.39.14-.82.3-1.18h-.57s.25-5.53.92-11.31c.53-4.55 2.2-5.94 2.9-8.88-1.05-4.59.54-9.66 1.08-14.89a24.27 24.27 0 01-.68-7.79l.06-.77c.04-.38.08-.75.13-1.13h1.55c-.01.28-.02.55-.02.79-.34 2.68-1.01 5.7 1.68 8.05-2.53 4.63-3.7 12.15-2.6 16.84-2.53 2.94-4.42 10.77-3.61 18.27.25 2.96.69 3.39 3.46 5.1h-3.76c-.5 0-.9-.4-.9-.9l.01-1.04c0-.03-.02-.54.05-1.16z" fill="#131718"/><path d="M72.01 66.07l2.07 2.5 2.22-1.42c.37.54 1.26.38 2.06-.14l2.59-1.68c-.4-1.8-1.26-3.23-2.38-4.83l-1.74 1.11-.47-.78c-.07.06-1.49 1.32-1.6 1.43-.39.42-.57 1-.53 1.59l.04.58-2.26 1.64z" fill="#ECC291"/><path d="M80.05 66.62l1.21-.81a.56.56 0 00.13-.81l-3.82-5-1.81 1.2 3.51 5.26c.17.26.52.33.78.16z" fill="#939598"/><path d="M83.12 55.29c.43 1.01 1.39 1.56 2.15 1.24.76-.32 1.02-1.4.58-2.41-.43-1.01-1.39-1.56-2.15-1.24-.76.32-1.01 1.4-.58 2.41zm-9.19 5.93l.25-.11-1.45-3.38-.25.11c-.39.17-.58.63-.41 1.02l.83 1.95c.17.4.63.58 1.03.41z" fill="#F7941D"/><path d="M78.4 59.05l8.15.15-3.89-9.09-5.52 6 1.26 2.94z" fill="#F1F2F2"/><path opacity=".5" d="M77.53 56.18l5.03-5.46.7 1.63-5.5 4.34-.23-.51z" fill="#D1D3D4"/><path d="M74.46 61.25l4.38-1.88c.18-.08.26-.29.19-.47l-1.35-3.16a.36.36 0 00-.47-.19l-4.38 1.88c-.18.08-.26.29-.19.47l1.35 3.16c.08.19.29.27.47.19z" fill="#A9A298"/><path d="M86.35 59.31c.08.18.29.26.47.19.18-.08.26-.29.19-.47l-3.92-9.14a.369.369 0 00-.47-.19c-.18.08-.26.29-.19.47l3.92 9.14z" fill="#000A26"/><path d="M76.26 61.72l1.76-1.15c.3-.19.41-.57.27-.9l-.02-.05-3.25 1.39.16.38c.19.42.7.58 1.08.33z" fill="#939598"/><path d="M73.566 57.115l-.405.173 1.628 3.817.405-.172-1.628-3.818zM76.6 58.76c.03.07.11.11.18.07.07-.03.1-.11.07-.18l-.49-1.15a.136.136 0 00-.19-.07c-.07.03-.1.11-.07.18l.5 1.15zm-.47.2c.03.07.11.11.18.07.07-.03.1-.11.07-.18l-.48-1.15a.136.136 0 00-.19-.07c-.07.03-.1.11-.07.18l.49 1.15zm-.47.2c.03.07.11.11.18.07.07-.03.1-.11.07-.18l-.49-1.15a.136.136 0 00-.19-.07c-.07.03-.1.11-.07.18l.5 1.15zm-.47.2c.03.07.11.11.18.07.07-.03.1-.11.07-.18l-.49-1.15c-.03-.07-.12-.11-.19-.07-.07.04-.1.11-.07.18l.5 1.15z" fill="#000A26"/><path d="M76.6 58.76c.03.07.11.11.18.07.07-.03.1-.11.07-.18l-.49-1.15a.136.136 0 00-.19-.07c-.07.03-.1.11-.07.18l.5 1.15zm-.47.2c.03.07.11.11.18.07.07-.03.1-.11.07-.18l-.48-1.15a.136.136 0 00-.19-.07c-.07.03-.1.11-.07.18l.49 1.15zm-.47.2c.03.07.11.11.18.07.07-.03.1-.11.07-.18l-.49-1.15a.136.136 0 00-.19-.07c-.07.03-.1.11-.07.18l.5 1.15zm-.47.2c.03.07.11.11.18.07.07-.03.1-.11.07-.18l-.49-1.15c-.03-.07-.12-.11-.19-.07-.07.04-.1.11-.07.18l.5 1.15z" fill="#05101C"/><path d="M78.4 61.78c-.33.22-.78.13-1-.2l-.07-.11c-.11-.16-.14-.36-.11-.54.04-.19.15-.35.31-.46l1.22-.81c.31-.21.73-.12.94.19l.15.23c.19.29.11.68-.17.87l-1.27.83z" fill="#F8D3A5"/><path d="M79.11 63.2c-.16.11-.36.15-.55.12a.76.76 0 01-.47-.31l-.07-.11a.732.732 0 01.19-1l1.52-1.05c.15-.1.33-.14.51-.11.18.03.33.14.43.29l.15.23c.19.29.12.67-.17.87l-1.54 1.07z" fill="#F8D3A5"/><path d="M79.82 64.56c-.33.22-.78.13-1-.2l-.07-.11c-.11-.16-.15-.36-.11-.54.04-.19.15-.35.31-.46l1.22-.81c.31-.21.73-.12.94.19l.15.23c.09.14.13.31.09.47-.04.16-.13.31-.27.4l-1.26.83z" fill="#F8D3A5"/><path d="M80.57 65.58c-.26.17-.61.09-.79-.19l-.06-.09c-.18-.27-.12-.64.13-.8l.93-.62c.24-.16.57-.08.74.18l.12.19c.16.24.11.55-.11.7l-.96.63zm-5.37.62c2.03-1.01 1.52-3.49 1.52-3.49l.19-.17a.42.42 0 01.34-.1l.74.11c.26.04.52-.03.73-.19.21-.16.34-.39.38-.65l.02-.15a.468.468 0 00-.39-.52l-.8-.12-1.19-.18a.498.498 0 00-.36.08c-.07.06-1.49 1.32-1.59 1.43-.39.42-.57 1-.53 1.59l.04.58c.03.6.26 1.19.9 1.78z" fill="#F8D3A5"/><path opacity=".1" d="M85.73 57.27l.83 1.93-7.5-.13c0 .13-.08.26-.21.32l-4.38 1.88c-.14.06-.3.02-.4-.09l-.14.06a.774.774 0 01-1.02-.41l-.15-.35 5.87-2.49 7.1-.72z" fill="#131718"/><path d="M74.28 64.43c.43 1.41 1.04 2.46 2.02 2.77-3.46 4.18-7.08 7.66-8.96 7.32-2.48-.33-3.14-3.1-.77-4.92l.19-.15 7.52-5.02z" fill="#9AA4B7"/><path d="M64.98 57.93h.05c.78-.09 1.52.17 2.06.66.46.41.77.99.85 1.65l.68 5.96.65 5.7c.1.86-.23 1.68-.82 2.23-.19.17-.4.32-.64.43-.26.13-.55.22-.85.25l-.05.01c-.45.05-.88-.01-1.27-.17A2.61 2.61 0 0164 72.5l-.55-4.77-.2-1.71-.13-1.16-.46-4.02c-.15-1.43.88-2.74 2.32-2.91z" fill="#9AA4B7"/><path opacity=".07" d="M64.98 57.93h.05c.27-.03.54-.02.8.03 1.03 4.83 1.76 9.65 1.76 14.48 3.09-1.54 5.32-3.94 7.22-6.66.38.71.85 1.22 1.48 1.42-3.13 3.78-6.39 6.99-8.37 7.31a2.46 2.46 0 01-.94.3l-.05.01c-.45.05-.88-.01-1.27-.17a2.61 2.61 0 01-1.64-2.15l-.55-4.77-.2-1.71-.13-1.16-.46-4.02c-.17-1.43.86-2.74 2.3-2.91z" fill="#05101C"/><path d="M63.46 56.9c-.4-.16-1.45-1.05-1.45-1.05l-.01-2.5c-2.23-3.21-3.54-3.71-5.87-3.68l-.31 6.18s-.97.6-1.37.77l4.73 9.46 4.28-9.18z" fill="#ECC291"/><path d="M47.59 71.68v.02c.08 2.23.27 4.36.64 6.34v.02c.41 2.25 1.04 4.31 1.94 6.13.54.06 1.07.12 1.59.17 2.88.3 5.61.5 7.99.51h.19c1.78 0 3.37-.12 4.69-.4.49-.1.94-.23 1.35-.38 1.65-4.3.18-6 .46-10.89.09-1.65.22-3.26.37-4.82 0-.03.01-.06.01-.09.26-2.61.61-5.08 1.08-7.38 0-1.51-.78-2.58-2.4-3.32-1.44-.65-3.17-1.47-3.17-1.47-.39 2.78-5.29 2.8-6.53-.27 0 0-3.67 1.44-5.11 2.1-.74.34-1.31.75-1.7 1.24-.47.57-1.15 1.63-1.15 2.45l-.03.39c-.06 1.02-.12 2.03-.16 3.03-.1 2.28-.13 4.49-.06 6.62z" fill="#74859D"/><path opacity=".07" d="M47.59 71.68v.02l.64 6.34v.02c.41 2.25 1.04 4.31 1.94 6.13.54.06 1.07.12 1.59.17-.05-.14-.09-.29-.12-.43-.58-2.48-.31-5.06-.11-7.6.15-1.85 7.65 4.77 13.22-11.64l-2.17-2.55-5.71 4.15-2.96-4.26h-6.1c-.06 1.02-.12 2.03-.16 3.03-.1 2.28-.13 4.49-.06 6.62z" fill="#05101C"/><path d="M49.84 58.78l.05-.02c1.34-.57 2.89.06 3.45 1.4.59 1.41 1.22 2.89 1.88 4.41.81 1.9 1.66 3.87 2.49 5.91.07.16.13.32.2.49a2.63 2.63 0 01-1.36 3.43c-.01.01-.03.02-.04.02l-.05.02c-.91.39-1.92.22-2.64-.35l-.01-.01c-1.11-.95-2.81-3.91-4.09-6.55-.78-1.61-1.4-3.1-1.64-3.95-.75-2.68.43-4.23 1.76-4.8z" fill="#9AA4B7"/><path opacity=".07" d="M59.76 84.86c.05-.01.11-.01.19 0 1.78 0 3.37-.12 4.69-.39.49-.1.94-.23 1.35-.38 1.65-4.3.18-6 .46-10.89-.73 1.88-.91 3.96-1.05 5.99-.38 5.67-2.97 4.14-5.64 5.67z" fill="#05101C"/><path d="M67.35 69.71c.6 0 1.21-.19 1.67-.51.83-.58 1.43-1.56 1.8-2.92.13-.48.22-.97.32-1.45.11-.59.23-1.2.42-1.78.04-.14.09-.28.13-.42.25-.85.46-1.52 1.21-1.85l-.2-.46c-.97.41-1.23 1.26-1.5 2.16-.04.13-.08.27-.12.41-.19.61-.31 1.23-.43 1.84-.09.47-.18.95-.31 1.41-.33 1.24-.87 2.12-1.6 2.63-.77.54-2.02.65-2.71-.11-.61-.67-.56-1.72-.46-2.73l.36-3.64-.5-.05-.36 3.64c-.11 1.08-.16 2.29.59 3.12.44.5 1.06.71 1.69.71z" fill="#245675"/><path d="M55.13 50.97c-.53-1.15-.86-2.5-.96-3.78-.1-5.85 4.01-5.77 6.17-5.87 2.53-.01 5.01 1.58 5.33 5.45-.11.39-.25.71-.25.71l.94 2.13c.16.35-.04.76-.41.86l-.55.18c.01.39.14 2.07.14 2.07.01.99-.47 2.35-1.66 2.38l-1.26.02c-1.53-.1-3.91-1.79-3.94-4.37-.91-.07-3.16 1.06-3.55.22z" fill="#F8D3A5"/><path d="M56.33 52.16c3.98.66 1.54-3.74 1.54-3.74s.96 1.38 1.29 1.76c.64-.04.64-.04 1.22-.11-.02-4.97-1.09-7.15 4.44-6.27 1.07-.24 1.51-3.67-5.09-3.16-2.92.23-5.27 1.6-5.65 4.5-.37 2.83-.08 6.39 2.25 7.02z" fill="#000A26"/><path d="M57.22 48.84c.05.91.88 1.93 1.47 1.9.6-.03.49-.77.45-1.68-.03-.61.08-1.47-.58-1.63-.58-.14-1.41.07-1.34 1.41z" fill="#F8D3A5"/><path d="M66.05 63.84l-2.79 2.29-1.84-2.47 2.42-2.51 2.21 2.69z" fill="#FDCA99"/><path d="M63.25 62.1h-.02c-.4-.08-.62-.48-.52-.89.38-1.59.84-2.1.87-3.63.01-.4.33-.72.73-.73h.02c.4-.01.73.31.72.73-.02 1.61-.49 2.2-.87 3.86-.11.44-.53.74-.93.66z" fill="#ECC291"/><path d="M64.37 59.14l1.02-3.89c.09-.33.43-.53.77-.45l.42.11c-.37 1.72-.73 3.44-1.24 5.13l-.51-.13a.63.63 0 01-.46-.77z" fill="#245675"/><path d="M66.06 55.42l-1.02 3.89c-.09.33.11.68.45.76l1.19.31c.33.09.68-.11.76-.45l1.02-3.89a.63.63 0 00-.45-.77l-1.19-.31a.641.641 0 00-.76.46z" fill="#D1D3D4"/><path d="M66.24 62.25a.658.658 0 01.05-.95l1.56-1.39c.28-.25.7-.22.95.05l.01.01c.25.28.22.7-.05.95l-1.56 1.39a.68.68 0 01-.96-.06z" fill="#F8D3A5"/><path d="M66.89 63.37a.6.6 0 01.04-.85l1.39-1.23c.24-.22.62-.2.84.05l.01.01c.22.24.2.62-.05.84l-1.39 1.23c-.25.22-.63.2-.84-.05zm-1.59-3.56l-.01-.01c-.31-.2-.4-.62-.2-.93l2.18-2.68c.2-.31.61-.4.92-.2l.02.01c.31.2.4.62.2.93l-2.19 2.68c-.2.31-.61.4-.92.2z" fill="#F8D3A5"/><path d="M65.49 61.23a.658.658 0 01.05-.95l2.04-2.07c.28-.25.7-.22.95.05l.01.01c.25.28.22.7-.06.94l-2.04 2.07c-.28.25-.71.23-.95-.05z" fill="#F8D3A5"/><path d="M63.96 64.14l-.88-.98c-.72-.81-.65-2.06.16-2.78l1.2-1.07 3.49 3.93-1.2 1.07c-.8.72-2.04.65-2.77-.17z" fill="#F8D3A5"/><path d="M67.77 63.4l.89-.79c.24-.22.27-.59.05-.84l-.01-.01a.598.598 0 00-.84-.05l.16-.14c.27-.24.3-.67.05-.94l-.01-.01a.665.665 0 00-.94-.06l.15-.13c.28-.24.3-.67.06-.94l-.01-.01a.677.677 0 00-.95-.06c.28-.24.3-.67.06-.94l-.01-.01a.677.677 0 00-.95-.06l-1.21 1.07 3.51 3.92z" fill="#F8D3A5"/><path d="M62.58 62.14c.68 1.33 1.48 2.28 2.42 2.6-2.84 4.83-7.07 11.58-10.56 9.73 0 0-1.66-2.92-.65-3.97l.17-.18 8.62-8.18z" fill="#9AA4B7"/><path d="M119.09 32.01c-1.29.49-3.69-.58-4.36.03-.25 1.98.54 3.1.46 4.06l2.69.09c.36-.42.82-.48 1.06-1.72.06-.28.68-1.44.15-2.46z" fill="#E5C399"/><path d="M115.68 32.16c-.14.28-.48.39-.76.25a.553.553 0 01-.24-.76l.55-1.09c.14-.28.48-.39.76-.24.28.14.39.48.24.76l-.55 1.08z" fill="#F8D3A5"/><path d="M116.7 32.64c-.15.3-.5.43-.78.29s-.38-.5-.22-.8l.6-1.18c.15-.3.5-.43.78-.29s.38.5.22.8l-.6 1.18zm1.01.51c-.15.3-.5.43-.78.29s-.38-.5-.22-.8l.6-1.18c.15-.3.5-.43.78-.29s.38.5.22.8l-.6 1.18z" fill="#F8D3A5"/><path d="M114.56 32.12c-.07-.26-.21-.54-.1-.78.14-.32.64-.34.9-.1.26.24.33.61.36.96.02.35.01.72.14 1.04.15.36.47.62.69.94.27.4.38.93.18 1.36-.2.44-.75.71-1.19.5-.44-.5-.89-1.04-1-1.7-.12-.73.22-1.5.02-2.22zm4.03 1.35c-.13.25-.42.36-.65.24-.23-.12-.31-.42-.18-.67l.5-.98c.13-.25.42-.36.65-.24.23.12.31.42.18.67l-.5.98z" fill="#F8D3A5"/><path d="M98.74 107.48c.19.06.46.17.44 2.33h-8.92c0-2.92 6.34-3.01 8.48-2.33z" fill="#000A26"/><path d="M99.18 109.569h-8.92v.89h8.92v-.89z" fill="#58595B"/><path d="M103.01 107.48c-.19.06-.46.17-.44 2.33h8.92c.01-2.92-6.34-3.01-8.48-2.33z" fill="#000A26"/><path d="M111.5 109.569h-8.92v.89h8.92v-.89z" fill="#58595B"/><path d="M107.46 75.04c-.01 0-.01.01-.02.01-.09.04-.17.09-.25.13-1.63.87-3.06 1.46-4.43 1.76-.6.13-1.18.22-1.76.24h-.06c-.07 0-.13.01-.2.01h-.01c-.36 0-.73-.02-1.09-.06-1.34-.16-2.69-.62-4.19-1.42-.14-.07-.27-.15-.41-.22-.24-.14-.49-.28-.74-.43-.01 0-.01-.01-.02-.01l.22-4.8.01-.16c1.85.54 3.8.85 5.74.84 1.48-.01 2.96-.2 4.39-.61.86-.25 1.71-.58 2.52-.99l.03.51.18 3.57.09 1.63z" fill="#245675"/><path d="M100.84 75.65l-.05.74-.05.79-.01.13-.58 11.45v.01c-.06.82-.43 1.55-.97 2.08-.65.63-1.55.99-2.52.91l-.07-.01c-.2-.01-.4-.05-.58-.1a3.252 3.252 0 01-2.39-2.74c-.03-.21-.03-.42-.02-.65l.1-2.27.32-5.35.14-2.79.14-2.72c0-.04.01-.07.01-.1a3.23 3.23 0 011.65-2.49c.13-.07.26-.14.4-.19.15-.06.31-.11.47-.15.3-.07.63-.09.95-.07h.07c.21.02.42.05.62.11.6.17 1.12.49 1.52.93.06.06.12.13.17.19.48.65.74 1.44.68 2.29z" fill="#245675"/><path d="M108.13 88.93a3.24 3.24 0 01-2.39 2.73c-.19.05-.39.09-.59.1l-.07.01c-1.05.08-2.01-.35-2.67-1.07-.46-.51-.76-1.18-.82-1.92v-.02L101 77.24v-.05l-.05-.78-.04-.75a3.238 3.238 0 012.65-3.44c.11-.02.23-.04.34-.04h.07c.37-.03.73.01 1.07.1.15.04.29.09.42.14a3.25 3.25 0 011.98 2.65c0 .03.01.07.01.1l.03.48.56 10.38.1 2.27c.02.2.02.42-.01.63zm-7.88 18.04a1.622 1.622 0 01-1.59 1.63h-.02c-.09 0-.18-.01-.28-.02-.01 0-.02 0-.04-.01l-2.63-.51-.06-.01-.58-.11-.27-.05c-.1-.02-.19-.05-.28-.09-.18-.07-.34-.16-.48-.28-.34-.3-.55-.75-.55-1.23l.02-1.81.01-5.04.02-.44.01-1.3.01-.57.03-4.34.04-3.32v-.34c0-.07 0-.13.01-.19.06-.84.44-2.37 1.02-2.92.59-.56 1.39-.89 2.26-.88h.07c1.08.01 2.03.55 2.61 1.37.31.43.51 1.72.58 2.27v.01c.02.14.03.27.03.41l.04 8.51.01 1.3v.42l.01 5.04v2.5z" fill="#245675"/><path d="M108.26 106.259c0 .48-.21.93-.55 1.23-.21.19-.47.32-.76.38l-.05.01-.21.05-.34.07-.3.06-2.62.52c-.02 0-.03.01-.04.01-.23.04-.46.03-.67-.03l-.1-.03c-.65-.21-1.13-.81-1.12-1.54l.01-2.51.01-5.04v-.41l.01-1.3.04-8.51c0-.14 0-.29.03-.43.06-.49.23-1.72.48-2.12.57-.9 1.57-1.49 2.71-1.51h.07c.87-.01 1.67.32 2.25.88.58.54.96 2.07 1.02 2.92 0 .06.01.13.01.19v.35l.04 3.32.03 4.34.01.57.02 1.3v.41l.01 5.04.01 1.78z" fill="#245675"/><path opacity=".15" d="M106.35 107.98l-.3.06-2.62.52c-.02 0-.03.01-.04.01-.23.04-.46.03-.67-.03l-.1-.03c-.65-.21-1.13-.81-1.12-1.54l.02-2.51.01-5.04v-.41l.01-1.31.04-8.51c0-.14 0-.29.03-.43l-.59-11.52v-.05h-.26l-.01.13-.58 11.45v.01c.02.14.03.27.03.41l.04 8.51.01 1.31.01.41.01 5.04.01 2.51a1.6 1.6 0 01-1.12 1.54c-.14.05-.28.07-.47.08h-.02c-.09 0-.18-.01-.28-.02-.02 0-.02 0-.04-.01l-2.63-.52-.06-.01c.03-.01.05-.02.08-.03.69-.28 1.33-.64 1.86-1.13.26-.24.5-.51.7-.82.03-.04.05-.08.08-.12.07-.13.15-.26.21-.39.48-1.06.53-4.6.57-5.78.06-1.93.11-5.53.17-7.46.02-.48.02-.98-.12-1.43-.03-.09-.06-.18-.11-.27-.25-.52-.73-.64-2.04-.8 2.58-.12 2.57-2.45 2.54-3.28 0-.13-.01-.24 0-.32.1-2.12.05-4.24.31-6.34.11-.82.03-2.25-.23-2.71-.27-.47-.75-.79-1.47-1.05a17 17 0 002.61.31c.06 0 .11 0 .17.01.93 0 1.68-.13 2.58-.32a3 3 0 00-.77.86c-.54.93-.66 2.98-.7 4.09-.05 1.59-.04 3.18.02 4.76.01.26 0 .55 0 .84.01 1.01.24 2.9 2.51 3.14-.32.06-1.57.03-2.17.91-.19.27-.31.65-.32 1.13-.06 2.47.14 6.6.22 9.07.02.95.07 4.27.54 5.1.02.04.05.08.07.12.18.29.41.54.67.75.45.38.99.65 1.56.83.28.09.58.16.87.22.06.02.17.05.28.06z" fill="#000006"/><path d="M107.42 69.46c-.04.13-.12.26-.22.37-.52.6-1.77 1.01-3.3 1.23-.37.06-.76.1-1.17.13-.41.04-.83.06-1.26.07-.36.01-.71.01-1.07.01-2.41-.03-4.78-.39-5.9-1.03-.4-.23-.64-.49-.67-.78-.04-.47.24-3.86.6-7.78.52-5.6 1.17-12.26 1.2-12.96.69.4.89.08 2.38-.2h5.3c.5.11 1 .34 1.58.27-.02.71 1.36 9.98 2.09 15.88.32 2.49.51 4.38.44 4.79z" fill="#808285"/><path opacity=".15" d="M98.46 72.27c-.76-.13-2.4-.2-3.01.27-.34.26-1.03 4.63-1.29 5.33 0 0 .14-2.83.13-2.83l.22-4.8c-.4-.23-.64-.49-.67-.78-.05-.47.24-3.87.6-7.78 1.54-3.77 2.56-7.76 3.02-11.8.89 3.98 1.79 8.02 1.73 12.1-.02 1.74.36 3.5.2 5.23-.35 3.68 1.13 4.04 1.01 4.05-2.05.23-3.24.19-4.78.14.23.33 2.27.29 2.84.87zm8.96-2.81c-.04.13-.12.26-.22.37l.32 6.49c-.49-3.42-1.04-4.73-1.33-4.87-.74-.37-2.25-.18-3.07-.29 1.2-.45 1.72-1.17 1.74-1.37-.74 0-1.26.6-2 .59-.08-2.26-.36-5.12-.45-7.39-.03-.97-.07-1.95-.02-2.92.07-1.24.27-2.47.47-3.7.21-1.28.42-2.56.63-3.85.9 1.18 1.4 2.62 1.75 4.06.59 2.36.86 4.78 1.46 7.13.08.32.17.64.26.96.34 2.49.53 4.38.46 4.79z" fill="#131718"/><path d="M112.89 41.96c.47-1.12 2.34-5.42 2.25-6.5.83.53 1.58.74 2.74.74 0 0-1.22 7.86-1.6 9.45-1.57-.28-3.01-.81-4.41-1.43.38-.75.69-1.46 1.02-2.26z" fill="#F8D3A5"/><path d="M116.28 45.64c-.05.18-.09.36-.14.55-.02.1-.05.2-.08.3-.07.26-.15.52-.24.77-.13.41-.28.8-.48 1.18-.03.08-.08.16-.12.24-.33.57-.76 1.09-1.22 1.57-.09.09-.19.18-.28.27 0 .01-.01.01-.01.01-.12.12-.25.24-.38.35-1.08.98-3.37 2.69-3.37 2.69l-.01.01c-1.28.95-1.21 2.89-1.55 4.45v.01l-.03.15c-.1.01-.28.02-.49.02-.47 0-1.09-.01-1.24-.01-2.6-2.6-1.9-6.11-1.42-9.42.42.1 1.34-.15 1.34-.15.49-.09 1.1-.45 1.12-.45 1.75-.93 2.85-1.58 3.83-3.29.08-.14.15-.28.23-.41.05-.09.1-.19.15-.28.4.18.8.35 1.21.51v.01c1.01.39 2.06.72 3.18.92z" fill="#808285"/><path d="M116.79 44.67v.07c0 .09.03.18.04.27.02.18-.02.35-.1.52-.09.19-.23.38-.38.54-.05.06-.13.1-.21.12h-.07c-.59-.04-1.18-.1-1.75-.25-.53-.14-1.03-.35-1.48-.67-.31-.22-.61-.5-.95-.65a.523.523 0 01-.17-.12.508.508 0 01-.12-.4c.03-.2.05-.42.15-.6 0-.01.01-.02.02-.02.04-.07.1-.13.14-.2.05-.08.08-.17.1-.26.03-.12.04-.25.07-.37.02-.12.13-.28.26-.39.12-.11.3-.12.44-.04.02.01.05.03.07.05.75.65 1.56 1.14 2.56 1.25.46.05.86-.06 1.23.07.1.04.19.08.29.15.01.12-.01.25-.03.39-.04.17-.1.38-.11.54z" fill="#6D6E71"/><path d="M89.27 44.2c-1.39.63-2.84 1.15-4.4 1.43-.15-.62-.36-2.03-.57-3.51-.32-2.32-.76-5.45-.76-5.45l2.42-.77c.07.12.15.48.23.67l.01.01c.64 1.38 1.65 4.38 2.05 5.37.34.81.65 1.52 1.02 2.25z" fill="#F8D3A5"/><path d="M94.51 58.21c-.12 0-.51.01-.91.01-.34 0-.67-.01-.82-.02-.01-.05-.02-.11-.03-.15-.35-1.56-.27-3.51-1.55-4.46h-.01c-.14-.11-1.8-1.35-2.92-2.29l-.04-.04c-.15-.13-.29-.25-.41-.36-.12-.11-.26-.23-.38-.35-.01 0-.01 0-.01-.01-.36-.34-.7-.7-1-1.09-.19-.24-.36-.49-.51-.75-.25-.45-.44-.93-.6-1.42-.09-.26-.16-.52-.24-.77-.03-.1-.05-.2-.08-.3-.04-.13-.07-.26-.1-.4-.02-.05-.03-.1-.04-.15.18-.03.36-.07.54-.11.54-.12 1.07-.26 1.58-.43.11-.03.21-.07.32-.1.12-.04.24-.08.36-.13.02 0 .03-.01.05-.02.17-.06.33-.13.5-.19.17-.07.35-.14.53-.22.1-.04.2-.09.3-.13.07-.03.15-.06.23-.1.05.1.11.2.16.31.06.11.12.21.18.32.01.02.03.05.04.07.98 1.72 2.27 2.4 4.02 3.33 0 0 0-.01.01-.02.72.39 1.47.57 2.26.58.48 3.29 1.17 6.79-1.43 9.39z" fill="#808285"/><path d="M86.13 35.71s-.12.14-.37.4c0 0-2.17.73-2.22.57-.35-.96-1.03-.61-1.34-2.2-.05-.28-.67-1.44-.15-2.46 1.29.49 3.69-.58 4.36.03.29 2.24.2 2.5-.28 3.66z" fill="#E5C399"/><path d="M98.58 69.04c-2.98-.2-5.51-.8-5.61-1.73-.14-1.3-.08-2.68-.02-4.05v-.02c.07-1.48.14-2.97-.05-4.36-.03-.23-.07-.45-.12-.67.29-.04.55-.15.78-.33 1.76-1.34 1.66-6.29 1.24-9.23.17 0 1.48.14 1.66.13.38-.02.77-.08 1.18-.17 1.54 6.6.89 20.01.94 20.43zm9.77-2.1c-.02.12-.05.24-.07.37-.01.03-.02.06-.04.08-.35.7-1.7 1.17-3.46 1.44-.44.07-.9.12-1.38.17-.82-6.82-1.01-13.63.12-20.44.47.11.93.19 1.38.23.28.02.74-.02 1.14-.07.2-.02.38-.05.52-.07.08 1.72-.86 7.63 1.33 9.14.16.11.33.19.52.25.01 0 .02.01.03.01.2 2.88.63 5.05-.09 8.89z" fill="#000A26"/><path d="M97.98 46.43l.02.82v.01l.01.87.01.39c.33 3.24 4.71 3.33 5.3 0l.01-.34.03-.87.02-.72-5.4-.16z" fill="#EFC094"/><path d="M100.63 36.96c2.41-.01 4.34 1.58 4.16 4.44-.02.33-.06.65-.12.98.54-.3 1.01.23.82 1.04-.13.57-.41 1.34-.73 1.46-.38.14-.5-.1-.52-.11-.17.83-.24 1.57-.53 2-.35.52-.62.91-.87 1.2-.57.67-1.04.83-2.12.84h-.02c-1.08.01-1.56-.15-2.13-.81-.26-.29-.53-.68-.88-1.19-.3-.43-.38-1.17-.56-2-.02.01-.14.25-.52.11-.32-.11-.61-.88-.75-1.45-.2-.81.26-1.35.81-1.05-.07-.33-.11-.65-.14-.98-.22-2.85 1.69-4.46 4.1-4.48z" fill="#F8D3A5"/><path d="M104.11 37.79c.93 1.08 1.22 2.28.86 4.51-.36.2-.56.47-.69 1.58-.26.08-.38.09-.62.17 1.44-5.89-.84-5.99-1.47-6.12-.51-.1-2.59-.08-3.1.02-.62.13-2.9.26-1.39 6.13-.24-.08-.35-.09-.62-.17-.15-1.1-.35-1.37-.71-1.57-.39-2.22 0-3.34.8-4.52 1.1-1.63 5.28-1.96 6.94-.03z" fill="#5A4840"/><path opacity=".15" d="M98.58 69.04c-2.98-.2-5.51-.8-5.61-1.73-.14-1.3-.08-2.68-.02-4.05v-.02c.07-1.48.14-2.97-.05-4.36-.03-.23-.07-.45-.12-.67l-.03-.15c-.35-1.56-.27-3.51-1.55-4.46h-.01c-.14-.11-1.8-1.35-2.92-2.29l-.04-.04c-.13-.12-.26-.24-.4-.36-.13-.12-.25-.23-.38-.36 1.24.92 2.63 1.64 4.09 2.11.05.02.1.03.15.05.52.17 1.05.3 1.58.4.04.73.07 1.45.1 2.18.04.86.08 1.74.18 2.6.01.12.02.23.04.35.13 1.08.37 2.15.79 3.15.78 1.83 1.82 5.19 3.44 6.54-1.24-.14-2.65-2-3.46-3.35 1.02 2.32 1.33 3.83 4.22 4.46zm15.43-18.79l-.28.28c0 .01-.01.01-.01.01-.12.12-.25.24-.38.35-1.08.98-3.37 2.7-3.37 2.69l-.01.01c-1.28.95-1.21 2.89-1.55 4.45.01 0 .02.01.03.01.2 2.89.64 5.05-.09 8.89-.02.12-.05.24-.07.37-.01.03-.02.06-.04.09-.35.7-1.7 1.17-3.46 1.44 1.48-1.4 2.75-3.54 3.05-4.36.38-1.06.3-2.21.21-3.33-.06-.78-.15-1.84-.16-2.93v-.44c.02-1.21.16-2.44.57-3.38-.5.12-1.13.54-1.63.66 1.13-1.15 4.5-3 7.19-4.81z" fill="#131718"/><path d="M101.25 37.1c-.7-.04-1.41-.05-2.09.1-.68.16-1.34.52-1.73 1.1-.36.54-.46 1.21-.44 1.86.01.65.13 1.29.14 1.94 1.17.06 2.38-.17 3.35-.85.96-.67 1.63-1.82 1.54-2.98.15.81.48 1.59.94 2.27.4.58.89 1.08 1.38 1.57.09-.86.17-1.75 0-2.6-.17-.85-.65-1.69-1.43-2.08-.5-.26-1.09-.3-1.66-.33z" fill="#5A4840"/><path d="M102.64 38.56c.07.94-.35 1.87-.97 2.57-.62.7-1.44 1.21-2.28 1.64.28-.72.57-1.43.85-2.15.24-.62.49-1.23.74-1.85.12-.29.24-.58.47-.8.23-.21.58-.32.85-.17.18.1.3.3.34.51.04.2.03.42.01.63l-.01-.38zm-5.08 1.25c.42-.4.85-.81 1.16-1.3.31-.5.49-1.1.36-1.67-1.07.05-1.99.82-2.52 1.75s-.73 2-.93 3.05c.65-.61 1.29-1.22 1.93-1.83z" fill="#5A4840"/><path d="M95.63 39.62a17.58 17.58 0 005.33-2.68c-.11-.43-.53-.72-.96-.8-.43-.07-.88.05-1.28.23-1.37.65-2.27 1.98-3.09 3.25z" fill="#5A4840"/><path d="M104.64 37.91c.34.73.51 1.59 1.13 2.1-.99-.17-1.7-1.01-2.46-1.67-.96-.82-2.12-1.4-3.35-1.66.61-.74 1.71-.99 2.63-.7.92.3 1.65 1.06 2.05 1.93z" fill="#5A4840"/><path d="M104.08 37.97c.61.46 1.05 1.12 1.25 1.86.19.74.13 1.54-.17 2.23a8.226 8.226 0 01-1.08-4.09zm-4.41-2.07c-.44.04-.88.09-1.33.14.25.17.49.34.74.51.32.22.66.45 1.05.47.18.01.38-.03.52-.14.15-.11.24-.3.21-.48a.57.57 0 00-.27-.37c-.27-.18-.6-.16-.92-.13z" fill="#5A4840"/><path d="M100.78 36.21c-.07.23-.11.47-.26.66-.15.19-.44.29-.63.15.06-.82.64-1.57 1.42-1.85-.24.31-.42.67-.53 1.04z" fill="#5A4840"/><path d="M100.71 36.49c-.12-.25-.26-.51-.46-.71-.2-.2-.46-.35-.74-.36.34.29.61.66.76 1.08.04.11.07.22.15.3.08.08.23.1.3.02.08-.09.04-.22-.01-.33z" fill="#5A4840"/><path d="M89.43 44.51c-.04.04-.07.06-.12.08-.37.15-.68.45-1.01.68-.94.67-2.14.86-3.29.92-.03 0-.07.01-.1.01-.14-.15-.28-.31-.38-.49-.14-.21-.22-.43-.2-.68v-.02c.01-.12.05-.23.04-.34 0-.05-.01-.12-.03-.19-.04-.26-.12-.59-.1-.81.01-.12.11-.17.26-.19.31-.04.85.07 1.25.03 1.09-.12 1.79-.6 2.6-1.35.19-.17.43-.09.48.12.02.09.08.26.15.43.09.22.2.45.26.56.05.08.11.14.16.22.08.13.11.28.13.43l.03.21c.02.14-.03.29-.13.38z" fill="#6D6E71"/><path opacity=".15" d="M89.61 44.83c-.86.81-2.06 1.21-3 1.94-.11.08-.2.16-.27.27-.08.12-.13.25-.16.39-.08.4 0 .82.08 1.22.05.26.1.53.17.79-.19-.24-.36-.49-.51-.75-.25-.45-.44-.93-.6-1.43-.09-.26-.16-.52-.24-.77-.03-.1-.05-.2-.08-.3-.03 0-.07.01-.1.01-.14-.15-.28-.31-.38-.48.13.02.25.05.38.08a2.579 2.579 0 001.85-.28c.26-.15.49-.35.74-.53.05-.04.11-.08.17-.12.43-.31.88-.57 1.35-.79.04-.02.09-.04.13-.04.01 0 .02 0 .04-.01.07-.02.2-.06.34-.11l.03.2c.02.14-.02.29-.12.38.06.12.12.22.18.33zm-1.59-1.22c-.24.51-.71.89-1.23 1.11-.51.22-1.09.28-1.65.28h-.41c-.14 0-.28.01-.41.03v-.02c.01-.12.05-.23.04-.34 0-.05-.01-.12-.03-.18.1-.01.21-.02.31-.02.57-.01 1.16.12 1.73.01.62-.13 1.15-.5 1.65-.87zm1.22-.34c-.13.02-.26.04-.39.05-.58.04-1.17.01-1.68.29.47-.29.96-.55 1.47-.76.08-.04.15-.07.23-.1.03-.01.07-.03.1-.04.09.22.2.45.27.56-.01 0-.01 0 0 0zm27.49 2.25c-.09.19-.23.38-.38.54-.05.06-.13.1-.21.12-.02.1-.05.2-.08.3-.07.26-.15.52-.24.77-.13.41-.28.81-.48 1.19-.05-.2-.08-.41-.1-.61-.03-.27-.05-.56-.15-.82-.07-.18-.18-.33-.29-.49a10.897 10.897 0 00-1.71-1.82c-.09-.08-.18-.15-.28-.23.68.2 1.36.4 2.03.59a7.83 7.83 0 01-1.13-1.1c.83.54 1.72 1 2.63 1.39.13.07.26.12.39.17zm-3.59-1.61c-.31-.1-.61-.21-.91-.32-.02-.01-.03-.01-.04-.02-.14-.05-.27-.09-.41-.11.04-.07.1-.13.14-.2.05-.08.08-.17.1-.26.11.07.22.15.32.23.28.22.55.44.8.68zm3.76.2c-.04.19-.09.39-.11.55v.07c-.1-.05-.21-.09-.31-.14-.57-.26-1.13-.51-1.69-.77.26.1.54.17.82.17.14.01.29 0 .43 0 .18 0 .36.02.53.05.11.03.22.05.33.07z" fill="#131718"/><path d="M82.56 33.47c.13.25.42.36.65.24.23-.12.31-.42.18-.67l-.5-.98c-.13-.25-.42-.36-.65-.24-.23.12-.31.42-.19.67l.51.98zm1.89-.83c.15.3.5.43.78.29s.38-.5.22-.8l-.6-1.18c-.15-.3-.5-.43-.78-.29s-.38.5-.22.8l.6 1.18z" fill="#F8D3A5"/><path d="M83.44 33.15c.15.3.5.43.78.29s.38-.5.22-.8l-.6-1.18c-.15-.3-.5-.43-.78-.29s-.38.5-.22.8l.6 1.18zm2.03-.99a.565.565 0 101.01-.51l-.56-1.09a.553.553 0 00-.76-.24c-.28.14-.39.48-.25.76l.56 1.08z" fill="#F8D3A5"/><path d="M100.67 45.48c-1.67-.05-1.76 1.07-2.32.41-.38-.44-.59-1.46-.72-2.06-.43.05-.56.09-.55.09.05.9.29 2.53.51 3.01.31.65.63 1 .89 1.29.57.65 1.13.85 2.19.84 1.06 0 1.62-.19 2.19-.84.26-.29.55-.63.89-1.29.24-.47.48-2.15.52-3.06 0 0-.13.01-.57-.04-.13.6-.34 1.62-.72 2.06-.54.66-.63-.45-2.31-.41z" fill="#4C7889"/><path d="M100.67 45.48c-1.67-.05-1.76 1.07-2.32.41-.38-.44-.59-1.46-.72-2.06-.43.05-.56.09-.55.09.05.9.29 2.53.51 3.01.31.65.63 1 .89 1.29.57.65 1.13.85 2.19.84 1.06 0 1.62-.19 2.19-.84.26-.29.55-.63.89-1.29.24-.47.48-2.15.52-3.06 0 0-.13.01-.57-.04-.13.6-.34 1.62-.72 2.06-.54.66-.63-.45-2.31-.41z" fill="#5A4840"/><path d="M100.67 46.07h-.14c-.29.04-.56.04-.82.18-.21.1-.41.25-.49.47-.07.2-.02.44.12.61.13.17.33.28.54.34.08.02.16.04.24.03.08-.01.13-.08.17-.15.1-.15 0-.39.14-.51.06-.05.17-.03.25-.04.08.01.19-.01.25.04.14.12.04.36.14.51.04.07.09.14.17.15.08.01.16-.01.24-.03.21-.06.4-.17.53-.34s.19-.41.12-.61c-.08-.22-.28-.37-.49-.47-.26-.13-.53-.14-.82-.18h-.15zM86.85 34.35c-.11.66-.57 1.2-1 1.7-.43.21-.99-.07-1.19-.5-.2-.44-.09-.96.18-1.36.11-.17.26-.32.38-.47.12-.14.23-.29.31-.47.14-.33.12-.69.14-1.04 0-.02 0-.04.01-.07.03-.33.1-.68.35-.9.01 0 .01-.01.02-.01.04-.04.09-.07.15-.09.27-.12.62-.06.73.2.11.25-.03.52-.1.79-.2.71.14 1.48.02 2.22z" fill="#F8D3A5"/><path d="M27.41 12.07h-2.95v2h2.57v1.39h-2.57v2.14h3.15v1.42h-5.13v-8.36h5.13l-.2 1.41zm7.87 6.95h-2.52l-2.41-6.48c.1.76.25 1.87.25 3.42v3.07h-1.76v-8.36h2.46l2.47 6.49c-.11-.68-.27-1.77-.27-3.11v-3.38h1.77v8.35h.01zm8.71-4.19c0 2.74-1.41 4.39-3.78 4.39-2.35 0-3.77-1.6-3.77-4.39 0-2.73 1.41-4.38 3.77-4.38 2.37 0 3.78 1.59 3.78 4.38zm-5.46 0c0 2.12.6 2.94 1.69 2.94 1.13 0 1.7-.82 1.7-2.94 0-2.11-.58-2.93-1.7-2.93-1.11 0-1.69.82-1.69 2.93zm13.05 1.41c0 1.69-1.09 2.98-3.27 2.98-2.18 0-3.26-1.22-3.26-2.98v-5.59h1.98v5.5c0 1.07.39 1.59 1.28 1.59.91 0 1.29-.52 1.29-1.59v-5.5h1.98v5.59zm7.86-4.76l-1 1.05c-.57-.43-1.03-.64-1.7-.64-1.17 0-2.04.87-2.04 2.95 0 2.2.58 2.94 1.74 2.94.41 0 .78-.08 1.13-.28v-1.89h-1.09l-.19-1.4h3.2v4.14c-.87.56-1.96.88-3.01.88-2.56 0-3.84-1.53-3.84-4.39 0-2.84 1.76-4.38 4.01-4.38 1.22-.01 2.1.41 2.79 1.02zm5.86 3.96h-2.51v3.58h-1.98v-8.36h1.98v3.23h2.51v-3.23h1.98v8.36H65.3v-3.58zm12.6-2.06c0 1.94-1.38 2.85-3.31 2.85h-.91v2.79H71.7v-8.36h2.7c2.17 0 3.5.89 3.5 2.72zm-2.04 0c0-.89-.5-1.32-1.47-1.32h-.7v2.74h.74c.89.01 1.43-.37 1.43-1.42zm7.06 3.84h-2.44l-.42 1.8h-2.05l2.52-8.36h2.4l2.52 8.36h-2.1l-.43-1.8zm-.34-1.43l-.88-3.69-.88 3.69h1.76zm5.47 3.23h-1.98v-8.36h1.98v8.36zm8 0h-2.52l-2.41-6.48c.1.76.25 1.87.25 3.42v3.07H89.6v-8.36h2.46l2.47 6.49c-.11-.68-.27-1.77-.27-3.11v-3.38h1.77v8.35h.02zm3.32-.89a1.095 1.095 0 11-2.19.01 1.095 1.095 0 012.19-.01zm-.33-2.19H97.5l-.24-5.29h2.03l-.25 5.29zM22.69 78.96H21l-.13-2.85c-.05-1.02-.07-2.07-.02-2.97l-1.12 5.05H18.1l-1.2-5.05c.07 1.07.07 1.97.03 2.99l-.13 2.82h-1.68l.55-7.27h2.17l1.09 4.93 1.02-4.93h2.18l.56 7.28zm7.8-3.65c0 2.38-1.23 3.82-3.29 3.82-2.05 0-3.28-1.4-3.28-3.82 0-2.37 1.23-3.81 3.28-3.81 2.06 0 3.29 1.39 3.29 3.81zm-4.76 0c0 1.85.52 2.56 1.47 2.56.99 0 1.48-.71 1.48-2.56 0-1.84-.5-2.55-1.48-2.55-.96 0-1.47.72-1.47 2.55zm8.18.86h-.67v2.78h-1.72v-7.27h2.38c1.97 0 2.99.7 2.99 2.21 0 .96-.45 1.53-1.4 1.96l1.85 3.1H35.4l-1.49-2.78zm-.67-1.18h.72c.76 0 1.15-.33 1.15-1.09 0-.7-.41-1.01-1.26-1.01h-.62v2.1h.01zm9.04-2.08h-2.56v1.74h2.24v1.21h-2.24v1.86h2.74v1.24H38v-7.27h4.46l-.18 1.22zM20.77 83.02c0 1.69-1.2 2.48-2.88 2.48h-.79v2.42h-1.72v-7.28h2.35c1.88.01 3.04.79 3.04 2.38zm-1.77 0c0-.78-.43-1.14-1.28-1.14h-.61v2.38h.64c.77 0 1.25-.32 1.25-1.24zm6.14 3.34h-2.12l-.37 1.56h-1.79l2.19-7.28h2.09l2.19 7.28H25.5l-.36-1.56zm-.3-1.25l-.77-3.21-.77 3.21h1.54zm4.76 2.82h-1.72v-7.28h1.72v7.28zm6.96 0h-2.19l-2.1-5.64c.08.66.22 1.63.22 2.97v2.67h-1.53v-7.28h2.14l2.15 5.65c-.09-.59-.23-1.54-.23-2.71v-2.94h1.54v7.28zm2.89-.78c0 .52-.42.96-.96.96-.53 0-.95-.43-.95-.96 0-.51.42-.94.95-.94.54-.01.96.42.96.94zm-.28-1.9h-1.34l-.21-4.6h1.76l-.21 4.6zm-11.9-14.64H22.6l-4.47-12c.18 1.41.47 3.47.47 6.33v5.68h-3.26V55.11h4.56l4.58 12.03c-.2-1.25-.49-3.29-.49-5.77v-6.26h3.29v15.5h-.01zm14.71-7.76c0 5.07-2.62 8.14-7 8.14-4.36 0-6.97-2.97-6.97-8.14 0-5.05 2.62-8.11 6.97-8.11 4.39-.01 7 2.94 7 8.11zm-10.12 0c0 3.93 1.12 5.45 3.13 5.45 2.1 0 3.15-1.52 3.15-5.45 0-3.91-1.07-5.43-3.15-5.43-2.06 0-3.13 1.52-3.13 5.43z" fill="#245675"/></g><defs><clipPath id="clip0"><path fill="#fff" d="M0 0h120.92v132.1H0z"/></clipPath></defs></svg>