<svg width="149" height="126" fill="none" xmlns="http://www.w3.org/2000/svg"><g clip-path="url(#clip0)"><path fill-rule="evenodd" clip-rule="evenodd" d="M11.67 32.57l9.54 3.74c.86.24.88 1.76.71 2.81-.19 1.18-1.12 2.25-2.05 1.73l-8.61-4.78.41-3.5z" fill="#E7ECF7"/><path fill-rule="evenodd" clip-rule="evenodd" d="M8.05 31.69l3.13.65v3.54l-3.3-1.85.17-2.34z" fill="#A7A9AC"/><path fill-rule="evenodd" clip-rule="evenodd" d="M6.53 32.86l-.03-.04.94-.48c.06-.03.95-.14.95-.14l.03 1.07-.54.63-.8.63-.81-.17.26-1.5z" fill="#117A85"/><path fill-rule="evenodd" clip-rule="evenodd" d="M7.75 31.5c-.62-.29-.45-.32-1.06-.02-.76.05-.58-.04-.98.62-.49.3-.37.33-.5.9-.2.53-.21.73-.28 1.29-.07.62-.21.62.21 1.03l.76.75c.33.24.37.4.72.25.73.22.6-.36.51-.87.28-.41.25-.28.2-.77-.05-.45-.08-.89-.12-1.35.12-.18.22-.36.29-.47.3-.44.49-.04.39.62-.44.5-1.02 1.07-.15 1.57l.43-.51c.87-.41 1.34-.55 1.34-1.61-.19-.91-.52-1.28-1.76-1.43z" fill="#BCBEC0"/><path fill-rule="evenodd" clip-rule="evenodd" d="M8.64 31.8c-.14-.18-.67.2-.6.27.1.1-.09 1.02-.15 1.4-.44.5-1.02 1.07-.15 1.57l.43-.51c.87-.41 1.34-.55 1.34-1.61l-.87-1.12z" fill="#BCBEC0"/><path fill-rule="evenodd" clip-rule="evenodd" d="M27.64 29.35c-3-.06-9.09 7.84-8.44 11.28.79.42 2.32 1.1 2.56.75l3-4.08c-.01 0 2.77-7.95 2.88-7.95z" fill="#E7ECF7"/><path fill-rule="evenodd" clip-rule="evenodd" d="M29.05 28.75l-2.3 2.09 2.12 3.08 4.7-.49.9-5.65-.52-.8-3.7 1.65-1.2.12z" fill="#939598"/><path fill-rule="evenodd" clip-rule="evenodd" d="M33.65 26.61c-.43 1.52-2.81 2.65-4.01 3.66-.81-1.7-.84-4.39-.61-6.83l4.79-1.45c-.11 1.98-.25 3.18-.17 4.62z" fill="#ECBB7C"/><path fill-rule="evenodd" clip-rule="evenodd" d="M25.88 23.52c.2.58-.41.73.13 1.25-.27.59.18.47.25.89.07.4-.32.92.49 1.37.86.47 4.08-.64 4.67-1.11.38-.31.32-.55.38-.98.4.02.5-.29.86-.56.76-.56 1.39-1.64.32-2.12.35-2.06.05-3.09-.79-4.07-.99-1.15-3.03-1.97-5.21.57-.38.45-.79 1.06-.78 1.65 0 .26.23.38.16.72-.32 1.41-2.05 1.88-.48 2.39z" fill="#FFD6A1"/><path fill-rule="evenodd" clip-rule="evenodd" d="M30.37 19.19c-.85-1-2.89-.02-3.59-.23-.2-.16-.1-1.54 1.74-2.69.85-.52 2.28-.82 3.92-.39-.29-.2-.54-.2-.98-.32 1.15.08 2.2.48 2.73 1.52.94.59.97.93 1.45 1.9-.2-.21-.21-.29-.46-.46.67.94.78 2.43.19 3.77-.36.83-1.36 2.06-1.73 2.93-.53-.32-.73-.65-.81-.97.67-.59 1.14-1.54.15-1.98-.5-.05-.66.16-1.01.53-.22.42-.45.72-.84.88-.09-1.01-.28-1.2-1.02-1.83-.32-.27-.46-.51-.02-1.55l-.29.44c.29-.85.73-.74.57-1.55z" fill="#5C210A"/><path fill-rule="evenodd" clip-rule="evenodd" d="M17.35 100.71c1.85 1.12 4.77.19 6.62.01.63.41 1.64.13 2.02.05.84-.17.67-2.23.43-3.47-.2-1-.01-1.77.01-2.87l-3.51-.9c.16 1.8.34 2.43-.12 3.2-.95 1.58-3 1.7-4.37 1.75-2.17.09-2.31 1.49-1.08 2.23z" fill="#03050C"/><path fill-rule="evenodd" clip-rule="evenodd" d="M29.27 60.33c.66-2.62.81-3.62.5-5.34-.38-2.15-5.78-7.37-6.76-9.26l-1.95 11.82-.23 15.24 1.37 24 4.87.51 1.05-17.32-1.39-7.04c.33-3.58 1.81-9.69 2.54-12.61z" fill="#4F6B88"/><path fill-rule="evenodd" clip-rule="evenodd" d="M21.7 100.93c1.85 1.08 4.77.08 6.62-.14.63.4 1.64.09 2.02 0 .84-.19.67-2.25.43-3.48-.2-.99-.01-1.78.01-2.87l-3.51-.81c.16 1.8.34 2.42-.12 3.2-.95 1.61-3 1.77-4.37 1.86-2.16.13-2.3 1.52-1.08 2.24z" fill="#15151A"/><path fill-rule="evenodd" clip-rule="evenodd" d="M32.06 60.33c.56-2.62.67-3.62.3-5.34-.46-2.15-1.23-3.45-2.27-5.34l-7.27 1.95-.22 6.2.78 2.34.67 12.74 1.88 24.52 5.44.51.3-17.92-.82-7.23c.16-3.59.58-9.51 1.21-12.43z" fill="#245675"/><path fill-rule="evenodd" clip-rule="evenodd" d="M19.7 22.14c.03.19 1.65 1.59 1.65 1.59l-1.59 3.61-1.42-2.5 1.36-2.7z" fill="#ECBB7C"/><path fill-rule="evenodd" clip-rule="evenodd" d="M34.32 27.47l.19.22c2.62 3.1 3.05 6.2 1.47 10.57-1.1 3.04-2.48 5.5-2.89 8.55-.5 3.7.1 6.37.08 8.98l-1.14 16.23c-3.3-.2-6.26-.22-8.56-.69l-.97-15.64-.18-10.68c.27-1.6 1.72-3.43 1.92-5.2.7-6.28 5.97-6.64 10.08-12.34z" fill="#E7ECF7"/><path fill-rule="evenodd" clip-rule="evenodd" d="M21.93 70.79c-.85-.18-1.18-.16-2.26-.39.23-9.26-.11-16.79 1.24-24.94.87-5.25 1.69-12.28 6.4-15.39-.55 2.82-1.4 4.9-1.6 5.49-3.87 11.38-3.08 18.95-3.78 35.23z" fill="#D5DCE6"/><path fill-rule="evenodd" clip-rule="evenodd" d="M28.88 28.7c.07 1.28.02 1.82.05 2.68 1.18-.96 4.31-2.25 5.32-4.18-.13-.35-.32-.77-.51-1.2-.54.85-3.22 1.92-4.86 2.7z" fill="#A7A9AC"/><path fill-rule="evenodd" clip-rule="evenodd" d="M34.59 29.76c-2.07-.21-3.71.05-6.81-.21-2.6-2.24-4.4-4.16-6.64-6.4l-2.19 3.47c1.65 2.8 2.94 4.64 5.4 7.78 2.72.95 5.85 1.8 8.87 2.05 3.51.29 3.98-1.72 3.89-3.62-.08-1.85-1.01-2.92-2.52-3.07z" fill="#F2F5F9"/><path fill-rule="evenodd" clip-rule="evenodd" d="M15.8 17.71c-.15.08-.23.13-.35.26-.09.1-.38.4-.45.53-.36.18-.51.61-.39.97.25.49.07.72.35 1.39.4.95.7 1.1 1.26 1.48l2.17 2.6c.8-.66 1.33-1.75 1.87-2.65-.46-.35-1.62-1.09-1.89-1.56-.3-.55-.49-1.13-.57-1.6-.09-.48-.31-1.14-.48-1.45-.13-.25-.35-.38-.58-.61-.24-.24-.5-.58-.93-1.02-.85-.85-1.25-1.29-1.47-1.16-.17.1-.23.6.43 1.48l1.03 1.34z" fill="#BCBEC0"/><path d="M7.28 34.12l.21-.28.42.15c0 .78-.07 5.19.12 5.82.21.67.34.51.57.95.33.63.03 1.64-.29 1.9-.31.26-1.05.47-1.48.03-.43-.44-.88-.46-1.01-.75-.14-.29.11-1.56.29-2.02.18-.46.42-5.03.39-5.89v-.14l.78.23z" fill="#E4DCB7"/><path opacity=".3" d="M7.84 42.59c-.16.13-.39.25-.65.32.4.12.88-.05 1.12-.25.32-.26.62-1.27.29-1.9-.11-.21-.2-.28-.28-.38.24.82-.11 1.9-.48 2.21z" fill="#DBDAAE"/><path opacity=".4" d="M7.25 42.46c-.39-.41-.8-.43-.93-.7-.12-.27.1-1.45.27-1.88.17-.43-.19-.42-.35.01-.17.42-.39 1.61-.27 1.88.12.27.54.29.93.7.22.23.52.27.8.22a.848.848 0 01-.45-.23z" fill="#fff"/><path d="M8.08 24.79c.33.36.75.8.66 1.16-.09.36-.38.69-.58 1.36-.22.74-.25 5.33-.25 6.46l-.58-.2-.21.29-.62-.19c-.07-1.42-.31-4.11-.56-5.18-.28-1.22-.63-2.4-.64-2.79-.01-.39.08-.94.56-.85.48.09.96.13 1.14-.09.19-.22.93-.13 1.08.03z" fill="#E4DCB7"/><path opacity=".3" d="M7.01 24.75l-.02.02c.19.04.35.1.43.18.49.52 1.08 1.15 1.02 1.68.13-.27.26-.48.32-.69.09-.36-.33-.8-.66-1.16-.17-.15-.91-.24-1.09-.03z" fill="#DBDAAE"/><path opacity=".4" d="M6.46 28.64c-.24-1.16-.52-2.29-.53-2.66-.01-.29.04-.67.25-.78-.04-.01-.07-.01-.11-.02-.4-.08-.47.44-.46.81.01.37.29 1.49.53 2.65.21 1.03.53 1.03.32 0z" fill="#fff"/><path opacity=".3" d="M7.7 30.64v6.27c0 .21-.17.39-.39.39h-.1a.39.39 0 01-.39-.39v-6.27c0-.21.17-.39.39-.39h.1c.22 0 .39.18.39.39z" fill="#000"/><path d="M7.62 30.72v6.27c0 .21-.17.39-.39.39h-.1a.39.39 0 01-.39-.39v-6.27c0-.21.17-.39.39-.39h.1c.22 0 .39.17.39.39z" fill="#B2B5B8"/><path opacity=".3" d="M6.75 30.72v6.27c0 .21.17.39.39.39h.08a.39.39 0 01-.39-.39v-6.27c0-.21.17-.39.39-.39h-.08a.39.39 0 00-.39.39z" fill="#fff"/><path opacity=".4" d="M7.19 36.13c.18 0 .33.15.33.33 0 .18-.15.33-.33.33-.18 0-.33-.15-.33-.33 0-.18.15-.33.33-.33z" fill="#000"/><path d="M7.19 36.15a.303.303 0 01.3.3c0 .03 0 .05-.01.08a.3.3 0 01-.58.01c-.01-.03-.01-.05-.01-.08s0-.05.01-.08a.3.3 0 01.29-.23z" fill="#8F9691"/><path d="M6.9 36.38h.58c.01.02.01.05.01.08v.04c0 .01 0 .03-.01.04H6.9c0-.02-.01-.03-.01-.04v-.04c0-.03 0-.06.01-.08z" fill="#787C7D"/><path d="M6.89 36.49h.59c0 .02 0 .03-.01.04h-.58v-.04z" fill="#5C5F60"/><path opacity=".3" d="M7.23 36.72c-.17 0-.3-.13-.3-.3 0-.07.03-.14.07-.19a.299.299 0 10.42.42c-.06.04-.12.07-.19.07z" fill="#fff"/><path opacity=".4" d="M6.96 34.8a.32.32 0 01.46 0c.13.13.13.33 0 .46a.32.32 0 01-.46 0 .32.32 0 010-.46z" fill="#000"/><path d="M6.97 34.81c.1-.1.25-.11.36-.05.02.01.04.03.06.05.02.02.04.04.05.07.08.12.06.26-.04.36-.1.1-.25.11-.36.05-.02-.01-.05-.03-.06-.05-.02-.02-.04-.04-.05-.06a.318.318 0 01.04-.37z" fill="#8F9691"/><path d="M6.93 35.18l.41-.41c.02.01.04.03.06.05.01.01.02.02.02.03l.03.03-.41.41c-.01-.01-.02-.01-.04-.02-.01-.01-.02-.02-.03-.02a.574.574 0 01-.04-.07z" fill="#787C7D"/><path d="M7 35.26l.42-.42c.01.01.02.02.02.03l-.41.41s-.02 0-.03-.02z" fill="#5C5F60"/><path opacity=".3" d="M7.23 35.29c-.17 0-.3-.13-.3-.3 0-.07.03-.14.07-.19-.07.05-.11.13-.11.23a.299.299 0 00.53.19c-.05.04-.12.07-.19.07z" fill="#fff"/><path opacity=".4" d="M7.35 32.46c.16.09.21.29.12.45-.09.16-.29.21-.45.12a.327.327 0 01-.12-.45c.1-.16.3-.21.45-.12z" fill="#000"/><path d="M7.34 32.48c.12.07.18.21.14.34-.01.02-.01.05-.03.07-.01.02-.03.04-.05.06-.1.1-.24.12-.36.05a.296.296 0 01-.14-.34c.01-.03.02-.05.03-.07.01-.02.03-.05.05-.06.09-.1.24-.12.36-.05z" fill="#8F9691"/><path d="M6.98 32.53l.5.29c-.01.02-.01.05-.03.07-.01.01-.01.02-.02.03l-.03.03-.5-.29c0-.02.01-.03.01-.04 0-.01.01-.02.02-.04a.12.12 0 01.05-.05z" fill="#787C7D"/><path d="M6.91 32.62l.51.3-.03.03-.5-.29c.01-.01.01-.02.02-.04z" fill="#5C5F60"/><path opacity=".3" d="M7.23 33c-.17 0-.3-.13-.3-.3 0-.07.03-.14.07-.19-.07.05-.11.13-.11.23a.299.299 0 00.53.19c-.05.04-.12.07-.19.07z" fill="#fff"/><path opacity=".4" d="M6.9 31.15c.09-.16.29-.21.45-.12.16.09.21.29.12.45-.09.16-.29.21-.45.12a.336.336 0 01-.12-.45z" fill="#000"/><path d="M6.93 31.16c.07-.12.21-.18.34-.14.02.01.05.01.07.03.02.01.04.03.06.05.1.1.12.24.05.36-.07.12-.21.18-.34.14-.03-.01-.05-.02-.08-.03-.02-.01-.05-.03-.06-.05-.09-.08-.11-.24-.04-.36z" fill="#8F9691"/><path d="M6.98 31.53l.29-.5c.02.01.05.01.07.03.01.01.02.01.03.02l.03.03-.29.5c-.02 0-.03 0-.04-.01-.01 0-.02-.01-.04-.02l-.05-.05z" fill="#787C7D"/><path d="M7.07 31.59l.3-.51.03.03-.29.5c-.01-.01-.02-.01-.04-.02z" fill="#5C5F60"/><path opacity=".3" d="M7.23 31.58c-.17 0-.3-.13-.3-.3 0-.07.03-.14.07-.19-.07.05-.11.14-.11.23a.299.299 0 00.53.19c-.06.04-.12.07-.19.07z" fill="#fff"/><path fill-rule="evenodd" clip-rule="evenodd" d="M5.7 32.11c-.48.29-.36.32-.49.89-.2.53-.21.73-.28 1.29-.07.61-.21.61.21 1.03l.76.75c.33.24.44.09.62-.05.37.07.67-.18.61-.58.28-.41.19-.64.03-.91.16-.28.29-.57-.21-.94-.5-.38-.95-.81-1.25-1.48z" fill="#BCBEC0"/><path d="M2.49 0H0v54.4h2.49V0z" fill="#E6E7E8"/><path d="M107.74 123.2H96.41v1.86h11.33v-1.86z" fill="#F7941D"/><path d="M116.59 122.11c-.17-.05-.32-.11-.46-.17 1.4-.87 4.65-3.2 4.65-3.2l1.41.16s1.3 1.24 1.36 1.68c-.81.04-2 .16-2.43.47-.68.51-3.47 1.41-4.53 1.06z" fill="#754336"/><path d="M115.85 122.11c.08-.05.18-.11.28-.17.14.06.3.12.46.17 1.05.34 3.85-.56 4.53-1.05.43-.32 1.63-.43 2.43-.47.01.03.01.07.02.1.12.43.44 1.98.08 2.54l-.36.56-3.29.19-.31-.74s-1.24.12-2.42.53c-1.18.4-3.13-.22-3.13-.22s-.99-.37-.9-.99c.1-.63 1.43.24 2.61-.45z" fill="#061435"/><path d="M129.83 94.39c-.29-.08-.58-.16-.86-.23.03-.01.06-.01.06-.01l-2.79-12.49.17-8.2s3.14-.54 4.18-.39c1.71.26 4.63 1.92 5.4 4.36.56 1.78 3.37 11.65 4.5 17.66-.57.3-1.69.68-3.91.91-4.1.4-5.46-1.24-6.75-1.61z" fill="#245675"/><path d="M113.35 98.42c1.01-1.6 14.67-4.09 15.62-4.26.28.07.57.15.86.23 1.29.36 2.65 2.01 6.76 1.6 2.22-.22 3.34-.6 3.91-.91.42 2.21.61 3.9.38 4.47-.87 2.09-2.34 2.49-7.07 2.43-5.14-.07-12.96.36-12.96.36l3.97 17.65h-9.01c-.01-.01-3.51-19.91-2.46-21.57z" fill="#414042"/><path d="M130.19 73.04c-1.73-.48-2.39-4.32-2.39-4.32l-3.1 2.51 1.71 4.8-.13 2.95 2.86-2.54c1-1.4 2.69-2.95 1.05-3.4z" fill="#563026"/><path d="M122.44 87.24s5.05.09 6.79-.43c1.74-.52 1.95-.23 1.95-.23s-.91-4.91-.91-5.78c0-.87-.68-7.73 3.31-6.1 1.67.68 2.44 3.48 1.92 6.97-.33 2.23-.31 5.4-.25 7.39.03 1.07-.75 1.98-1.81 2.12-3.64.45-11.26 1.06-11.33-1.78v-2.33c.2.1.33.17.33.17z" fill="#245675"/><path d="M117.56 85.67c.86-.43 3.59.9 4.54 1.39v2.33c-3.04-.49-3.85-1.98-3.85-1.98s-2.83 1.68-3.83 2.27c-1.1.64 2.09-3.49 3.14-4.01zm4.59-13.22s-1.38-.05-1.18-.31c.57-.76.49-2.19.49-2.19s-.31-.23-.67-1.08c-.36-.86.17-2.51.17-2.51s1.7-2.43 3.69-2.72c1.77-.39 4.2 1.15 4.93 2.88.7 1.67.13 3.55-1.26 4.57-1.43 1.9-4.42 4.08-4.53 3.96-.14-.16-.86-1.05-1.33-1.08-.12-.01.18-.45.18-.45s-.46.01-.55-.11c-.12-.18.06-.96.06-.96z" fill="#754336"/><path d="M120.76 67.05s2.03-.83 2.64-.1c.61.73 1.88 3.25 2.17 2.87.3-.38-.24-1.6.49-1.88.73-.28 1.98.45 1.6 1.55-.38 1.09-.33 1.37.66 1.27.99-.11 2.76-1.84 1.98-4.07-.78-2.22-3.91-3.53-3.91-3.53s-3.34.04-4.17.59c-1.05.69-2.78 3.82-1.46 3.3z" fill="#381C17"/><path d="M125.83 64.2s-1.7.17-1.25-1.44c.45-1.61.5-2.03 2.29-2.48 1.79-.45 5.33 4.24 2.71 5-2.62.76-3.68-1.04-3.68-1.04l-.07-.04z" fill="#381C17"/><path d="M122.38 103.28l17.76.56 1.81-2.02h-18.13c-.8 0-1.45.65-1.45 1.45v.01h.01zm23.84-17.23c-.68 2.22-2 6.38-2.55 8.11-.16.5-.07 1.05.23 1.47l.33.46 3.59-11.23h-.01c-.73.02-1.38.49-1.59 1.19z" fill="#061435"/><path d="M132.72 103.22v1.05h4.25c.14 0 .28.01.42.05h.03c.86.16 1.57.81 1.81 1.67l4.84 19.07h1.08l-4.91-19.35c-.15-.54-.42-1.02-.79-1.41a4.01 4.01 0 00-.58-.5c-.4-.27-.86-.45-1.34-.53h-.02c-.18-.03-.35-.05-.54-.05h-4.25zm-12.44 21.84h1.09l4.84-19.07a2.355 2.355 0 012.26-1.72h4.25v-1.05h-4.25c-.41 0-.81.07-1.18.22-1 .37-1.79 1.2-2.1 2.27l-4.91 19.35z" fill="#D1D3D4"/><path d="M138.68 104.37c2.3 0 4.35-1.51 5.01-3.74l5.21-17.51a.518.518 0 00-.35-.65.526.526 0 00-.65.35l-5.21 17.51a4.174 4.174 0 01-4.17 2.98l-2.14-.09a.526.526 0 00-.55.5c-.01.29.21.53.5.55l2.14.09c.06 0 .14.01.21.01z" fill="#D1D3D4"/><path d="M121.91 89.06H95.52v1.15h26.39v-1.15z" fill="#361E11"/><path d="M100.09 90.68h-1.15v33.47h1.15V90.68zm8.62 0h-1.15v33.47h1.15V90.68z" fill="#D1D3D4"/><path d="M116.87 123.69H96.94v1.15h19.93v-1.15zm1.26-33.47H98.94v.92h19.19v-.92z" fill="#DFE1E5"/><path d="M107.92 124.42H96.59v.64h11.33v-.64z" fill="#245675"/><path d="M74.4 69.23s.24 2.29 1.35 3.45c1.11 1.16 2.08 2.17 2.08 2.17l-5.19 3.6s-2.5-7.77-1.84-9.12l3.6-.1z" fill="#EDB08B"/><path d="M67.47 69.06s-1.1-.7-.86-.9c.55-.48 1.36-2.2 1.36-2.2s-.2-.38-.14-1.4 1.38-2.42 1.38-2.42 2.87-1.59 4.99-.92c1.95.48 3.62 3.17 3.51 5.25-.11 2-1.59 3.59-3.47 3.94-2.34 1.2-6.37 1.92-6.42 1.75-.06-.22-.34-1.58-.84-1.88-.09-.05.44-.2.44-.2s-.85-.07-.57-.33c.4-.36.62-.69.62-.69z" fill="#FFD6A1"/><path d="M68.67 61.62c-.67.6-1.44 3.08.75 3.5 2.19.41 3.22.62 2.54 3.02-.69 2.4-2.88 5.03-2.33 5.7.55.67 1.37 3.46 1.37 3.46s3.72-4.28 5.14-3.96c1.42.32 4.18 4.05 4.18 4.05s2.33-2.2.27-4.36-1.44-2.77-.96-3.67c.48-.89.07-2.6-.89-3.84-.96-1.23-.28-2.67-2.4-3.91-2.12-1.23-4.87-.96-4.87-.96s-2.25.48-2.8.97z" fill="#BC482E"/><path d="M49.75 122.22c-.96.14-2.01.41-2.38.32-.27-.07-3.93-.21-5.82-.28l.03-.39c.21-.43.63-.72 1.11-.78 1.19-.14 3.46-.55 4.37-1.55 1.25-1.4 1.59-1.8 1.59-1.8s.29-1.04.75-2.63l3.62.67c-.47 1.28-.62 2.19-.62 2.19s1.03 3.1.7 3.82c-.07.14-.11.28-.15.41-.97-.04-2.55-.07-3.2.02z" fill="#414042"/><path d="M49.4 115.12l3.62.67c.62-1.71 1.81-4.07 3.95-5.81 2.76-2.26 3.02-7.91 3.02-7.91s.74.08 1.94.18c-.21-.46-.37-.95-.44-1.46-.23-1.72-1.45-3.42-2.14-4.25-1.8.44-3.24.89-3.74 1.26-1.35.99-4.7 12.13-6.21 17.32z" fill="#FFD6A1"/><path d="M41.48 123.09l.07-.83c1.89.07 5.55.21 5.82.28.36.09 1.42-.18 2.38-.32.65-.09 2.23-.06 3.2-.03-.16.52-.14.9-.14.9H41.48z" fill="#D1D3D4"/><path d="M59.35 96.53c.69.83 1.91 2.53 2.14 4.26.07.51.23 1 .44 1.46.79 1.72 2.3 2.97 2.3 2.97s.7-1.51 3.41-2.65c3.66.1 7.76 0 10.17-.73 5.08-1.58 4.8-20.5 2.05-25.81-1.26-2.44-3.37-3.04-4.55-2.5-1.78.79-10.18 7.39-5.18 12.19 3.59 3.45.34 8.59.34 8.59s-5.93 1-10.35 2.04c-.26.05-.52.11-.77.18z" fill="#F7941D"/><path d="M76.7 74.77s2.31.64 1.12 3.51c-1.19 2.87-10.8 11.31-13.05 10.82-2.25-.49-3.11-.31-1.73-2.66 1.38-2.34 5.17-3.92 6.83-6.03 1.66-2.11 4.36-6 6.83-5.64z" fill="#FFD6A1"/><path d="M51.66 87.26H40.33v1.86h11.33v-1.86z" fill="#F7941D"/><path d="M63.18 88.42H51.85v.64h11.33v-.64z" fill="#245675"/><path d="M67.67 103.28l17.76.56 1.81-2.02H69.11c-.8 0-1.45.65-1.45 1.45v.01h.01zm23.84-17.23c-.68 2.22-2 6.38-2.55 8.11-.16.5-.07 1.05.23 1.47l.33.46 3.59-11.23h-.01c-.73.02-1.38.49-1.59 1.19z" fill="#061435"/><path d="M78.01 103.22v1.05h4.25c.14 0 .28.01.42.05h.03c.86.16 1.57.81 1.81 1.67l4.84 19.07h1.08l-4.91-19.35c-.15-.54-.42-1.02-.79-1.41a4.01 4.01 0 00-.58-.5c-.4-.27-.86-.45-1.34-.53h-.02c-.18-.03-.35-.05-.54-.05h-4.25zm-12.44 21.84h1.09l4.84-19.07a2.355 2.355 0 012.26-1.72h4.25v-1.05h-4.25c-.41 0-.81.07-1.18.22-1 .37-1.79 1.2-2.1 2.27l-4.91 19.35z" fill="#D1D3D4"/><path d="M83.97 104.37c2.3 0 4.35-1.51 5.01-3.74l5.21-17.51a.518.518 0 00-.35-.65.526.526 0 00-.65.35l-5.21 17.51a4.174 4.174 0 01-4.17 2.98l-2.14-.09a.526.526 0 00-.55.5c-.01.29.21.53.5.55l2.14.09c.06 0 .14.01.21.01z" fill="#D1D3D4"/><path d="M67.2 89.06H40.81v1.15H67.2v-1.15z" fill="#361E11"/><path d="M45.38 90.68h-1.15v33.47h1.15V90.68zm8.62 0h-1.15v33.47H54V90.68z" fill="#D1D3D4"/><path d="M62.16 123.69H42.23v1.15h19.93v-1.15zm1.26-33.47H44.23v.92h19.19v-.92z" fill="#DFE1E5"/></g><defs><clipPath id="clip0"><path fill="#fff" d="M0 0h148.92v125.06H0z"/></clipPath></defs></svg>