<svg width="122" height="123" fill="none" xmlns="http://www.w3.org/2000/svg"><g clip-path="url(#clip0)" fill="#fff"><path d="M74.843 34.7c.354-.356.823-.55 1.323-.55s.97.194 1.323.55a1.786 1.786 0 002.536 0c.7-.704.7-1.845 0-2.55a5.411 5.411 0 00-3.861-1.604c-1.46 0-2.83.57-3.861 1.605a1.808 1.808 0 000 2.549c.703.703 1.84.703 2.54 0zm16.989 0c.355-.356.823-.55 1.323-.55s.97.194 1.323.55a1.786 1.786 0 002.536 0c.7-.704.7-1.845 0-2.55a5.411 5.411 0 00-3.861-1.604c-1.46 0-2.83.57-3.861 1.605a1.81 1.81 0 000 2.549c.703.703 1.84.703 2.54 0zM80.797 46.252a5.41 5.41 0 003.861 1.605c1.46 0 2.83-.57 3.861-1.605a1.808 1.808 0 000-2.549 1.79 1.79 0 00-2.538 0c-.354.356-.823.55-1.323.55s-.968-.194-1.322-.55a1.79 1.79 0 00-2.538 0 1.809 1.809 0 000 2.55z"/><path d="M122 72.956c0-2.588-.679-5.112-2.017-7.505a1.79 1.79 0 00-2.442-.69 1.806 1.806 0 00-.687 2.453c1.034 1.848 1.558 3.779 1.558 5.742v14.779h-9.956v-8.776a1.8 1.8 0 00-1.795-1.802 1.8 1.8 0 00-1.794 1.802v8.776h-12.62l2.334-4.432.017-.036a1.997 1.997 0 00.098-1.61l-4.763-15.935.665-2.613c.4.37.677.653.88.862.369.377.998 1.021 1.883 1.021.455 0 .974-.168 1.56-.63.162-.127.349-.273.64-.456.041-.026.082-.053.12-.081l8.029-5.997a23.712 23.712 0 017.628 3.517 1.79 1.79 0 002.498-.447 1.804 1.804 0 00-.443-2.508 27.375 27.375 0 00-9.061-4.12 230.775 230.775 0 01-2.802-2.167c-.858-.67-1.787-1.393-2.679-2.082 3.268-3.299 5.729-7.41 6.665-11.53.26-1.16.392-2.289.392-3.353v-16.86c0-7.346-5.547-13.988-14.13-16.924C88.172.122 84.355-.29 81.029.198c-3.473.507-6.322 1.946-8.29 4.173-4.012.627-9.854 3.74-9.65 16.579.002.122.002.223.002.3v13.886c0 1.1.134 2.231.394 3.356.945 4.177 3.462 8.346 6.804 11.668-.763.59-1.546 1.201-2.273 1.768-1.167.91-2.277 1.778-2.875 2.227a26.321 26.321 0 00-6.194 2.234l.044-8.93c.033-7.312-5.483-13.945-14.06-16.9-6.422-2.215-14.708-2.092-19.194 2.984-4.011.63-9.85 3.743-9.65 16.578.003.123.005.226.005.3v13.886c0 1.1.132 2.234.392 3.359.883 3.884 3.24 7.954 6.423 11.272-.581.394-.909.963-1.09 1.275-.063.108-.12.21-.173.284l-3.775 5.371c-3.442.803-6.908 2.412-9.827 4.577a1.806 1.806 0 00-.378 2.52 1.781 1.781 0 002.507.38 23.754 23.754 0 017.718-3.765c.598.562 1.444.925 2.27.925H54.84c.83 0 1.672-.358 2.266-.925 1.325.36 2.64.85 3.908 1.456.13.086.27.156.419.206 5.495 2.751 9.975 7.645 9.975 13.362v14.779h-9.954v-8.775c0-.995-.803-1.802-1.794-1.802-.99 0-1.794.807-1.794 1.802v8.775H16.023v-8.775c0-.995-.804-1.802-1.794-1.802s-1.795.807-1.795 1.802v8.775h-8.4c-.156 0-.305.003-.446.005v-14.784c0-1.941.51-3.851 1.514-5.674a1.802 1.802 0 00-.7-2.448 1.788 1.788 0 00-2.438.704C.66 99.552 0 102.048 0 104.607v14.971c0 .747.093 1.828.89 2.616.73.721 1.622.805 2.4.805.121 0 .243-.002.358-.005.122-.002.251-.005.385-.005h66.964c.122 0 .239.003.35.005.116.003.236.005.358.005.124 0 .251-.002.383-.01h45.065c3.33 0 4.849-2.344 4.849-4.526V89.537c0-.197-.033-.387-.091-.565.075-.377.091-.74.091-1.045L122 72.956zm-30.892 9.232l-2.919 5.547h-7.382l-2.916-5.547 4.366-14.626h4.48l4.37 14.626zM81.46 60.596l3.2-2.95 2.936 2.707-.919 3.606h-4.36l-.857-3.363zm17.87-5.646c.387.3.751.586 1.086.846l-6.82 5.095-.068.043a26.094 26.094 0 00-1.148-1.057l-3.798-3.507c.47-.14.956-.3 1.459-.488 2.122-.795 4.174-1.98 6.064-3.437 1.05.81 2.189 1.696 3.224 2.505zM73.822 7.867c.5-.046.957-.298 1.263-.697 1.96-2.551 5.25-3.572 8.743-3.572 2.287 0 4.656.437 6.792 1.167 5.396 1.845 11.7 6.491 11.7 13.513v7.558h-1.814c-2.916 0-4.736-1.713-7.04-3.884-2.772-2.612-5.913-5.571-11.523-5.571h-6.205c-4.911 0-5.722 3.97-6.26 6.601-.567 2.78-.986 3.98-2.799 4.238v-5.967c0-.092 0-.212-.002-.358-.089-5.648 1.078-12.493 7.145-13.028zm-6.84 29.818a11.29 11.29 0 01-.303-2.547v-4.295c4.94-.42 5.763-4.43 6.315-7.135.606-2.97.955-3.721 2.744-3.721h6.205c4.191 0 6.56 2.231 9.069 4.595 2.536 2.39 5.157 4.86 9.494 4.86h1.814v5.696c0 .798-.103 1.66-.304 2.556-1.395 6.14-7.083 12.507-13.229 14.81-1.626.608-2.99.892-4.291.892-1.3 0-2.66-.284-4.282-.889-6.155-2.306-11.841-8.672-13.231-14.822zm3.235 17.092c.909-.709 1.902-1.484 2.837-2.205 1.844 1.4 3.842 2.537 5.906 3.31.589.221 1.153.404 1.704.558l-3.73 3.437c-.478.418-.854.772-1.143 1.055l-.065-.04-6.822-5.091 1.313-1.024zM19.68 63.702V50.424c0-.089-.002-.209-.005-.358-.088-5.645 1.08-12.487 7.146-13.023.5-.045.96-.298 1.265-.697 3.26-4.252 10.224-4.256 15.68-2.375 5.39 1.854 11.67 6.498 11.636 13.474l-.055 11.128-.016 3.615-.008 1.399c-4.497 4.564-11.939 6.995-20.082 6.517-6.796-.396-12.685-2.832-15.56-6.402zm1.139 5.749c3.691 2.407 8.657 3.928 14.214 4.252.737.043 1.466.065 2.194.065 6.49 0 12.516-1.699 17.13-4.764-1.323 3.46-3.904 6.928-7.124 9.508H27.76c-3.077-2.464-5.57-5.746-6.94-9.061zm.715 17.45l3.038-4.317c.117-.168.216-.329.297-.468h25.895c.062.115.127.23.198.35l2.658 4.435H21.534zm32.507-6.284a6.175 6.175 0 01-.136-.245c-.227-.423-.69-1.271-1.603-1.658 3.081-3.277 5.351-7.252 6.212-11.048.259-1.153.393-2.275.393-3.332l.002-.015.02-3.795c2.061-1.252 4.355-2.213 6.595-2.756l8.118 6.056c.039.03.077.056.118.082.294.183.478.33.643.457.586.46 1.105.631 1.557.631.886 0 1.515-.646 1.88-1.023.156-.161.357-.365.618-.617l.603 2.368-4.744 15.894a1.956 1.956 0 00.108 1.696l2.323 4.423H62.414a26.44 26.44 0 00-5.218-1.847l-3.155-5.271zm63.11 38.769H74.999v-14.779c0-4.618-2.134-8.985-6.17-12.63a26.652 26.652 0 00-.736-.636h49.867c.134 0 .263.002.387.005h.065v27.12c0 .478-.153.92-1.261.92z"/></g><defs><clipPath id="clip0"><path fill="#fff" d="M0 0h122v123H0z"/></clipPath></defs></svg>