<svg xmlns="http://www.w3.org/2000/svg" width="133" height="114" fill="none"><g clip-path="url(#clip0)" fill="#fff"><path d="M127.415 97.083h-3.902a7.112 7.112 0 00.785-3.256l-.003-67.668c0-3.946-3.205-7.158-7.143-7.158h-10.518v-2.384c0-1.88-1.528-3.41-3.403-3.41h-3.224V3.411c0-1.101-.535-2.14-1.428-2.777a3.412 3.412 0 00-3.09-.446l-6.135 2.127a1.954 1.954 0 00-1.205 2.483 1.949 1.949 0 002.478 1.208l5.484-1.9v46.948l-27.663 9.583V13.69l14.324-4.964a1.952 1.952 0 00-1.273-3.69L66.5 10.232 37.51.188a3.406 3.406 0 00-3.086.446 3.419 3.419 0 00-1.429 2.777v9.794H29.77a3.411 3.411 0 00-3.403 3.41V19h-10.52c-3.938 0-7.144 3.212-7.144 7.158V33.1a1.95 1.95 0 001.948 1.952A1.95 1.95 0 0012.6 33.1v-6.94a3.255 3.255 0 013.247-3.254h10.52v3.904h-7.923c-.517 0-1.013.206-1.376.573a1.95 1.95 0 00-.572 1.38l.003 62.463a1.95 1.95 0 001.948 1.952h96.111c.517 0 1.013-.206 1.376-.573.367-.367.572-.862.572-1.38l-.003-62.463a1.95 1.95 0 00-1.948-1.952h-7.92v-3.904h10.518a3.255 3.255 0 013.247 3.254l.002 67.668a3.255 3.255 0 01-3.247 3.254l-101.306.002a3.255 3.255 0 01-3.247-3.253L12.6 41.455a1.95 1.95 0 00-1.949-1.952 1.95 1.95 0 00-1.948 1.952l.003 52.375c0 1.171.283 2.277.784 3.253H5.585C2.507 97.083 0 99.593 0 102.68v5.726c0 3.087 2.507 5.596 5.585 5.596h77.457a1.95 1.95 0 001.948-1.952 1.95 1.95 0 00-1.948-1.952H5.585c-.93 0-1.689-.76-1.689-1.692v-5.726c0-.932.759-1.692 1.689-1.692h47.797v1.372a4.875 4.875 0 004.865 4.875h16.506a4.875 4.875 0 004.865-4.875v-1.372h47.797c.93 0 1.689.76 1.689 1.692v5.726c0 .932-.759 1.692-1.689 1.692H91.549a1.95 1.95 0 00-1.948 1.952 1.95 1.95 0 001.948 1.952h35.866c3.081 0 5.585-2.509 5.585-5.596v-5.726c0-3.087-2.504-5.596-5.585-5.596zM97.716 54.627a3.412 3.412 0 002.291-3.222V17.111h2.73v44.315H78.096l19.62-6.799zM36.889 4.103l27.663 9.586v46.948l-27.663-9.583V4.103zm-6.626 13.008h2.73v34.294c0 1.453.92 2.749 2.291 3.222l19.62 6.799H30.263V17.11zm82.343 13.602l.002 58.56-92.214.002-.002-58.559h5.974V61.92c0 1.88 1.528 3.41 3.403 3.41h73.462a3.412 3.412 0 003.403-3.41V30.713h5.972zM75.722 102.36a.97.97 0 01-.97.971H58.248a.97.97 0 01-.969-.971v-1.372h18.444v1.372z"/><path d="M92.09 70.896H40.91a1.95 1.95 0 00-1.948 1.952A1.95 1.95 0 0040.91 74.8h51.18a1.95 1.95 0 001.948-1.952 1.95 1.95 0 00-1.948-1.952zM74.1 79.175H40.91a1.95 1.95 0 00-1.948 1.952 1.95 1.95 0 001.948 1.952H74.1a1.95 1.95 0 001.949-1.952 1.95 1.95 0 00-1.948-1.952z"/></g><defs><clipPath id="clip0"><path fill="#fff" d="M0 0h133v114H0z"/></clipPath></defs></svg>