<svg xmlns="http://www.w3.org/2000/svg" width="88" height="88" fill="none"><g clip-path="url(#clip0)" fill="#fff"><path d="M87.817 54.064L83.95 44.001l3.86-10.07a2.753 2.753 0 00-.835-3.124l-8.377-6.786-1.694-10.652a2.755 2.755 0 00-2.282-2.282L63.968 9.392l-6.785-8.374A2.755 2.755 0 0054.06.183L43.996 4.048 33.927.188a2.735 2.735 0 00-3.117.835L24.023 9.4 13.37 11.094a2.755 2.755 0 00-2.283 2.282L9.394 24.028l-8.377 6.785a2.747 2.747 0 00-.835 3.117l3.86 10.069L.18 54.069a2.752 2.752 0 00.835 3.118l8.377 6.787 1.694 10.651a2.755 2.755 0 002.283 2.282l10.652 1.695 6.787 8.376a2.736 2.736 0 003.124.835l10.065-3.86 10.07 3.86a2.757 2.757 0 003.124-.835l6.787-8.376 10.652-1.695a2.755 2.755 0 002.282-2.282l1.695-10.651 8.377-6.787a2.757 2.757 0 00.833-3.123zm-9.387-9.079l3.525 9.184-7.65 6.192a2.748 2.748 0 00-.985 1.705l-1.545 9.717-9.717 1.545a2.748 2.748 0 00-1.705.984l-6.182 7.65-9.184-3.525a2.933 2.933 0 00-.99-.182c-.335 0-.67.06-.985.182l-9.184 3.525-6.193-7.65a2.747 2.747 0 00-1.705-.984l-9.717-1.545-1.545-9.717a2.748 2.748 0 00-.985-1.705l-7.65-6.187L9.56 44.99a2.745 2.745 0 00-.006-1.974l-3.521-9.19 7.65-6.191c.527-.43.88-1.035.984-1.705l1.545-9.717 9.718-1.545a2.748 2.748 0 001.705-.984L33.82 6.04l9.184 3.524a2.76 2.76 0 001.97 0l9.184-3.524 6.193 7.649a2.75 2.75 0 001.704.985l9.718 1.545 1.545 9.716c.105.67.457 1.275.984 1.705l7.65 6.192-3.525 9.184c-.24.632-.24 1.337.002 1.97z"/><path d="M35.748 22.002c-4.548 0-8.25 3.702-8.25 8.25 0 4.547 3.702 8.249 8.25 8.249 4.547 0 8.25-3.702 8.25-8.25 0-4.547-3.703-8.249-8.25-8.249zm0 11a2.751 2.751 0 01-2.75-2.75 2.751 2.751 0 012.75-2.75 2.751 2.751 0 012.75 2.75 2.751 2.751 0 01-2.75 2.75zM52.247 49.5c-4.548 0-8.25 3.701-8.25 8.248 0 4.548 3.702 8.25 8.25 8.25 4.547 0 8.25-3.702 8.25-8.25 0-4.547-3.703-8.249-8.25-8.249zm0 10.998a2.751 2.751 0 01-2.75-2.75 2.751 2.751 0 012.75-2.75 2.751 2.751 0 012.75 2.75 2.751 2.751 0 01-2.75 2.75zm7.1-37.978a2.751 2.751 0 00-3.833.637L28.016 61.653a2.745 2.745 0 002.232 4.344c.858 0 1.705-.402 2.238-1.15l27.498-38.495a2.746 2.746 0 00-.637-3.832z"/></g><defs><clipPath id="clip0"><path fill="#fff" d="M0 0h88v88H0z"/></clipPath></defs></svg>