<svg width="122" height="122" fill="none" xmlns="http://www.w3.org/2000/svg"><path d="M37.413 7.148a1.788 1.788 0 100 3.576 1.788 1.788 0 000-3.576zm7.148 0a1.788 1.788 0 10.001 3.576 1.788 1.788 0 00-.001-3.576zm-14.297 0a1.788 1.788 0 10.001 3.576 1.788 1.788 0 000-3.576zm84.395 0h-13.988V4.646A4.652 4.652 0 0096.025 0h-70.05a4.652 4.652 0 00-4.646 4.646v5.61H8.936C4.008 10.256 0 14.264 0 19.19v67.296c0 4.927 4.008 8.935 8.936 8.935h41.79l-1.361 10.118h-1.992a3.705 3.705 0 00-3.56 2.706l-2.517 9.074a3.657 3.657 0 00.62 3.222 3.672 3.672 0 002.94 1.458h32.288a3.664 3.664 0 002.94-1.458c.705-.927.93-2.102.62-3.222l-2.517-9.074a3.701 3.701 0 00-3.56-2.706h-1.992l-1.36-10.118h41.789c4.928 0 8.936-4.008 8.936-8.935V14.49c0-4.049-3.293-7.342-7.341-7.342zM24.903 17.871h28.949a1.788 1.788 0 000-3.574h-28.95v-9.65c0-.591.482-1.073 1.073-1.073h70.05c.59 0 1.072.482 1.072 1.072v2.502h-11.78c-3.984 0-7.235 3.191-7.337 7.149H62.19a1.788 1.788 0 000 3.574h15.784v9.279c0 4.048 3.293 7.341 7.342 7.341h3.54v3.43c0 1.024.613 1.941 1.561 2.334a2.526 2.526 0 002.755-.548l3.924-3.924v27.893a1.788 1.788 0 003.574 0V34.489h10.606v46.636H100.67v-9.11a1.787 1.787 0 00-3.574 0v9.11H83.065v-10.57c0-4.84-2.91-9.112-7.413-10.882l-4.828-1.9a3.185 3.185 0 01-2.03-2.98v-2.02c3-2.331 4.937-5.97 4.937-10.054V29.375c0-4.141-3.369-7.51-7.51-7.51H55.786c-4.14 0-7.51 3.369-7.51 7.51V42.72c0 4.084 1.937 7.723 4.937 10.056v2.02a3.187 3.187 0 01-2.033 2.981l-4.827 1.9a11.628 11.628 0 00-7.416 10.882v10.57H24.905l-.002-63.257zm45.652 56.525c-.986 0-1.787.8-1.787 1.787v4.942H53.232v-4.942a1.788 1.788 0 00-3.574 0v4.942h-7.149v-10.57a8.075 8.075 0 015.147-7.556l4.397-1.73a12.74 12.74 0 008.945 3.653 12.75 12.75 0 008.947-3.653L74.341 63a8.074 8.074 0 015.147 7.556v10.57H72.34v-4.942a1.784 1.784 0 00-1.785-1.787zm-17.37-34.4c2.51 0 4.996-.422 7.322-1.254a21.292 21.292 0 003.874-1.844 8.663 8.663 0 005.774 2.897v2.922c0 5.047-4.106 9.154-9.155 9.154-5.05 0-9.155-4.105-9.155-9.154V39.95c.448.029.894.045 1.34.045zm-1.34-3.625v-6.998a3.94 3.94 0 013.937-3.937h10.434a3.94 3.94 0 013.936 3.937v6.83a5.167 5.167 0 01-1.489-.454 5.184 5.184 0 01-2.087-1.844 2.276 2.276 0 00-1.449-.982 2.295 2.295 0 00-1.723.353 17.898 17.898 0 01-4.103 2.1c-2.347.84-4.899 1.176-7.456.995zM66.87 59.232A9.177 9.177 0 0161 61.348a9.172 9.172 0 01-5.869-2.116 6.753 6.753 0 001.651-4.44v-.066a12.686 12.686 0 008.436 0v.067c0 1.68.607 3.236 1.65 4.439zm7.758 49.879c.053 0 .1.036.115.086l2.516 9.076c.024.057-.052.158-.114.15H44.856c-.062.008-.138-.093-.114-.15l2.516-9.076a.12.12 0 01.115-.086h27.254zm-21.655-3.574l1.36-10.117h13.335l1.36 10.117H52.973zm65.454-19.05a5.366 5.366 0 01-5.362 5.36H8.936a5.366 5.366 0 01-5.362-5.36V19.19a5.366 5.366 0 015.362-5.361h12.393v3.574H9.889a2.744 2.744 0 00-2.74 2.74V81.96c0 1.51 1.229 2.74 2.74 2.74H112.11a2.744 2.744 0 002.741-2.74V34.484a7.283 7.283 0 003.574-1.039v53.042zM21.329 20.978v60.147H10.723V20.978h10.606zm97.097 6.172a3.771 3.771 0 01-3.767 3.767H98.186c-.824 0-1.599.322-2.18.903l-3.574 3.574V34a3.087 3.087 0 00-3.084-3.083h-4.031a3.77 3.77 0 01-3.768-3.767V14.49a3.77 3.77 0 013.768-3.767h29.342a3.771 3.771 0 013.767 3.767v12.66zm-6.298-4.544H87.85a1.788 1.788 0 000 3.574h24.278a1.788 1.788 0 000-3.574zm0-7.149H87.85a1.788 1.788 0 000 3.575h24.278a1.788 1.788 0 000-3.575z" fill="#fff"/></svg>